SplineFontDB: 3.2
FontName: RusimezSansBold
FullName: Rusimez sans bold
FamilyName: Rusimez sans
Weight: Bold
Copyright: Copyright (c) 2022, Daco77\n
UComments: "2022-11-25: Created with FontForge (http://fontforge.org)"
Version: 001.000
ItalicAngle: 0
UnderlinePosition: -100
UnderlineWidth: 50
Ascent: 800
Descent: 200
InvalidEm: 0
LayerCount: 2
Layer: 0 0 "+tLe6dAAA" 1
Layer: 1 0 "+xV66dAAA" 0
XUID: [1021 328 918690791 307]
StyleMap: 0x0000
FSType: 0
OS2Version: 0
OS2_WeightWidthSlopeOnly: 0
OS2_UseTypoMetrics: 1
CreationTime: 1669386597
ModificationTime: 1732623428
OS2TypoAscent: 0
OS2TypoAOffset: 1
OS2TypoDescent: 0
OS2TypoDOffset: 1
OS2TypoLinegap: 90
OS2WinAscent: 0
OS2WinAOffset: 1
OS2WinDescent: 0
OS2WinDOffset: 1
HheadAscent: 0
HheadAOffset: 1
HheadDescent: 0
HheadDOffset: 1
MarkAttachClasses: 1
DEI: 91125
LangName: 1033
Encoding: UnicodeBmp
UnicodeInterp: none
NameList: AGL For New Fonts
DisplaySize: -96
AntiAlias: 1
FitToEm: 0
WinInfo: 57324 17 8
BeginPrivate: 0
EndPrivate
BeginChars: 65536 379

StartChar: uniE111
Encoding: 57617 57617 0
Width: 1000
HStem: -119.7 123.2<566.547 685.954> 191.9 138.899<566.25 679.537> 396.7 122.1<102.7 175.5 319.7 436.503 614.7 897.3>
VStem: 152 122.9<-106.5 18.8464> 192.5 127.2<518.8 626.958> 408.9 123<38.0464 157.715> 720.5 123.2<38.0375 156.821>
LayerCount: 2
Fore
SplineSet
256.299804688 795.799804688 m 2xee
 256.299804688 795.900390625 l 1
 376.299804688 759.099609375 l 1
 353.400390625 684.400390625 334.400390625 603.700195312 319.700195312 518.799804688 c 1xee
 366 518.799804688 l 2
 478.700195312 536.799804688 569.900390625 615.400390625 604.200195312 724.400390625 c 2
 610.200195312 743.5 l 1
 723.599609375 707.799804688 l 1
 717.599609375 688.700195312 l 2
 697.299804688 624.099609375 662.099609375 566.200195312 614.700195312 518.799804688 c 1
 897.299804688 518.799804688 l 1
 897.299804688 396.700195312 l 1
 301.700195312 396.700195312 l 1
 294.799804688 339.900390625 289.400390625 280.5 285.700195312 219.5 c 1
 363.799804688 294.299804688 449.799804688 330.799804688 547.299804688 330.799804688 c 0
 597.200195312 330.799804688 646.200195312 321.900390625 693.200195312 304.400390625 c 0
 705.5 300.400390625 718.400390625 294.900390625 730.5 288.299804688 c 0
 800.5 249.700195312 843.599609375 176.799804688 843.700195312 97.7001953125 c 0
 843.700195312 -22.2001953125 746.200195312 -119.700195312 626.299804688 -119.700195312 c 0
 506.400390625 -119.700195312 408.900390625 -22.2001953125 408.900390625 97.7001953125 c 0
 408.900390625 126.299804688 414.400390625 154.099609375 425 180 c 1
 376 154.400390625 337.799804688 110.299804688 304.700195312 42.5 c 0
 290.700195312 14 281.599609375 -16.599609375 277.400390625 -48.2998046875 c 0
 275.700195312 -59.599609375 274.900390625 -70.7998046875 274.900390625 -83.900390625 c 2
 274.900390625 -106.5 l 1
 152 -106.5 l 1
 152 -83.900390625 l 2xf6
 152 105.200195312 159.5 258.700195312 175.5 396.700195312 c 1
 102.700195312 396.700195312 l 1
 102.700195312 518.799804688 l 1
 192.5 518.799804688 l 1
 208.700195312 617.799804688 229.599609375 708.599609375 256.299804688 795.799804688 c 2xee
626.200195312 191.900390625 m 1
 626.200195312 192 l 1
 574.200195312 192 531.900390625 149.799804688 531.900390625 97.7998046875 c 0
 531.900390625 45.7998046875 574.200195312 3.5 626.200195312 3.5 c 0
 678.200195312 3.5 720.5 45.7998046875 720.5 97.7001953125 c 0
 720.5 133 701 165 669.700195312 181.299804688 c 0
 665.700195312 183.099609375 661 185.200195312 656.299804688 187 c 0
 647.200195312 190.200195312 636.799804688 191.900390625 626.200195312 191.900390625 c 1
EndSplineSet
EndChar

StartChar: uniE112
Encoding: 57618 57618 1
Width: 1000
HStem: -119.6 123.899<563.131 688.328> 396.9 122.1<102.7 175.4 319.4 436.743 614.9 897.5>
VStem: 152 122.9<-106.5 19.9203>
LayerCount: 2
Fore
SplineSet
192.5 518.799804688 m 1
 192.400390625 518.799804688 l 1
 208.599609375 617.799804688 229.599609375 708.599609375 256.299804688 795.900390625 c 1
 376.400390625 759.299804688 l 1
 352.799804688 682.099609375 334.099609375 603.299804688 319.400390625 519 c 1
 366.200195312 519 l 2
 479 537 570.099609375 615.599609375 604.400390625 724.599609375 c 2
 610.400390625 743.700195312 l 1
 723.799804688 708 l 1
 717.799804688 688.900390625 l 2
 697.5 624.299804688 662.299804688 566.400390625 614.900390625 519 c 1
 897.5 519 l 1
 897.5 396.900390625 l 1
 301.400390625 396.900390625 l 1
 294.599609375 340.400390625 289.5 282.400390625 285.900390625 221.200195312 c 1
 361.5 295.900390625 445.799804688 331 547.5 331 c 0
 601.099609375 331 653.200195312 321.099609375 702.200195312 301.599609375 c 0
 712 297.900390625 721.599609375 293.599609375 730.400390625 288.700195312 c 1
 730.799804688 288.5 731.200195312 288.200195312 731.599609375 288 c 0
 824.700195312 236.599609375 867.200195312 122.700195312 830.299804688 22.7001953125 c 0
 810.200195312 -31.7998046875 770.099609375 -75.2001953125 717.400390625 -99.5 c 0
 688.400390625 -112.900390625 657.599609375 -119.599609375 626.599609375 -119.599609375 c 0
 601.099609375 -119.599609375 575.700195312 -115.099609375 551.099609375 -106 c 0
 533.900390625 -99.7001953125 517.400390625 -91.099609375 502.099609375 -80.5 c 2
 485.700195312 -69.099609375 l 1
 555.700195312 31.2998046875 l 1
 572.099609375 19.900390625 l 2
 592.900390625 5.400390625 618.099609375 -0.2001953125 643.099609375 4.2998046875 c 0
 668.099609375 8.7998046875 689.799804688 22.7001953125 704.299804688 43.5 c 0
 718.799804688 64.2998046875 724.400390625 89.5 719.900390625 114.5 c 0
 715.400390625 139.5 701.5 161.200195312 680.700195312 175.700195312 c 0
 679.099609375 176.700195312 677.5 177.799804688 675.799804688 178.799804688 c 0
 533 247.900390625 377 190.700195312 304.700195312 42.599609375 c 0
 285.200195312 2.599609375 274.900390625 -42.099609375 274.900390625 -86.5 c 2
 274.900390625 -106.5 l 1
 152 -106.5 l 1
 152 -83.900390625 l 2
 152 108.299804688 159.299804688 257.799804688 175.400390625 396.700195312 c 1
 102.700195312 396.700195312 l 1
 102.700195312 518.799804688 l 1
 192.5 518.799804688 l 1
EndSplineSet
EndChar

StartChar: uniE113
Encoding: 57619 57619 2
Width: 1000
HStem: -120.5 123<174.446 292.787> -112.6 135.399<573.431 796.069> 191.1 123.2<174.446 288.087> 396.8 122.101<102.7 289 614.7 897.3>
VStem: 16.7998 123<37.1465 156.553> 289.6 125.2<307.4 396.7 531.1 773.2>
LayerCount: 2
Fore
SplineSet
289.5 518.799804688 m 1xbc
 289.599609375 518.799804688 l 1
 290.599609375 773.200195312 l 1
 414.799804688 773.200195312 l 1
 414.799804688 531.099609375 l 1
 504.299804688 561.5 575.599609375 633.700195312 604.200195312 724.5 c 2
 610.200195312 743.599609375 l 1
 723.599609375 707.900390625 l 1
 717.599609375 688.799804688 l 2
 697.299804688 624.200195312 662.099609375 566.299804688 614.700195312 518.900390625 c 1
 897.299804688 518.900390625 l 1
 897.299804688 396.799804688 l 1
 414.700195312 396.799804688 l 1
 414.700195312 274.200195312 l 2
 425.599609375 120 537.099609375 19.099609375 693.5 22.7998046875 c 0
 767.200195312 24.7001953125 836.900390625 54 889.799804688 105.200195312 c 2
 904.200195312 119.099609375 l 1
 991.599609375 29.099609375 l 1
 977.200195312 15.2001953125 l 2
 895.900390625 -63.599609375 794.200195312 -109 690.799804688 -112.599609375 c 0x7c
 591.700195312 -116.099609375 497.099609375 -80.400390625 422.599609375 -11.599609375 c 1
 384.200195312 -78.599609375 313.099609375 -120.5 234.200195312 -120.5 c 0
 114.299804688 -120.5 16.7998046875 -23 16.7998046875 96.900390625 c 0
 16.7998046875 216.799804688 114.299804688 314.299804688 234.200195312 314.299804688 c 0
 252.799804688 314.299804688 271 312 288.700195312 307.400390625 c 1
 289 396.700195312 l 1
 102.700195312 396.700195312 l 1
 102.700195312 518.799804688 l 1
 289.5 518.799804688 l 1xbc
321.799804688 131.400390625 m 1
 321.799804688 131.299804688 l 1
 321.099609375 133.099609375 320.700195312 134.099609375 320.299804688 135 c 0
 305.200195312 169.099609375 271.400390625 191.099609375 234.099609375 191.099609375 c 0
 182.099609375 191.099609375 139.799804688 148.799804688 139.799804688 96.7998046875 c 0
 139.799804688 44.7998046875 182.099609375 2.5 234.099609375 2.5 c 0xbc
 286.099609375 2.5 328.400390625 44.7998046875 328.400390625 96.7998046875 c 0
 328.400390625 109 326.200195312 120.599609375 321.799804688 131.400390625 c 1
EndSplineSet
EndChar

StartChar: uniE114
Encoding: 57620 57620 3
Width: 1000
HStem: -40.7002 122.9<320.693 443.423> 270.8 123.2<320.871 443.423> 396.7 122.1<102.7 175.5 319.3 436.642 614.8 897.4>
VStem: 152 122.9<-106.5 -17.4004> 192.5 126.8<518.8 627.013> 479.4 123.199<117.779 235.417>
LayerCount: 2
Fore
SplineSet
256.299804688 795.799804688 m 2xec
 256.299804688 795.900390625 l 1
 376.299804688 759.099609375 l 1
 352.799804688 682.5 334.099609375 603.599609375 319.299804688 518.799804688 c 1xec
 366.099609375 518.799804688 l 2
 478.900390625 536.799804688 570 615.400390625 604.299804688 724.400390625 c 2
 610.299804688 743.5 l 1
 723.700195312 707.799804688 l 1
 717.700195312 688.700195312 l 2
 697.400390625 624.099609375 662.200195312 566.200195312 614.799804688 518.799804688 c 1
 897.400390625 518.799804688 l 1
 897.400390625 396.700195312 l 1
 301.400390625 396.700195312 l 2
 300.5 389.900390625 299.700195312 383.299804688 299 376.900390625 c 1
 325.5 387.5 356.099609375 394 382.599609375 394 c 0
 503.900390625 394 602.599609375 296.599609375 602.599609375 176.700195312 c 0
 602.599609375 56.7998046875 503.900390625 -40.7001953125 382.599609375 -40.7001953125 c 0
 341.099609375 -40.7001953125 306.700195312 -33.2001953125 276.900390625 -17.400390625 c 1
 275.799804688 -40.5 274.900390625 -62.7001953125 274.900390625 -86.5 c 2
 274.900390625 -106.5 l 1
 152 -106.5 l 1
 152 -86.5 l 2xf4
 152 103.799804688 159.5 258.099609375 175.5 396.700195312 c 1
 102.700195312 396.700195312 l 1
 102.700195312 518.799804688 l 1
 192.5 518.799804688 l 1
 208.700195312 617.900390625 229.599609375 708.700195312 256.299804688 795.799804688 c 2xec
382.5 270.799804688 m 0
 329.099609375 270.799804688 285.599609375 228.5 285.599609375 176.5 c 0
 285.599609375 124.5 329.099609375 82.2001953125 382.5 82.2001953125 c 0
 435.900390625 82.2001953125 479.400390625 124.5 479.400390625 176.5 c 0
 479.400390625 228.5 435.900390625 270.799804688 382.5 270.799804688 c 0
EndSplineSet
EndChar

StartChar: uniE115
Encoding: 57621 57621 4
Width: 1000
HStem: -132.7 430.601<768.7 867.4> -113 125.6<400.38 585.572> 396.7 122.1<102.7 176.4 319.7 436.642 614.8 897.4>
VStem: 167 125.9<118.56 393.676>
LayerCount: 2
Fore
SplineSet
480.799804688 12.599609375 m 1x70
 480.900390625 12.599609375 l 2x70
 638.900390625 14.7998046875 765 139.900390625 768.700195312 297.900390625 c 1
 894.299804688 297.900390625 l 1
 894.299804688 297.599609375 l 2
 894.099609375 289.599609375 893.799804688 282 893.299804688 274.799804688 c 0
 981.599609375 220.599609375 1020.79980469 109.700195312 984.5 11.099609375 c 0
 951.700195312 -77.7001953125 867.400390625 -132.700195312 777.900390625 -132.700195312 c 0xb0
 752.599609375 -132.700195312 727 -128.299804688 701.900390625 -119 c 0
 678 -110.200195312 656.099609375 -97.5 636.700195312 -81.2001953125 c 0
 586.299804688 -102.099609375 533 -112.799804688 478 -113 c 0
 304.299804688 -109.200195312 168 29.5 167 203.099609375 c 1
 167 267.200195312 170.200195312 332.200195312 176.400390625 396.700195312 c 1
 102.700195312 396.700195312 l 1
 102.700195312 518.799804688 l 1
 191.900390625 518.799804688 l 1
 206.799804688 612.400390625 228.400390625 705.599609375 256.299804688 795.900390625 c 1
 376.799804688 759 l 1
 376.799804688 758.799804688 l 2
 352.700195312 680.700195312 333.5 600 319.700195312 518.799804688 c 1
 366.099609375 518.799804688 l 2
 478.900390625 536.799804688 570 615.400390625 604.299804688 724.400390625 c 2
 610.299804688 743.5 l 1
 723.700195312 707.799804688 l 1
 717.700195312 688.700195312 l 2
 697.400390625 624.099609375 662.200195312 566.200195312 614.799804688 518.799804688 c 1
 897.400390625 518.799804688 l 1
 897.400390625 396.700195312 l 1
 302.900390625 396.700195312 l 1
 296.5 334.299804688 293.099609375 271.099609375 292.900390625 208.700195312 c 0
 291.099609375 105.599609375 373.799804688 17.7001953125 477.200195312 12.599609375 c 2
 480.799804688 12.599609375 l 1x70
873.700195312 77.2001953125 m 2
 873.700195312 77.2998046875 l 2
 876 98.900390625 871 120.200195312 859.599609375 138.400390625 c 1
 835.700195312 83.2001953125 800.200195312 34.099609375 755.299804688 -6.099609375 c 1
 784 -12.900390625 814.900390625 -6.5 838.5 12.599609375 c 0
 858.5 28.7001953125 871 51.599609375 873.700195312 77.2001953125 c 2
EndSplineSet
EndChar

StartChar: uniE116
Encoding: 57622 57622 5
Width: 1000
HStem: -113 198.3<423.025 632.638> 273.9 122.8<546.95 597.4 616.2 666.85> 396.7 122.1<102.7 176.4 319.7 436.642 616.2 897.4>
VStem: 167 125.8<116.928 393.695> 389.5 123.1<119.888 238.496> 701.2 191.6<119.65 239.55> 768.6 124.2<-111.6 8.59961>
LayerCount: 2
Fore
SplineSet
191.900390625 518.799804688 m 1xba
 206.799804688 612.5 228.400390625 705.700195312 256.299804688 795.900390625 c 1
 376.799804688 759 l 1
 376.799804688 758.799804688 l 2
 352.700195312 680.599609375 333.5 600 319.700195312 518.799804688 c 1
 366.099609375 518.799804688 l 2
 478.900390625 536.799804688 570 615.400390625 604.299804688 724.400390625 c 2
 610.299804688 743.5 l 1
 723.700195312 707.799804688 l 1
 717.700195312 688.700195312 l 2
 697.400390625 624.099609375 662.200195312 566.200195312 614.799804688 518.799804688 c 1
 897.400390625 518.799804688 l 1
 897.400390625 396.700195312 l 1xba
 616.200195312 396.700195312 l 1xda
 684 393.700195312 747.900390625 356.900390625 787.400390625 299.400390625 c 1
 892.799804688 299.400390625 l 1
 892.799804688 -111.599609375 l 1
 768.599609375 -111.599609375 l 1
 768.599609375 8.599609375 l 1
 691.099609375 -68.7998046875 586.900390625 -112.599609375 475.400390625 -113 c 0
 299.099609375 -109.099609375 163.900390625 33.099609375 167 210.700195312 c 0
 167.200195312 272 170.400390625 334.5 176.400390625 396.700195312 c 1
 102.700195312 396.700195312 l 1
 102.700195312 518.799804688 l 1
 191.900390625 518.799804688 l 1xba
606.900390625 273.900390625 m 0xdc
 554.900390625 273.900390625 512.599609375 231.599609375 512.599609375 179.599609375 c 0
 512.599609375 127.599609375 554.900390625 85.2998046875 606.900390625 85.2998046875 c 0
 658.900390625 85.2998046875 701.200195312 127.599609375 701.200195312 179.599609375 c 0
 701.200195312 231.599609375 658.900390625 273.900390625 606.900390625 273.900390625 c 0xdc
302.799804688 396.700195312 m 1xb8
 296.099609375 332.599609375 292.799804688 267.599609375 292.799804688 203.200195312 c 0
 293.599609375 104 369.400390625 21.900390625 466.700195312 13.2001953125 c 1
 418.5 53.7998046875 389.5 114.099609375 389.5 179.5 c 0
 389.5 296.200195312 481.900390625 391.700195312 597.400390625 396.700195312 c 1xd8
 302.799804688 396.700195312 l 1xb8
EndSplineSet
EndChar

StartChar: uniE117
Encoding: 57623 57623 6
Width: 1000
HStem: -113 125.6<400.298 585.277> 396.7 122.1<102.7 176.4 319.7 436.642 614.8 897.4>
VStem: 167 125.9<118.56 393.676> 768.6 124.2<-106.4 6.09961 193.441 297.9>
LayerCount: 2
Fore
SplineSet
480.700195312 12.599609375 m 2
 638.5 14.900390625 764.700195312 140 768.5 297.900390625 c 1
 892.799804688 297.900390625 l 1
 892.799804688 -106.400390625 l 1
 768.599609375 -106.400390625 l 1
 768.599609375 6.099609375 l 1
 691.299804688 -69.7001953125 588 -112.599609375 477.900390625 -113 c 0
 304.299804688 -109.299804688 168 29.5 167 203.099609375 c 1
 167 267.200195312 170.200195312 332.200195312 176.400390625 396.700195312 c 1
 102.700195312 396.700195312 l 1
 102.700195312 518.799804688 l 1
 191.900390625 518.799804688 l 1
 206.799804688 612.400390625 228.400390625 705.599609375 256.299804688 795.900390625 c 1
 376.799804688 759 l 1
 376.799804688 758.799804688 l 2
 352.700195312 680.599609375 333.5 600 319.700195312 518.799804688 c 1
 366.099609375 518.799804688 l 2
 478.900390625 536.799804688 570 615.400390625 604.299804688 724.400390625 c 2
 610.299804688 743.5 l 1
 723.700195312 707.799804688 l 1
 717.700195312 688.700195312 l 2
 697.400390625 624.099609375 662.200195312 566.200195312 614.799804688 518.799804688 c 1
 897.400390625 518.799804688 l 1
 897.400390625 396.700195312 l 1
 302.900390625 396.700195312 l 1
 296.5 334.299804688 293.099609375 271.200195312 292.900390625 208.700195312 c 0
 291.099609375 105.599609375 373.700195312 17.7001953125 477.099609375 12.599609375 c 2
 480.700195312 12.599609375 l 2
EndSplineSet
EndChar

StartChar: uniE118
Encoding: 57624 57624 7
Width: 1000
HStem: -113.4 126.601<399.245 497.405> 396.7 122.2<102.7 176.4 319.5 436.542 698.6 897.3>
VStem: 167 125.7<121.464 393.676> 414.1 123.301<126.835 249.014> 726 123<125.871 249.014> 866.2 126.899<-97.5 -19.3062>
LayerCount: 2
Fore
SplineSet
191.900390625 518.799804688 m 1
 206.799804688 612.400390625 228.400390625 705.599609375 256.299804688 795.900390625 c 1
 376.700195312 759.099609375 l 1
 376.700195312 758.900390625 l 2
 352.5 680.700195312 333.299804688 600.099609375 319.5 518.900390625 c 1
 366 518.900390625 l 2
 478.799804688 536.900390625 569.900390625 615.5 604.200195312 724.5 c 2
 610.200195312 743.599609375 l 1
 723.599609375 707.900390625 l 1
 717.599609375 688.799804688 l 2
 697.299804688 624.200195312 662.099609375 566.299804688 614.700195312 518.900390625 c 1
 897.299804688 518.900390625 l 1
 897.299804688 396.799804688 l 1
 698.599609375 396.799804688 l 1
 785.799804688 368.099609375 849 285.099609375 849 187.5 c 0
 849 165.700195312 845.900390625 144.400390625 839.799804688 123.900390625 c 1
 889.700195312 110.900390625 932.900390625 81.099609375 963 38.2998046875 c 0
 990.599609375 -0.7998046875 993 -37.2998046875 993.099609375 -77.5 c 2
 993.099609375 -97.5 l 1
 866.200195312 -97.7998046875 l 1
 866.200195312 -77.7998046875 l 2
 866.099609375 -27.2998046875 834.700195312 4 784.200195312 4 c 2
 784 4 l 2
 764.099609375 3.900390625 745.200195312 -1.7998046875 730.599609375 -12.099609375 c 2
 654.700195312 -65.2001953125 l 2
 602.400390625 -97.7998046875 544.200195312 -113.400390625 486.599609375 -113.400390625 c 0
 386.200195312 -113.400390625 287.700195312 -66.099609375 226 21.599609375 c 0
 187.799804688 75.900390625 167.400390625 138.599609375 167 203 c 0
 167 267.200195312 170.200195312 332.200195312 176.400390625 396.700195312 c 1
 102.700195312 396.700195312 l 1
 102.700195312 518.799804688 l 1
 191.900390625 518.799804688 l 1
631.700195312 284.299804688 m 1
 631.700195312 284.400390625 l 1
 579.700195312 284.400390625 537.400390625 240.900390625 537.400390625 187.5 c 0
 537.400390625 134.099609375 579.700195312 90.599609375 631.700195312 90.599609375 c 0
 644.900390625 90.599609375 657.5 93.2998046875 669.400390625 98.599609375 c 0
 674.400390625 101.700195312 679.200195312 104.400390625 684.099609375 106.900390625 c 0
 710.400390625 125 726 155 726 187.400390625 c 0
 726 240.799804688 683.700195312 284.299804688 631.700195312 284.299804688 c 1
302.799804688 396.700195312 m 1
 302.700195312 396.599609375 l 2
 296.5 336.200195312 293.099609375 275.299804688 292.700195312 215.299804688 c 0
 290.900390625 107 371.700195312 18.2998046875 476.700195312 13.2001953125 c 0
 484 12.900390625 491.200195312 12.900390625 498.400390625 13.400390625 c 1
 446 54.5 414.099609375 118.400390625 414.099609375 187.400390625 c 0
 414.099609375 285 477.299804688 368 564.5 396.700195312 c 1
 302.799804688 396.700195312 l 1
EndSplineSet
EndChar

StartChar: uniE119
Encoding: 57625 57625 8
Width: 1000
HStem: -119.6 123.899<563.131 688.328> 62.2002 114<883.182 972.818> 201 114<836.282 925.918> 396.9 122.1<102.7 175.4 319.3 436.642 614.8 897.4>
VStem: 152 122.9<-106.5 19.9203> 824.1 114<213.182 302.818> 871 114<74.3821 164.049>
LayerCount: 2
Fore
SplineSet
192.5 518.799804688 m 1xf8
 192.400390625 518.799804688 l 1
 208.599609375 617.799804688 229.599609375 708.599609375 256.299804688 795.900390625 c 1
 376.299804688 759.299804688 l 1
 352.700195312 682.099609375 334 603.299804688 319.299804688 519 c 1
 366.099609375 519 l 2
 478.900390625 537 570 615.599609375 604.299804688 724.599609375 c 2
 610.299804688 743.700195312 l 1
 723.700195312 708 l 1
 717.700195312 688.900390625 l 2
 697.400390625 624.299804688 662.200195312 566.400390625 614.799804688 519 c 1
 897.400390625 519 l 1
 897.400390625 396.900390625 l 1
 301.299804688 396.900390625 l 1
 294.5 340.400390625 289.400390625 282.400390625 285.799804688 221.200195312 c 1
 361.400390625 295.900390625 445.700195312 331 547.400390625 331 c 0
 601 331 653.099609375 321.099609375 702.099609375 301.599609375 c 0
 711.900390625 297.900390625 721.5 293.599609375 730.299804688 288.700195312 c 2
 730.400390625 288.700195312 l 2
 730.799804688 288.5 731.200195312 288.200195312 731.599609375 288 c 0
 824.799804688 236.599609375 867.200195312 122.700195312 830.299804688 22.7001953125 c 0
 810.200195312 -31.7998046875 770.099609375 -75.2001953125 717.400390625 -99.5 c 0
 688.400390625 -112.900390625 657.599609375 -119.599609375 626.599609375 -119.599609375 c 0
 601.099609375 -119.599609375 575.700195312 -115.099609375 551.099609375 -106 c 0
 533.900390625 -99.7001953125 517.400390625 -91.099609375 502.099609375 -80.5 c 2
 485.700195312 -69.099609375 l 1
 555.700195312 31.2998046875 l 1
 572.099609375 19.900390625 l 2
 592.900390625 5.400390625 618.099609375 -0.2001953125 643.099609375 4.2998046875 c 0
 668.099609375 8.7998046875 689.799804688 22.7001953125 704.299804688 43.5 c 0
 718.799804688 64.2998046875 724.400390625 89.5 719.900390625 114.5 c 0
 715.400390625 139.5 701.5 161.200195312 680.700195312 175.700195312 c 0
 679.099609375 176.700195312 677.5 177.799804688 675.799804688 178.799804688 c 0
 532.900390625 247.900390625 377 190.700195312 304.700195312 42.599609375 c 0
 285.200195312 2.599609375 274.900390625 -42.099609375 274.900390625 -86.5 c 2
 274.900390625 -106.5 l 1
 152 -106.5 l 1
 152 -83.900390625 l 2
 152 108.299804688 159.299804688 257.799804688 175.400390625 396.700195312 c 1
 102.700195312 396.700195312 l 1
 102.700195312 518.799804688 l 1
 192.5 518.799804688 l 1xf8
824.099609375 258 m 0xfc
 824.099609375 289.5 849.700195312 315 881.099609375 315 c 0
 912.5 315 938.099609375 289.400390625 938.099609375 258 c 0
 938.099609375 226.599609375 912.599609375 201 881.099609375 201 c 0
 849.599609375 201 824.099609375 226.599609375 824.099609375 258 c 0xfc
871 119.200195312 m 0xfa
 871 150.700195312 896.5 176.200195312 928 176.200195312 c 0
 959.5 176.200195312 985 150.700195312 985 119.200195312 c 0
 985 87.7001953125 959.400390625 62.2001953125 928 62.2001953125 c 0
 896.599609375 62.2001953125 871 87.7998046875 871 119.200195312 c 0xfa
EndSplineSet
EndChar

StartChar: uniE11A
Encoding: 57626 57626 9
Width: 1000
HStem: -111.6 124.199<597.5 875.3> 252.7 123.1<373.413 495.122> 396.7 122.1<102.7 176.4 319.8 436.542 614.7 897.3>
VStem: 167 170.3<101.816 216.269> 176.4 120.699<329.629 396.7> 531.1 123.2<99.4298 217.221>
LayerCount: 2
Fore
SplineSet
191.900390625 518.799804688 m 1xec
 206.799804688 612.5 228.400390625 705.700195312 256.299804688 795.900390625 c 1
 376.700195312 759 l 1
 376.700195312 758.799804688 l 2
 352.799804688 681.299804688 333.700195312 600.700195312 319.799804688 518.799804688 c 1
 366 518.799804688 l 2
 478.799804688 536.799804688 569.900390625 615.400390625 604.200195312 724.400390625 c 2
 610.200195312 743.5 l 1
 723.599609375 707.799804688 l 1
 717.599609375 688.700195312 l 2
 697.299804688 624.099609375 662.099609375 566.200195312 614.700195312 518.799804688 c 1
 897.299804688 518.799804688 l 1
 897.299804688 396.700195312 l 1
 303 396.700195312 l 2
 300.599609375 373.599609375 298.599609375 350.900390625 297.099609375 328.5 c 1xec
 335.599609375 359 383.400390625 375.799804688 434.299804688 375.799804688 c 0
 555.599609375 375.799804688 654.299804688 278.299804688 654.299804688 158.400390625 c 0
 654.299804688 103.700195312 633.700195312 52.099609375 597.5 12.599609375 c 1
 875.299804688 12.599609375 l 1
 875.299804688 -111.599609375 l 1
 478.400390625 -111.599609375 l 2
 303.5 -107.799804688 164 36.7001953125 167 210.5 c 0xf4
 167.200195312 272 170.400390625 334.599609375 176.400390625 396.700195312 c 1
 102.700195312 396.700195312 l 1
 102.700195312 518.799804688 l 1
 191.900390625 518.799804688 l 1xec
434.200195312 252.700195312 m 0
 380.799804688 252.700195312 337.299804688 210.400390625 337.299804688 158.400390625 c 0xf4
 337.299804688 106.400390625 380.799804688 64.099609375 434.200195312 64.099609375 c 0
 487.599609375 64.099609375 531.099609375 106.400390625 531.099609375 158.400390625 c 0
 531.099609375 210.400390625 487.599609375 252.700195312 434.200195312 252.700195312 c 0
EndSplineSet
EndChar

StartChar: uniE11B
Encoding: 57627 57627 10
Width: 1000
HStem: -111.6 124.199<597.5 875.3> 252.7 123.1<373.413 495.122> 259.8 114<634.982 724.618 791.782 881.418> 396.7 122.1<102.7 176.4 319.8 436.542 614.7 897.3>
VStem: 167 170.3<101.816 216.269> 176.4 120.699<329.629 396.7> 531.1 123.2<99.4298 217.221> 622.8 114<271.951 361.649> 779.6 114<271.951 361.649>
LayerCount: 2
Fore
SplineSet
191.900390625 518.799804688 m 1xd480
 206.799804688 612.5 228.400390625 705.700195312 256.299804688 795.900390625 c 1
 376.700195312 759 l 1
 376.700195312 758.799804688 l 2
 352.799804688 681.299804688 333.700195312 600.700195312 319.799804688 518.799804688 c 1
 366 518.799804688 l 2
 478.799804688 536.799804688 569.900390625 615.400390625 604.200195312 724.400390625 c 2
 610.200195312 743.5 l 1
 723.599609375 707.799804688 l 1
 717.599609375 688.700195312 l 2
 697.299804688 624.099609375 662.099609375 566.200195312 614.700195312 518.799804688 c 1
 897.299804688 518.799804688 l 1
 897.299804688 396.700195312 l 1
 303 396.700195312 l 2
 300.599609375 373.599609375 298.599609375 350.900390625 297.099609375 328.5 c 1xd480
 335.599609375 359 383.400390625 375.799804688 434.299804688 375.799804688 c 0
 555.599609375 375.799804688 654.299804688 278.299804688 654.299804688 158.400390625 c 0
 654.299804688 103.700195312 633.700195312 52.099609375 597.5 12.599609375 c 1
 875.299804688 12.599609375 l 1
 875.299804688 -111.599609375 l 1
 478.400390625 -111.599609375 l 2
 303.5 -107.799804688 164 36.7001953125 167 210.5 c 0xda80
 167.200195312 272 170.400390625 334.599609375 176.400390625 396.700195312 c 1
 102.700195312 396.700195312 l 1
 102.700195312 518.799804688 l 1
 191.900390625 518.799804688 l 1xd480
434.200195312 252.700195312 m 0
 380.799804688 252.700195312 337.299804688 210.400390625 337.299804688 158.400390625 c 0
 337.299804688 106.400390625 380.799804688 64.099609375 434.200195312 64.099609375 c 0
 487.599609375 64.099609375 531.099609375 106.400390625 531.099609375 158.400390625 c 0xda80
 531.099609375 210.400390625 487.599609375 252.700195312 434.200195312 252.700195312 c 0
679.799804688 259.799804688 m 0xb180
 648.400390625 259.799804688 622.799804688 285.299804688 622.799804688 316.799804688 c 0
 622.799804688 348.299804688 648.299804688 373.799804688 679.799804688 373.799804688 c 0
 711.299804688 373.799804688 736.799804688 348.299804688 736.799804688 316.799804688 c 0
 736.799804688 285.299804688 711.200195312 259.799804688 679.799804688 259.799804688 c 0xb180
836.599609375 259.799804688 m 0
 805.200195312 259.799804688 779.599609375 285.299804688 779.599609375 316.799804688 c 0
 779.599609375 348.299804688 805.099609375 373.799804688 836.599609375 373.799804688 c 0
 868.099609375 373.799804688 893.599609375 348.299804688 893.599609375 316.799804688 c 0
 893.599609375 285.299804688 868 259.799804688 836.599609375 259.799804688 c 0
EndSplineSet
EndChar

StartChar: uniE11C
Encoding: 57628 57628 11
Width: 1000
HStem: -122.7 122.9<195.296 314.357> -48.9004 124<714.752 807.624> 188.8 123.4<195.296 289.844> 266.6 124.5<689.982 807.256> 396.8 122.101<102.7 290.3 614.7 897.3>
VStem: 37.5996 123.101<34.9426 154.354> 290.4 124.199<309.3 396.7 531 773.2> 590.3 124.2<-117.3 -46.5> 842.9 124.199<110.446 231.474>
LayerCount: 2
Fore
SplineSet
290.299804688 518.799804688 m 1xaf80
 290.400390625 518.799804688 l 1
 290.400390625 773.200195312 l 1
 414.599609375 773.200195312 l 1
 414.599609375 531 l 1
 504.200195312 561.400390625 575.599609375 633.599609375 604.200195312 724.5 c 2
 610.200195312 743.599609375 l 1
 723.599609375 707.900390625 l 1
 717.599609375 688.799804688 l 2
 697.299804688 624.200195312 662.099609375 566.299804688 614.700195312 518.900390625 c 1
 897.299804688 518.900390625 l 1
 897.299804688 396.799804688 l 1
 414.5 396.799804688 l 1
 414.5 255.700195312 l 1
 527.900390625 190.200195312 l 1
 537.599609375 302.599609375 632.200195312 391.099609375 747.099609375 391.099609375 c 0
 868.400390625 391.099609375 967.099609375 292.400390625 967.099609375 171.099609375 c 0
 967.099609375 49.7998046875 868.400390625 -48.900390625 747.099609375 -48.900390625 c 0x5f80
 736.099609375 -48.900390625 725.200195312 -48.099609375 714.5 -46.5 c 1
 714.5 -117.299804688 l 1
 590.299804688 -117.299804688 l 1
 590.299804688 9.2001953125 l 1
 471.700195312 77.599609375 l 1
 463 -34.2998046875 374.900390625 -122.700195312 255 -122.700195312 c 0
 135.099609375 -122.700195312 37.599609375 -25.099609375 37.599609375 94.7998046875 c 0
 37.599609375 214.700195312 135.099609375 312.200195312 255 312.200195312 c 0
 266.799804688 312.200195312 278.599609375 311.200195312 290.299804688 309.299804688 c 1
 290.299804688 396.700195312 l 1
 102.700195312 396.700195312 l 1
 102.700195312 518.799804688 l 1
 290.299804688 518.799804688 l 1xaf80
747.099609375 266.599609375 m 2
 747 266.599609375 l 2
 694.200195312 266.599609375 651.200195312 223.599609375 651.200195312 170.799804688 c 0
 651.200195312 144.799804688 662 119.700195312 680.900390625 101.599609375 c 2
 720 79 l 2
 728.900390625 76.400390625 737.900390625 75.099609375 747.099609375 75.099609375 c 0
 799.900390625 75.099609375 842.900390625 118 842.900390625 170.799804688 c 0
 842.900390625 223.599609375 799.900390625 266.599609375 747.099609375 266.599609375 c 2
349.299804688 94.5 m 1
 349.299804688 94.400390625 l 1
 349.299804688 124.200195312 335.700195312 151.599609375 311.900390625 169.700195312 c 2
 291.599609375 181.400390625 l 2
 279.799804688 186.299804688 267.5 188.799804688 255 188.799804688 c 0
 203 188.799804688 160.700195312 146.5 160.700195312 94.5 c 0
 160.700195312 42.5 203 0.2001953125 255 0.2001953125 c 0xaf80
 307 0.2001953125 349.299804688 42.5 349.299804688 94.5 c 1
EndSplineSet
EndChar

StartChar: uniE11D
Encoding: 57629 57629 12
Width: 1000
HStem: -119.7 123.2<566.547 685.954> 191.9 138.899<566.25 679.537> 396.7 122.1<102.7 175.5 319.7 436.542 614.7 897.3>
VStem: 152 122.9<-106.5 18.8464> 192.5 127.2<518.8 626.958> 408.9 123<38.0464 157.723> 720.5 123.2<38.0375 156.821> 868.7 119.899<85.9004 196.489>
LayerCount: 2
Fore
SplineSet
256.299804688 795.799804688 m 2xef
 256.299804688 795.900390625 l 1
 376.299804688 759.099609375 l 1
 353.400390625 684.5 334.400390625 603.700195312 319.700195312 518.799804688 c 1xef
 366 518.799804688 l 2
 478.799804688 536.799804688 569.900390625 615.400390625 604.200195312 724.400390625 c 2
 610.200195312 743.5 l 1
 723.599609375 707.799804688 l 1
 717.599609375 688.700195312 l 2
 697.299804688 624.099609375 662.099609375 566.200195312 614.700195312 518.799804688 c 1
 897.299804688 518.799804688 l 1
 897.299804688 396.700195312 l 1
 301.700195312 396.700195312 l 1
 294.799804688 339.900390625 289.400390625 280.5 285.700195312 219.5 c 1
 363.799804688 294.299804688 449.799804688 330.799804688 547.299804688 330.799804688 c 0
 597.200195312 330.799804688 646.200195312 321.900390625 693.200195312 304.400390625 c 0
 705.5 300.400390625 718.400390625 294.900390625 730.5 288.299804688 c 0
 800.5 249.700195312 843.599609375 176.799804688 843.700195312 97.7001953125 c 0
 843.700195312 -22.2001953125 746.200195312 -119.700195312 626.299804688 -119.700195312 c 0
 506.400390625 -119.700195312 408.900390625 -22.2001953125 408.900390625 97.7001953125 c 0
 408.900390625 126.400390625 414.400390625 154.099609375 425 180 c 1
 376 154.400390625 337.799804688 110.299804688 304.700195312 42.5 c 0
 290.700195312 14 281.5 -16.599609375 277.400390625 -48.2998046875 c 0
 275.700195312 -59.599609375 274.900390625 -70.7998046875 274.900390625 -83.900390625 c 2
 274.900390625 -106.5 l 1
 152 -106.5 l 1
 152 -83.900390625 l 2xf7
 152 105.200195312 159.5 258.700195312 175.5 396.700195312 c 1
 102.700195312 396.700195312 l 1
 102.700195312 518.799804688 l 1
 192.5 518.799804688 l 1
 208.700195312 617.799804688 229.599609375 708.599609375 256.299804688 795.799804688 c 2xef
626.200195312 191.900390625 m 1
 626.200195312 192 l 1
 574.200195312 192 531.900390625 149.799804688 531.900390625 97.7998046875 c 0
 531.900390625 45.7998046875 574.200195312 3.5 626.200195312 3.5 c 0
 678.200195312 3.5 720.5 45.7998046875 720.5 97.7001953125 c 0
 720.5 133 701 165 669.700195312 181.299804688 c 0
 665.700195312 183.099609375 661 185.200195312 656.299804688 187 c 0
 647.200195312 190.200195312 636.799804688 191.900390625 626.200195312 191.900390625 c 1
987.900390625 105.900390625 m 2
 988.599609375 85.900390625 l 1
 868.700195312 81.7001953125 l 1
 868 101.700195312 l 2
 866 157.099609375 850.599609375 200.700195312 814.900390625 252.099609375 c 2
 803.5 268.5 l 1
 902 337 l 1
 913.400390625 320.599609375 l 2
 962.200195312 250.5 985.099609375 184.299804688 987.900390625 105.900390625 c 2
EndSplineSet
EndChar

StartChar: uniE11E
Encoding: 57630 57630 13
Width: 1000
HStem: 396.9 122.1<102.7 175.4 319.2 436.542 614.7 897.3>
VStem: 152 122.9<-106.5 19.9203> 868.7 119.899<85.9004 196.489>
LayerCount: 2
Fore
SplineSet
192.5 518.799804688 m 1
 192.400390625 518.799804688 l 1
 208.599609375 617.799804688 229.599609375 708.599609375 256.299804688 795.900390625 c 1
 376.200195312 759.299804688 l 1
 352.599609375 682.099609375 333.900390625 603.299804688 319.200195312 519 c 1
 366 519 l 2
 478.799804688 537 569.900390625 615.599609375 604.200195312 724.599609375 c 2
 610.200195312 743.700195312 l 1
 723.599609375 708 l 1
 717.599609375 688.900390625 l 2
 697.299804688 624.299804688 662.099609375 566.400390625 614.700195312 519 c 1
 897.299804688 519 l 1
 897.299804688 396.900390625 l 1
 301.200195312 396.900390625 l 1
 294.400390625 340.400390625 289.299804688 282.400390625 285.700195312 221.200195312 c 1
 361.299804688 295.900390625 445.599609375 331 547.299804688 331 c 0
 600.900390625 331 653 321.099609375 702 301.599609375 c 0
 711.799804688 297.900390625 721.400390625 293.599609375 730.200195312 288.700195312 c 2
 730.299804688 288.700195312 l 2
 730.700195312 288.5 731.099609375 288.200195312 731.5 288 c 0
 824.700195312 236.599609375 867.099609375 122.700195312 830.200195312 22.7001953125 c 0
 810.099609375 -31.7998046875 770 -75.2001953125 717.299804688 -99.5 c 0
 688.299804688 -112.900390625 657.5 -119.599609375 626.5 -119.599609375 c 0
 601 -119.599609375 575.599609375 -115.099609375 551 -106 c 0
 533.799804688 -99.7001953125 517.299804688 -91.099609375 502 -80.5 c 2
 485.599609375 -69.099609375 l 1
 555.599609375 31.2998046875 l 1
 572 19.900390625 l 2
 615 -10.099609375 674.299804688 0.5 704.299804688 43.5 c 0
 718.799804688 64.2998046875 724.400390625 89.5 719.900390625 114.5 c 0
 715.400390625 139.5 701.5 161.200195312 680.700195312 175.700195312 c 0
 679.099609375 176.700195312 677.5 177.799804688 675.799804688 178.799804688 c 0
 532.900390625 247.900390625 377 190.700195312 304.700195312 42.599609375 c 0
 285.200195312 2.599609375 274.900390625 -42.099609375 274.900390625 -86.5 c 2
 274.900390625 -106.5 l 1
 152 -106.5 l 1
 152 -83.900390625 l 2
 152 108.299804688 159.299804688 257.799804688 175.400390625 396.700195312 c 1
 102.700195312 396.700195312 l 1
 102.700195312 518.799804688 l 1
 192.5 518.799804688 l 1
987.900390625 105.900390625 m 2
 988.599609375 85.900390625 l 1
 868.700195312 81.7001953125 l 1
 868 101.700195312 l 2
 866 157.099609375 850.599609375 200.700195312 814.900390625 252.099609375 c 2
 803.5 268.5 l 1
 902 337 l 1
 913.400390625 320.599609375 l 2
 962.200195312 250.5 985.099609375 184.299804688 987.900390625 105.900390625 c 2
EndSplineSet
EndChar

StartChar: uniE11F
Encoding: 57631 57631 14
Width: 1000
HStem: -120.5 123.1<174.446 292.787> -112.6 135.399<573.519 796.069> 191.2 123.1<174.446 288.087> 255.9 122.1<613.4 837.3> 396.8 122.101<102.7 289 614.7 897.3>
VStem: 16.7998 123<37.1966 156.604> 289.6 125.2<307.4 396.7 531.1 773.2>
LayerCount: 2
Fore
SplineSet
613.400390625 255.900390625 m 1x1e
 613.400390625 378 l 1
 837.299804688 378 l 1
 837.299804688 255.900390625 l 1
 613.400390625 255.900390625 l 1x1e
289.5 518.799804688 m 1
 289.599609375 518.799804688 l 1
 290.599609375 773.200195312 l 1
 414.799804688 773.200195312 l 1
 414.799804688 531.099609375 l 1
 504.299804688 561.5 575.599609375 633.700195312 604.200195312 724.5 c 2
 610.200195312 743.599609375 l 1
 723.599609375 707.900390625 l 1
 717.599609375 688.799804688 l 2
 697.299804688 624.200195312 662.099609375 566.299804688 614.700195312 518.900390625 c 1
 897.299804688 518.900390625 l 1
 897.299804688 396.799804688 l 1
 414.700195312 396.799804688 l 1
 414.700195312 274.200195312 l 2
 425.599609375 120 537.299804688 19.099609375 693.5 22.7998046875 c 0
 767.200195312 24.7001953125 836.900390625 54 889.799804688 105.200195312 c 2
 904.200195312 119.099609375 l 1
 991.599609375 29.099609375 l 1
 977.200195312 15.2001953125 l 2
 895.900390625 -63.599609375 794.200195312 -109 690.799804688 -112.599609375 c 0x6e
 591.599609375 -116.200195312 497.099609375 -80.400390625 422.599609375 -11.599609375 c 1
 384.200195312 -78.599609375 313.099609375 -120.5 234.200195312 -120.5 c 0
 114.299804688 -120.5 16.7998046875 -23 16.7998046875 96.900390625 c 0
 16.7998046875 216.799804688 114.299804688 314.299804688 234.200195312 314.299804688 c 0xae
 252.799804688 314.299804688 271 312 288.700195312 307.400390625 c 1
 289 396.700195312 l 1
 102.700195312 396.700195312 l 1
 102.700195312 518.799804688 l 1
 289.5 518.799804688 l 1
321.799804688 131.400390625 m 0
 321.099609375 133.200195312 320.700195312 134.200195312 320.299804688 135.099609375 c 0
 305.200195312 169.200195312 271.400390625 191.200195312 234.099609375 191.200195312 c 0
 182.099609375 191.200195312 139.799804688 148.900390625 139.799804688 96.900390625 c 0
 139.799804688 44.900390625 182.099609375 2.599609375 234.099609375 2.599609375 c 0xae
 286.099609375 2.599609375 328.400390625 44.900390625 328.400390625 96.900390625 c 0
 328.400390625 109 326.200195312 120.599609375 321.799804688 131.400390625 c 0
EndSplineSet
EndChar

StartChar: uniE120
Encoding: 57632 57632 15
Width: 1000
HStem: -40.7002 122.9<320.693 443.423> 255.9 122.1<613.4 837.3> 270.8 123.2<320.871 443.423> 396.7 122.1<102.7 175.5 319.3 436.642 614.8 897.4>
VStem: 152 122.9<-106.5 -17.4004> 192.5 126.8<518.8 627.013> 479.4 123.199<117.779 235.417>
LayerCount: 2
Fore
SplineSet
613.400390625 255.900390625 m 1xd2
 613.400390625 378 l 1
 837.299804688 378 l 1
 837.299804688 255.900390625 l 1
 613.400390625 255.900390625 l 1xd2
256.299804688 795.799804688 m 2
 256.299804688 795.900390625 l 1
 376.299804688 759.099609375 l 1
 352.799804688 682.5 334.099609375 603.599609375 319.299804688 518.799804688 c 1xb6
 366.099609375 518.799804688 l 2
 478.900390625 536.799804688 570 615.400390625 604.299804688 724.400390625 c 2
 610.299804688 743.5 l 1
 723.700195312 707.799804688 l 1
 717.700195312 688.700195312 l 2
 697.400390625 624.099609375 662.200195312 566.200195312 614.799804688 518.799804688 c 1
 897.400390625 518.799804688 l 1
 897.400390625 396.700195312 l 1
 301.400390625 396.700195312 l 2
 300.5 389.900390625 299.700195312 383.299804688 299 376.900390625 c 1
 325.5 387.5 356.099609375 394 382.599609375 394 c 0
 503.900390625 394 602.599609375 296.599609375 602.599609375 176.700195312 c 0
 602.599609375 56.7998046875 503.900390625 -40.7001953125 382.599609375 -40.7001953125 c 0
 341.099609375 -40.7001953125 306.700195312 -33.2001953125 276.900390625 -17.400390625 c 1
 275.799804688 -40.5 274.900390625 -62.7001953125 274.900390625 -86.5 c 2
 274.900390625 -106.5 l 1
 152 -106.5 l 1
 152 -86.5 l 2xba
 152 103.799804688 159.5 258.099609375 175.5 396.700195312 c 1
 102.700195312 396.700195312 l 1
 102.700195312 518.799804688 l 1
 192.5 518.799804688 l 1xb6
 208.700195312 617.900390625 229.599609375 708.700195312 256.299804688 795.799804688 c 2
382.5 270.799804688 m 0
 329.099609375 270.799804688 285.599609375 228.5 285.599609375 176.5 c 0
 285.599609375 124.5 329.099609375 82.2001953125 382.5 82.2001953125 c 0
 435.900390625 82.2001953125 479.400390625 124.5 479.400390625 176.5 c 0
 479.400390625 228.5 435.900390625 270.799804688 382.5 270.799804688 c 0
EndSplineSet
EndChar

StartChar: uniE121
Encoding: 57633 57633 16
Width: 1000
HStem: -113 125.6<400.298 585.277> 255.9 122.1<520.2 744.1> 396.7 122.1<102.7 176.4 319.7 436.642 614.8 897.4>
VStem: 167 125.9<118.56 393.676> 768.6 124.2<-106.4 6.09961 193.441 297.9>
LayerCount: 2
Fore
SplineSet
480.700195312 12.599609375 m 2
 638.5 14.900390625 764.700195312 140 768.5 297.900390625 c 1
 892.799804688 297.900390625 l 1
 892.799804688 -106.400390625 l 1
 768.599609375 -106.400390625 l 1
 768.599609375 6.099609375 l 1
 691.299804688 -69.7001953125 588 -112.599609375 477.900390625 -113 c 0
 304.299804688 -109.299804688 168 29.5 167 203.099609375 c 1
 167 267.200195312 170.200195312 332.200195312 176.400390625 396.700195312 c 1
 102.700195312 396.700195312 l 1
 102.700195312 518.799804688 l 1
 191.900390625 518.799804688 l 1
 206.799804688 612.400390625 228.400390625 705.599609375 256.299804688 795.900390625 c 1
 376.799804688 759 l 1
 376.799804688 758.799804688 l 2
 352.700195312 680.599609375 333.5 600 319.700195312 518.799804688 c 1
 366.099609375 518.799804688 l 2
 478.900390625 536.799804688 570 615.400390625 604.299804688 724.400390625 c 2
 610.299804688 743.5 l 1
 723.700195312 707.799804688 l 1
 717.700195312 688.700195312 l 2
 697.400390625 624.099609375 662.200195312 566.200195312 614.799804688 518.799804688 c 1
 897.400390625 518.799804688 l 1
 897.400390625 396.700195312 l 1
 302.900390625 396.700195312 l 1
 296.5 334.200195312 293.099609375 271.099609375 292.900390625 208.700195312 c 0
 291.099609375 105.599609375 373.700195312 17.7001953125 477.099609375 12.599609375 c 2
 480.700195312 12.599609375 l 2
520.200195312 255.900390625 m 1
 520.200195312 378 l 1
 744.099609375 378 l 1
 744.099609375 255.900390625 l 1
 520.200195312 255.900390625 l 1
EndSplineSet
EndChar

StartChar: uniE122
Encoding: 57634 57634 17
Width: 1000
Flags: W
HStem: -119.7 123.2<566.547 685.954> 191.9 138.899<566.25 679.537> 396.7 122.1<102.7 175.5 319.7 436.503 614.7 897.3> 546.7 89.2998<819.812 875.589> 696 89.5<819.796 875.589>
VStem: 152 122.9<-106.5 18.8464> 192.5 127.2<518.8 626.958> 408.9 123<38.0464 157.715> 720.5 123.2<38.0375 156.821> 728.3 89.4004<638.161 693.939> 877.7 89.3994<638.161 693.939>
LayerCount: 2
Fore
SplineSet
847.700195312 785.5 m 4xf960
 913.5 785.5 967.099609375 731.900390625 967.099609375 666.099609375 c 4
 967.099609375 600.299804688 913.5 546.700195312 847.700195312 546.700195312 c 4
 781.900390625 546.700195312 728.299804688 600.299804688 728.299804688 666.099609375 c 4
 728.299804688 731.900390625 781.799804688 785.5 847.700195312 785.5 c 4xf960
847.700195312 636 m 4
 864.200195312 636 877.700195312 649.5 877.700195312 666 c 4
 877.700195312 682.5 864.200195312 696 847.700195312 696 c 4
 831.200195312 696 817.700195312 682.5 817.700195312 666 c 4
 817.700195312 649.5 831.200195312 636 847.700195312 636 c 4
256.299804688 795.799804688 m 2
 256.299804688 795.900390625 l 1
 376.299804688 759.099609375 l 1
 353.400390625 684.400390625 334.400390625 603.700195312 319.700195312 518.799804688 c 1xfb20
 366 518.799804688 l 2
 478.700195312 536.799804688 569.900390625 615.400390625 604.200195312 724.400390625 c 2
 610.200195312 743.5 l 1
 723.599609375 707.799804688 l 1
 717.599609375 688.700195312 l 2
 697.299804688 624.099609375 662.099609375 566.200195312 614.700195312 518.799804688 c 1
 897.299804688 518.799804688 l 1
 897.299804688 396.700195312 l 1
 301.700195312 396.700195312 l 1
 294.799804688 339.900390625 289.400390625 280.5 285.700195312 219.5 c 1
 363.799804688 294.299804688 449.799804688 330.799804688 547.299804688 330.799804688 c 0
 597.200195312 330.799804688 646.200195312 321.900390625 693.200195312 304.400390625 c 0
 705.5 300.400390625 718.400390625 294.900390625 730.5 288.299804688 c 0
 800.5 249.700195312 843.599609375 176.799804688 843.700195312 97.7001953125 c 0
 843.700195312 -22.2001953125 746.200195312 -119.700195312 626.299804688 -119.700195312 c 0
 506.400390625 -119.700195312 408.900390625 -22.2001953125 408.900390625 97.7001953125 c 0
 408.900390625 126.299804688 414.400390625 154.099609375 425 180 c 1
 376 154.400390625 337.799804688 110.299804688 304.700195312 42.5 c 0
 290.700195312 14 281.599609375 -16.599609375 277.400390625 -48.2998046875 c 0
 275.700195312 -59.599609375 274.900390625 -70.7998046875 274.900390625 -83.900390625 c 2
 274.900390625 -106.5 l 1
 152 -106.5 l 1
 152 -83.900390625 l 2xfda0
 152 105.200195312 159.5 258.700195312 175.5 396.700195312 c 1
 102.700195312 396.700195312 l 1
 102.700195312 518.799804688 l 1
 192.5 518.799804688 l 1xfb20
 208.700195312 617.799804688 229.599609375 708.599609375 256.299804688 795.799804688 c 2
626.200195312 191.900390625 m 1
 626.200195312 192 l 1
 574.200195312 192 531.900390625 149.799804688 531.900390625 97.7998046875 c 0
 531.900390625 45.7998046875 574.200195312 3.5 626.200195312 3.5 c 0
 678.200195312 3.5 720.5 45.7998046875 720.5 97.7001953125 c 0xf9a0
 720.5 133 701 165 669.700195312 181.299804688 c 0
 665.700195312 183.099609375 661 185.200195312 656.299804688 187 c 0
 647.200195312 190.200195312 636.799804688 191.900390625 626.200195312 191.900390625 c 1
EndSplineSet
EndChar

StartChar: uniE123
Encoding: 57635 57635 18
Width: 1000
Flags: W
HStem: -119.6 123.899<563.131 688.328> 396.9 122.1<102.7 175.4 319.4 436.743 614.9 897.5> 546.7 89.2998<819.812 875.589> 696 89.5<819.796 875.589>
VStem: 152 122.9<-106.5 19.9203> 728.3 89.4004<638.161 693.939> 877.7 89.3994<638.161 693.939>
LayerCount: 2
Fore
SplineSet
847.700195312 785.5 m 4
 913.5 785.5 967.099609375 731.900390625 967.099609375 666.099609375 c 4
 967.099609375 600.299804688 913.5 546.700195312 847.700195312 546.700195312 c 4
 781.900390625 546.700195312 728.299804688 600.299804688 728.299804688 666.099609375 c 4
 728.299804688 731.900390625 781.799804688 785.5 847.700195312 785.5 c 4
847.700195312 636 m 4
 864.200195312 636 877.700195312 649.5 877.700195312 666 c 4
 877.700195312 682.5 864.200195312 696 847.700195312 696 c 4
 831.200195312 696 817.700195312 682.5 817.700195312 666 c 4
 817.700195312 649.5 831.200195312 636 847.700195312 636 c 4
192.5 518.799804688 m 1
 192.400390625 518.799804688 l 1
 208.599609375 617.799804688 229.599609375 708.599609375 256.299804688 795.900390625 c 1
 376.400390625 759.299804688 l 1
 352.799804688 682.099609375 334.099609375 603.299804688 319.400390625 519 c 1
 366.200195312 519 l 2
 479 537 570.099609375 615.599609375 604.400390625 724.599609375 c 2
 610.400390625 743.700195312 l 1
 723.799804688 708 l 1
 717.799804688 688.900390625 l 2
 697.5 624.299804688 662.299804688 566.400390625 614.900390625 519 c 1
 897.5 519 l 1
 897.5 396.900390625 l 1
 301.400390625 396.900390625 l 1
 294.599609375 340.400390625 289.5 282.400390625 285.900390625 221.200195312 c 1
 361.5 295.900390625 445.799804688 331 547.5 331 c 0
 601.099609375 331 653.200195312 321.099609375 702.200195312 301.599609375 c 0
 712 297.900390625 721.599609375 293.599609375 730.400390625 288.700195312 c 1
 730.799804688 288.5 731.200195312 288.200195312 731.599609375 288 c 0
 824.700195312 236.599609375 867.200195312 122.700195312 830.299804688 22.7001953125 c 0
 810.200195312 -31.7998046875 770.099609375 -75.2001953125 717.400390625 -99.5 c 0
 688.400390625 -112.900390625 657.599609375 -119.599609375 626.599609375 -119.599609375 c 0
 601.099609375 -119.599609375 575.700195312 -115.099609375 551.099609375 -106 c 0
 533.900390625 -99.7001953125 517.400390625 -91.099609375 502.099609375 -80.5 c 2
 485.700195312 -69.099609375 l 1
 555.700195312 31.2998046875 l 1
 572.099609375 19.900390625 l 2
 592.900390625 5.400390625 618.099609375 -0.2001953125 643.099609375 4.2998046875 c 0
 668.099609375 8.7998046875 689.799804688 22.7001953125 704.299804688 43.5 c 0
 718.799804688 64.2998046875 724.400390625 89.5 719.900390625 114.5 c 0
 715.400390625 139.5 701.5 161.200195312 680.700195312 175.700195312 c 0
 679.099609375 176.700195312 677.5 177.799804688 675.799804688 178.799804688 c 0
 533 247.900390625 377 190.700195312 304.700195312 42.599609375 c 0
 285.200195312 2.599609375 274.900390625 -42.099609375 274.900390625 -86.5 c 2
 274.900390625 -106.5 l 1
 152 -106.5 l 1
 152 -83.900390625 l 2
 152 108.299804688 159.299804688 257.799804688 175.400390625 396.700195312 c 1
 102.700195312 396.700195312 l 1
 102.700195312 518.799804688 l 1
 192.5 518.799804688 l 1
EndSplineSet
EndChar

StartChar: uniE124
Encoding: 57636 57636 19
Width: 1000
Flags: W
HStem: -120.5 123<174.446 292.787> -112.6 135.399<573.431 796.069> 191.1 123.2<174.446 288.087> 396.8 122.101<102.7 289 614.7 897.3> 546.7 89.2998<819.812 875.589> 696 89.5<819.796 875.589>
VStem: 16.7998 123<37.1465 156.553> 289.6 125.2<307.4 396.7 531.1 773.2> 728.3 89.4004<638.161 693.939> 877.7 89.3994<638.161 693.939>
LayerCount: 2
Fore
SplineSet
847.700195312 785.5 m 4x3fc0
 913.5 785.5 967.099609375 731.900390625 967.099609375 666.099609375 c 4
 967.099609375 600.299804688 913.5 546.700195312 847.700195312 546.700195312 c 4
 781.900390625 546.700195312 728.299804688 600.299804688 728.299804688 666.099609375 c 4
 728.299804688 731.900390625 781.799804688 785.5 847.700195312 785.5 c 4x3fc0
847.700195312 636 m 4
 864.200195312 636 877.700195312 649.5 877.700195312 666 c 4
 877.700195312 682.5 864.200195312 696 847.700195312 696 c 4
 831.200195312 696 817.700195312 682.5 817.700195312 666 c 4
 817.700195312 649.5 831.200195312 636 847.700195312 636 c 4
289.5 518.799804688 m 1
 289.599609375 518.799804688 l 1
 290.599609375 773.200195312 l 1
 414.799804688 773.200195312 l 1
 414.799804688 531.099609375 l 1
 504.299804688 561.5 575.599609375 633.700195312 604.200195312 724.5 c 2
 610.200195312 743.599609375 l 1
 723.599609375 707.900390625 l 1
 717.599609375 688.799804688 l 2
 697.299804688 624.200195312 662.099609375 566.299804688 614.700195312 518.900390625 c 1
 897.299804688 518.900390625 l 1
 897.299804688 396.799804688 l 1
 414.700195312 396.799804688 l 1
 414.700195312 274.200195312 l 2
 425.599609375 120 537.099609375 19.099609375 693.5 22.7998046875 c 0
 767.200195312 24.7001953125 836.900390625 54 889.799804688 105.200195312 c 2
 904.200195312 119.099609375 l 1
 991.599609375 29.099609375 l 1
 977.200195312 15.2001953125 l 2
 895.900390625 -63.599609375 794.200195312 -109 690.799804688 -112.599609375 c 0x7fc0
 591.700195312 -116.099609375 497.099609375 -80.400390625 422.599609375 -11.599609375 c 1
 384.200195312 -78.599609375 313.099609375 -120.5 234.200195312 -120.5 c 0xbfc0
 114.299804688 -120.5 16.7998046875 -23 16.7998046875 96.900390625 c 0
 16.7998046875 216.799804688 114.299804688 314.299804688 234.200195312 314.299804688 c 0
 252.799804688 314.299804688 271 312 288.700195312 307.400390625 c 1
 289 396.700195312 l 1
 102.700195312 396.700195312 l 1
 102.700195312 518.799804688 l 1
 289.5 518.799804688 l 1
321.799804688 131.400390625 m 1
 321.799804688 131.299804688 l 1
 321.099609375 133.099609375 320.700195312 134.099609375 320.299804688 135 c 0
 305.200195312 169.099609375 271.400390625 191.099609375 234.099609375 191.099609375 c 0
 182.099609375 191.099609375 139.799804688 148.799804688 139.799804688 96.7998046875 c 0
 139.799804688 44.7998046875 182.099609375 2.5 234.099609375 2.5 c 0xbfc0
 286.099609375 2.5 328.400390625 44.7998046875 328.400390625 96.7998046875 c 0
 328.400390625 109 326.200195312 120.599609375 321.799804688 131.400390625 c 1
EndSplineSet
EndChar

StartChar: uniE125
Encoding: 57637 57637 20
Width: 1000
Flags: W
HStem: -40.7002 122.9<320.693 443.423> 270.8 123.2<320.871 443.423> 396.7 122.1<102.7 175.5 319.3 436.642 614.8 897.4> 546.7 89.2998<819.812 875.589> 696 89.5<819.796 875.589>
VStem: 152 122.9<-106.5 -17.4004> 192.5 126.8<518.8 627.013> 479.4 123.199<117.779 235.417> 728.3 89.4004<638.161 693.939> 877.7 89.3994<638.161 693.939>
LayerCount: 2
Fore
SplineSet
847.700195312 785.5 m 4xf9c0
 913.5 785.5 967.099609375 731.900390625 967.099609375 666.099609375 c 4
 967.099609375 600.299804688 913.5 546.700195312 847.700195312 546.700195312 c 4
 781.900390625 546.700195312 728.299804688 600.299804688 728.299804688 666.099609375 c 4
 728.299804688 731.900390625 781.799804688 785.5 847.700195312 785.5 c 4xf9c0
847.700195312 636 m 4
 864.200195312 636 877.700195312 649.5 877.700195312 666 c 4
 877.700195312 682.5 864.200195312 696 847.700195312 696 c 4
 831.200195312 696 817.700195312 682.5 817.700195312 666 c 4
 817.700195312 649.5 831.200195312 636 847.700195312 636 c 4
256.299804688 795.799804688 m 2
 256.299804688 795.900390625 l 1
 376.299804688 759.099609375 l 1
 352.799804688 682.5 334.099609375 603.599609375 319.299804688 518.799804688 c 1xfbc0
 366.099609375 518.799804688 l 2
 478.900390625 536.799804688 570 615.400390625 604.299804688 724.400390625 c 2
 610.299804688 743.5 l 1
 723.700195312 707.799804688 l 1
 717.700195312 688.700195312 l 2
 697.400390625 624.099609375 662.200195312 566.200195312 614.799804688 518.799804688 c 1
 897.400390625 518.799804688 l 1
 897.400390625 396.700195312 l 1
 301.400390625 396.700195312 l 2
 300.5 389.900390625 299.700195312 383.299804688 299 376.900390625 c 1
 325.5 387.5 356.099609375 394 382.599609375 394 c 0
 503.900390625 394 602.599609375 296.599609375 602.599609375 176.700195312 c 0
 602.599609375 56.7998046875 503.900390625 -40.7001953125 382.599609375 -40.7001953125 c 0
 341.099609375 -40.7001953125 306.700195312 -33.2001953125 276.900390625 -17.400390625 c 1
 275.799804688 -40.5 274.900390625 -62.7001953125 274.900390625 -86.5 c 2
 274.900390625 -106.5 l 1
 152 -106.5 l 1
 152 -86.5 l 2xfdc0
 152 103.799804688 159.5 258.099609375 175.5 396.700195312 c 1
 102.700195312 396.700195312 l 1
 102.700195312 518.799804688 l 1
 192.5 518.799804688 l 1xfbc0
 208.700195312 617.900390625 229.599609375 708.700195312 256.299804688 795.799804688 c 2
382.5 270.799804688 m 0
 329.099609375 270.799804688 285.599609375 228.5 285.599609375 176.5 c 0
 285.599609375 124.5 329.099609375 82.2001953125 382.5 82.2001953125 c 0
 435.900390625 82.2001953125 479.400390625 124.5 479.400390625 176.5 c 0
 479.400390625 228.5 435.900390625 270.799804688 382.5 270.799804688 c 0
EndSplineSet
EndChar

StartChar: uniE126
Encoding: 57638 57638 21
Width: 1000
Flags: W
HStem: -132.7 430.601<768.7 867.4> -113 125.6<400.38 585.572> 396.7 122.1<102.7 176.4 319.7 436.642 614.8 897.4> 546.7 89.2998<819.812 875.589> 696 89.5<819.796 875.589>
VStem: 167 125.9<118.56 393.676> 728.3 89.4004<638.161 693.939> 877.7 89.3994<638.161 693.939>
LayerCount: 2
Fore
SplineSet
847.700195312 785.5 m 4x3f
 913.5 785.5 967.099609375 731.900390625 967.099609375 666.099609375 c 4
 967.099609375 600.299804688 913.5 546.700195312 847.700195312 546.700195312 c 4
 781.900390625 546.700195312 728.299804688 600.299804688 728.299804688 666.099609375 c 4
 728.299804688 731.900390625 781.799804688 785.5 847.700195312 785.5 c 4x3f
847.700195312 636 m 4
 864.200195312 636 877.700195312 649.5 877.700195312 666 c 4
 877.700195312 682.5 864.200195312 696 847.700195312 696 c 4
 831.200195312 696 817.700195312 682.5 817.700195312 666 c 4
 817.700195312 649.5 831.200195312 636 847.700195312 636 c 4
480.799804688 12.599609375 m 1x7f
 480.900390625 12.599609375 l 2x7f
 638.900390625 14.7998046875 765 139.900390625 768.700195312 297.900390625 c 1
 894.299804688 297.900390625 l 1
 894.299804688 297.599609375 l 2
 894.099609375 289.599609375 893.799804688 282 893.299804688 274.799804688 c 0
 981.599609375 220.599609375 1020.79980469 109.700195312 984.5 11.099609375 c 0
 951.700195312 -77.7001953125 867.400390625 -132.700195312 777.900390625 -132.700195312 c 0xbf
 752.599609375 -132.700195312 727 -128.299804688 701.900390625 -119 c 0
 678 -110.200195312 656.099609375 -97.5 636.700195312 -81.2001953125 c 0
 586.299804688 -102.099609375 533 -112.799804688 478 -113 c 0
 304.299804688 -109.200195312 168 29.5 167 203.099609375 c 1
 167 267.200195312 170.200195312 332.200195312 176.400390625 396.700195312 c 1
 102.700195312 396.700195312 l 1
 102.700195312 518.799804688 l 1
 191.900390625 518.799804688 l 1
 206.799804688 612.400390625 228.400390625 705.599609375 256.299804688 795.900390625 c 1
 376.799804688 759 l 1
 376.799804688 758.799804688 l 2
 352.700195312 680.700195312 333.5 600 319.700195312 518.799804688 c 1
 366.099609375 518.799804688 l 2
 478.900390625 536.799804688 570 615.400390625 604.299804688 724.400390625 c 2
 610.299804688 743.5 l 1
 723.700195312 707.799804688 l 1
 717.700195312 688.700195312 l 2
 697.400390625 624.099609375 662.200195312 566.200195312 614.799804688 518.799804688 c 1
 897.400390625 518.799804688 l 1
 897.400390625 396.700195312 l 1
 302.900390625 396.700195312 l 1
 296.5 334.299804688 293.099609375 271.099609375 292.900390625 208.700195312 c 0
 291.099609375 105.599609375 373.799804688 17.7001953125 477.200195312 12.599609375 c 2
 480.799804688 12.599609375 l 1x7f
873.700195312 77.2001953125 m 2
 873.700195312 77.2998046875 l 2
 876 98.900390625 871 120.200195312 859.599609375 138.400390625 c 1
 835.700195312 83.2001953125 800.200195312 34.099609375 755.299804688 -6.099609375 c 1
 784 -12.900390625 814.900390625 -6.5 838.5 12.599609375 c 0
 858.5 28.7001953125 871 51.599609375 873.700195312 77.2001953125 c 2
EndSplineSet
EndChar

StartChar: uniE127
Encoding: 57639 57639 22
Width: 1000
Flags: W
HStem: -113 198.3<423.025 632.638> 273.9 122.8<546.95 597.4 616.2 666.85> 396.7 122.1<102.7 176.4 319.7 436.642 616.2 897.4> 546.7 89.2998<819.812 875.589> 696 89.5<819.796 875.589>
VStem: 167 125.8<116.928 393.695> 389.5 123.1<119.888 238.496> 701.2 191.6<119.65 239.55> 728.3 89.4004<638.161 693.939> 768.6 124.2<-111.6 8.59961> 877.7 89.3994<638.161 693.939>
LayerCount: 2
Fore
SplineSet
847.700195312 785.5 m 4x9ea0
 913.5 785.5 967.099609375 731.900390625 967.099609375 666.099609375 c 4
 967.099609375 600.299804688 913.5 546.700195312 847.700195312 546.700195312 c 4
 781.900390625 546.700195312 728.299804688 600.299804688 728.299804688 666.099609375 c 4
 728.299804688 731.900390625 781.799804688 785.5 847.700195312 785.5 c 4x9ea0
847.700195312 636 m 4
 864.200195312 636 877.700195312 649.5 877.700195312 666 c 4
 877.700195312 682.5 864.200195312 696 847.700195312 696 c 4
 831.200195312 696 817.700195312 682.5 817.700195312 666 c 4
 817.700195312 649.5 831.200195312 636 847.700195312 636 c 4
191.900390625 518.799804688 m 1xbe40
 206.799804688 612.5 228.400390625 705.700195312 256.299804688 795.900390625 c 1
 376.799804688 759 l 1
 376.799804688 758.799804688 l 2
 352.700195312 680.599609375 333.5 600 319.700195312 518.799804688 c 1
 366.099609375 518.799804688 l 2
 478.900390625 536.799804688 570 615.400390625 604.299804688 724.400390625 c 2
 610.299804688 743.5 l 1
 723.700195312 707.799804688 l 1
 717.700195312 688.700195312 l 2
 697.400390625 624.099609375 662.200195312 566.200195312 614.799804688 518.799804688 c 1
 897.400390625 518.799804688 l 1
 897.400390625 396.700195312 l 1xbe40
 616.200195312 396.700195312 l 1xde40
 684 393.700195312 747.900390625 356.900390625 787.400390625 299.400390625 c 1
 892.799804688 299.400390625 l 1
 892.799804688 -111.599609375 l 1
 768.599609375 -111.599609375 l 1
 768.599609375 8.599609375 l 1
 691.099609375 -68.7998046875 586.900390625 -112.599609375 475.400390625 -113 c 0
 299.099609375 -109.099609375 163.900390625 33.099609375 167 210.700195312 c 0
 167.200195312 272 170.400390625 334.5 176.400390625 396.700195312 c 1
 102.700195312 396.700195312 l 1
 102.700195312 518.799804688 l 1
 191.900390625 518.799804688 l 1xbe40
606.900390625 273.900390625 m 0xdf
 554.900390625 273.900390625 512.599609375 231.599609375 512.599609375 179.599609375 c 0
 512.599609375 127.599609375 554.900390625 85.2998046875 606.900390625 85.2998046875 c 0
 658.900390625 85.2998046875 701.200195312 127.599609375 701.200195312 179.599609375 c 0
 701.200195312 231.599609375 658.900390625 273.900390625 606.900390625 273.900390625 c 0xdf
302.799804688 396.700195312 m 1xbe
 296.099609375 332.599609375 292.799804688 267.599609375 292.799804688 203.200195312 c 0
 293.599609375 104 369.400390625 21.900390625 466.700195312 13.2001953125 c 1
 418.5 53.7998046875 389.5 114.099609375 389.5 179.5 c 0
 389.5 296.200195312 481.900390625 391.700195312 597.400390625 396.700195312 c 1xde
 302.799804688 396.700195312 l 1xbe
EndSplineSet
EndChar

StartChar: uniE128
Encoding: 57640 57640 23
Width: 1000
Flags: W
HStem: -113 125.6<400.298 585.277> 396.7 122.1<102.7 176.4 319.7 436.642 614.8 897.4> 546.7 89.2998<819.812 875.589> 696 89.5<819.796 875.589>
VStem: 167 125.9<118.56 393.676> 728.3 89.4004<638.161 693.939> 768.6 124.2<-106.4 6.09961 193.441 297.9> 877.7 89.3994<638.161 693.939>
LayerCount: 2
Fore
SplineSet
847.700195312 785.5 m 4xfd
 913.5 785.5 967.099609375 731.900390625 967.099609375 666.099609375 c 4
 967.099609375 600.299804688 913.5 546.700195312 847.700195312 546.700195312 c 4
 781.900390625 546.700195312 728.299804688 600.299804688 728.299804688 666.099609375 c 4
 728.299804688 731.900390625 781.799804688 785.5 847.700195312 785.5 c 4xfd
847.700195312 636 m 4
 864.200195312 636 877.700195312 649.5 877.700195312 666 c 4
 877.700195312 682.5 864.200195312 696 847.700195312 696 c 4
 831.200195312 696 817.700195312 682.5 817.700195312 666 c 4
 817.700195312 649.5 831.200195312 636 847.700195312 636 c 4
480.700195312 12.599609375 m 2
 638.5 14.900390625 764.700195312 140 768.5 297.900390625 c 1
 892.799804688 297.900390625 l 1
 892.799804688 -106.400390625 l 1
 768.599609375 -106.400390625 l 1
 768.599609375 6.099609375 l 1xfa
 691.299804688 -69.7001953125 588 -112.599609375 477.900390625 -113 c 0
 304.299804688 -109.299804688 168 29.5 167 203.099609375 c 1
 167 267.200195312 170.200195312 332.200195312 176.400390625 396.700195312 c 1
 102.700195312 396.700195312 l 1
 102.700195312 518.799804688 l 1
 191.900390625 518.799804688 l 1
 206.799804688 612.400390625 228.400390625 705.599609375 256.299804688 795.900390625 c 1
 376.799804688 759 l 1
 376.799804688 758.799804688 l 2
 352.700195312 680.599609375 333.5 600 319.700195312 518.799804688 c 1
 366.099609375 518.799804688 l 2
 478.900390625 536.799804688 570 615.400390625 604.299804688 724.400390625 c 2
 610.299804688 743.5 l 1
 723.700195312 707.799804688 l 1
 717.700195312 688.700195312 l 2
 697.400390625 624.099609375 662.200195312 566.200195312 614.799804688 518.799804688 c 1
 897.400390625 518.799804688 l 1
 897.400390625 396.700195312 l 1
 302.900390625 396.700195312 l 1
 296.5 334.299804688 293.099609375 271.200195312 292.900390625 208.700195312 c 0
 291.099609375 105.599609375 373.700195312 17.7001953125 477.099609375 12.599609375 c 2
 480.700195312 12.599609375 l 2
EndSplineSet
EndChar

StartChar: uniE129
Encoding: 57641 57641 24
Width: 1000
Flags: W
HStem: -113.4 126.601<399.245 497.405> 396.7 122.2<102.7 176.4 319.5 436.542 698.6 897.3> 546.7 89.2998<819.812 875.589> 696 89.5<819.796 875.589>
VStem: 167 125.7<121.464 393.676> 414.1 123.301<126.835 249.014> 726 123<125.871 249.014> 728.3 89.4004<638.161 693.939> 866.2 126.899<-97.5 -19.3062> 877.7 89.3994<638.161 693.939>
LayerCount: 2
Fore
SplineSet
847.700195312 785.5 m 4xfd40
 913.5 785.5 967.099609375 731.900390625 967.099609375 666.099609375 c 4
 967.099609375 600.299804688 913.5 546.700195312 847.700195312 546.700195312 c 4
 781.900390625 546.700195312 728.299804688 600.299804688 728.299804688 666.099609375 c 4
 728.299804688 731.900390625 781.799804688 785.5 847.700195312 785.5 c 4xfd40
847.700195312 636 m 4
 864.200195312 636 877.700195312 649.5 877.700195312 666 c 4
 877.700195312 682.5 864.200195312 696 847.700195312 696 c 4
 831.200195312 696 817.700195312 682.5 817.700195312 666 c 4
 817.700195312 649.5 831.200195312 636 847.700195312 636 c 4
191.900390625 518.799804688 m 1
 206.799804688 612.400390625 228.400390625 705.599609375 256.299804688 795.900390625 c 1
 376.700195312 759.099609375 l 1
 376.700195312 758.900390625 l 2
 352.5 680.700195312 333.299804688 600.099609375 319.5 518.900390625 c 1
 366 518.900390625 l 2
 478.799804688 536.900390625 569.900390625 615.5 604.200195312 724.5 c 2
 610.200195312 743.599609375 l 1
 723.599609375 707.900390625 l 1
 717.599609375 688.799804688 l 2
 697.299804688 624.200195312 662.099609375 566.299804688 614.700195312 518.900390625 c 1
 897.299804688 518.900390625 l 1
 897.299804688 396.799804688 l 1
 698.599609375 396.799804688 l 1
 785.799804688 368.099609375 849 285.099609375 849 187.5 c 0
 849 165.700195312 845.900390625 144.400390625 839.799804688 123.900390625 c 1
 889.700195312 110.900390625 932.900390625 81.099609375 963 38.2998046875 c 0
 990.599609375 -0.7998046875 993 -37.2998046875 993.099609375 -77.5 c 2
 993.099609375 -97.5 l 1
 866.200195312 -97.7998046875 l 1
 866.200195312 -77.7998046875 l 2xfe80
 866.099609375 -27.2998046875 834.700195312 4 784.200195312 4 c 2
 784 4 l 2
 764.099609375 3.900390625 745.200195312 -1.7998046875 730.599609375 -12.099609375 c 2
 654.700195312 -65.2001953125 l 2
 602.400390625 -97.7998046875 544.200195312 -113.400390625 486.599609375 -113.400390625 c 0
 386.200195312 -113.400390625 287.700195312 -66.099609375 226 21.599609375 c 0
 187.799804688 75.900390625 167.400390625 138.599609375 167 203 c 0
 167 267.200195312 170.200195312 332.200195312 176.400390625 396.700195312 c 1
 102.700195312 396.700195312 l 1
 102.700195312 518.799804688 l 1
 191.900390625 518.799804688 l 1
631.700195312 284.299804688 m 1
 631.700195312 284.400390625 l 1
 579.700195312 284.400390625 537.400390625 240.900390625 537.400390625 187.5 c 0
 537.400390625 134.099609375 579.700195312 90.599609375 631.700195312 90.599609375 c 0
 644.900390625 90.599609375 657.5 93.2998046875 669.400390625 98.599609375 c 0
 674.400390625 101.700195312 679.200195312 104.400390625 684.099609375 106.900390625 c 0
 710.400390625 125 726 155 726 187.400390625 c 0
 726 240.799804688 683.700195312 284.299804688 631.700195312 284.299804688 c 1
302.799804688 396.700195312 m 1
 302.700195312 396.599609375 l 2
 296.5 336.200195312 293.099609375 275.299804688 292.700195312 215.299804688 c 0
 290.900390625 107 371.700195312 18.2998046875 476.700195312 13.2001953125 c 0
 484 12.900390625 491.200195312 12.900390625 498.400390625 13.400390625 c 1
 446 54.5 414.099609375 118.400390625 414.099609375 187.400390625 c 0
 414.099609375 285 477.299804688 368 564.5 396.700195312 c 1
 302.799804688 396.700195312 l 1
EndSplineSet
EndChar

StartChar: uniE12A
Encoding: 57642 57642 25
Width: 1000
Flags: W
HStem: -119.6 123.899<563.131 688.328> 62.2002 114<883.182 972.818> 201 114<836.282 925.918> 396.9 122.1<102.7 175.4 319.3 436.642 614.8 897.4> 546.7 89.2998<819.812 875.589> 696 89.5<819.796 875.589>
VStem: 152 122.9<-106.5 19.9203> 728.3 89.4004<638.161 693.939> 824.1 114<213.182 302.818> 871 114<74.3821 164.049> 877.7 89.3994<638.161 693.939>
LayerCount: 2
Fore
SplineSet
847.700195312 785.5 m 4xff20
 913.5 785.5 967.099609375 731.900390625 967.099609375 666.099609375 c 4
 967.099609375 600.299804688 913.5 546.700195312 847.700195312 546.700195312 c 4
 781.900390625 546.700195312 728.299804688 600.299804688 728.299804688 666.099609375 c 4
 728.299804688 731.900390625 781.799804688 785.5 847.700195312 785.5 c 4xff20
847.700195312 636 m 4
 864.200195312 636 877.700195312 649.5 877.700195312 666 c 4
 877.700195312 682.5 864.200195312 696 847.700195312 696 c 4
 831.200195312 696 817.700195312 682.5 817.700195312 666 c 4
 817.700195312 649.5 831.200195312 636 847.700195312 636 c 4
192.5 518.799804688 m 1
 192.400390625 518.799804688 l 1
 208.599609375 617.799804688 229.599609375 708.599609375 256.299804688 795.900390625 c 1
 376.299804688 759.299804688 l 1
 352.700195312 682.099609375 334 603.299804688 319.299804688 519 c 1
 366.099609375 519 l 2
 478.900390625 537 570 615.599609375 604.299804688 724.599609375 c 2
 610.299804688 743.700195312 l 1
 723.700195312 708 l 1
 717.700195312 688.900390625 l 2
 697.400390625 624.299804688 662.200195312 566.400390625 614.799804688 519 c 1
 897.400390625 519 l 1
 897.400390625 396.900390625 l 1
 301.299804688 396.900390625 l 1
 294.5 340.400390625 289.400390625 282.400390625 285.799804688 221.200195312 c 1
 361.400390625 295.900390625 445.700195312 331 547.400390625 331 c 0
 601 331 653.099609375 321.099609375 702.099609375 301.599609375 c 0
 711.900390625 297.900390625 721.5 293.599609375 730.299804688 288.700195312 c 2
 730.400390625 288.700195312 l 2
 730.799804688 288.5 731.200195312 288.200195312 731.599609375 288 c 0
 824.799804688 236.599609375 867.200195312 122.700195312 830.299804688 22.7001953125 c 0
 810.200195312 -31.7998046875 770.099609375 -75.2001953125 717.400390625 -99.5 c 0
 688.400390625 -112.900390625 657.599609375 -119.599609375 626.599609375 -119.599609375 c 0
 601.099609375 -119.599609375 575.700195312 -115.099609375 551.099609375 -106 c 0
 533.900390625 -99.7001953125 517.400390625 -91.099609375 502.099609375 -80.5 c 2
 485.700195312 -69.099609375 l 1
 555.700195312 31.2998046875 l 1
 572.099609375 19.900390625 l 2
 592.900390625 5.400390625 618.099609375 -0.2001953125 643.099609375 4.2998046875 c 0
 668.099609375 8.7998046875 689.799804688 22.7001953125 704.299804688 43.5 c 0
 718.799804688 64.2998046875 724.400390625 89.5 719.900390625 114.5 c 0
 715.400390625 139.5 701.5 161.200195312 680.700195312 175.700195312 c 0
 679.099609375 176.700195312 677.5 177.799804688 675.799804688 178.799804688 c 0
 532.900390625 247.900390625 377 190.700195312 304.700195312 42.599609375 c 0
 285.200195312 2.599609375 274.900390625 -42.099609375 274.900390625 -86.5 c 2
 274.900390625 -106.5 l 1
 152 -106.5 l 1
 152 -83.900390625 l 2
 152 108.299804688 159.299804688 257.799804688 175.400390625 396.700195312 c 1
 102.700195312 396.700195312 l 1
 102.700195312 518.799804688 l 1
 192.5 518.799804688 l 1
824.099609375 258 m 0xff80
 824.099609375 289.5 849.700195312 315 881.099609375 315 c 0
 912.5 315 938.099609375 289.400390625 938.099609375 258 c 0
 938.099609375 226.599609375 912.599609375 201 881.099609375 201 c 0
 849.599609375 201 824.099609375 226.599609375 824.099609375 258 c 0xff80
871 119.200195312 m 0xff40
 871 150.700195312 896.5 176.200195312 928 176.200195312 c 0
 959.5 176.200195312 985 150.700195312 985 119.200195312 c 0
 985 87.7001953125 959.400390625 62.2001953125 928 62.2001953125 c 0
 896.599609375 62.2001953125 871 87.7998046875 871 119.200195312 c 0xff40
EndSplineSet
EndChar

StartChar: uniE12B
Encoding: 57643 57643 26
Width: 1000
Flags: W
HStem: -111.6 124.199<597.5 875.3> 252.7 123.1<373.413 495.122> 396.7 122.1<102.7 176.4 319.8 436.542 614.7 897.3> 546.7 89.2998<819.812 875.589> 696 89.5<819.796 875.589>
VStem: 167 170.3<101.816 216.269> 176.4 120.699<329.629 396.7> 531.1 123.2<99.4298 217.221> 728.3 89.4004<638.161 693.939> 877.7 89.3994<638.161 693.939>
LayerCount: 2
Fore
SplineSet
847.700195312 785.5 m 4xf9c0
 913.5 785.5 967.099609375 731.900390625 967.099609375 666.099609375 c 4
 967.099609375 600.299804688 913.5 546.700195312 847.700195312 546.700195312 c 4
 781.900390625 546.700195312 728.299804688 600.299804688 728.299804688 666.099609375 c 4
 728.299804688 731.900390625 781.799804688 785.5 847.700195312 785.5 c 4xf9c0
847.700195312 636 m 4
 864.200195312 636 877.700195312 649.5 877.700195312 666 c 4
 877.700195312 682.5 864.200195312 696 847.700195312 696 c 4
 831.200195312 696 817.700195312 682.5 817.700195312 666 c 4
 817.700195312 649.5 831.200195312 636 847.700195312 636 c 4
191.900390625 518.799804688 m 1
 206.799804688 612.5 228.400390625 705.700195312 256.299804688 795.900390625 c 1
 376.700195312 759 l 1
 376.700195312 758.799804688 l 2
 352.799804688 681.299804688 333.700195312 600.700195312 319.799804688 518.799804688 c 1
 366 518.799804688 l 2
 478.799804688 536.799804688 569.900390625 615.400390625 604.200195312 724.400390625 c 2
 610.200195312 743.5 l 1
 723.599609375 707.799804688 l 1
 717.599609375 688.700195312 l 2
 697.299804688 624.099609375 662.099609375 566.200195312 614.700195312 518.799804688 c 1
 897.299804688 518.799804688 l 1
 897.299804688 396.700195312 l 1
 303 396.700195312 l 2
 300.599609375 373.599609375 298.599609375 350.900390625 297.099609375 328.5 c 1xfbc0
 335.599609375 359 383.400390625 375.799804688 434.299804688 375.799804688 c 0
 555.599609375 375.799804688 654.299804688 278.299804688 654.299804688 158.400390625 c 0
 654.299804688 103.700195312 633.700195312 52.099609375 597.5 12.599609375 c 1
 875.299804688 12.599609375 l 1
 875.299804688 -111.599609375 l 1
 478.400390625 -111.599609375 l 2
 303.5 -107.799804688 164 36.7001953125 167 210.5 c 0xfdc0
 167.200195312 272 170.400390625 334.599609375 176.400390625 396.700195312 c 1xfbc0
 102.700195312 396.700195312 l 1
 102.700195312 518.799804688 l 1
 191.900390625 518.799804688 l 1
434.200195312 252.700195312 m 0
 380.799804688 252.700195312 337.299804688 210.400390625 337.299804688 158.400390625 c 0xfdc0
 337.299804688 106.400390625 380.799804688 64.099609375 434.200195312 64.099609375 c 0
 487.599609375 64.099609375 531.099609375 106.400390625 531.099609375 158.400390625 c 0
 531.099609375 210.400390625 487.599609375 252.700195312 434.200195312 252.700195312 c 0
EndSplineSet
EndChar

StartChar: uniE12C
Encoding: 57644 57644 27
Width: 1000
Flags: W
HStem: -111.6 124.199<597.5 875.3> 252.7 123.1<373.413 495.122> 259.8 114<634.982 724.618 791.782 881.418> 396.7 122.1<102.7 176.4 319.8 436.542 614.7 897.3> 546.7 89.2998<819.812 875.589> 696 89.5<819.796 875.589>
VStem: 167 170.3<101.816 216.269> 176.4 120.699<329.629 396.7> 531.1 123.2<99.4298 217.221> 622.8 114<271.951 361.649> 728.3 89.4004<638.161 693.939> 779.6 114<271.951 361.649> 877.7 89.3994<638.161 693.939>
LayerCount: 2
Fore
SplineSet
847.700195312 785.5 m 4x9c28
 913.5 785.5 967.099609375 731.900390625 967.099609375 666.099609375 c 4
 967.099609375 600.299804688 913.5 546.700195312 847.700195312 546.700195312 c 4
 781.900390625 546.700195312 728.299804688 600.299804688 728.299804688 666.099609375 c 4
 728.299804688 731.900390625 781.799804688 785.5 847.700195312 785.5 c 4x9c28
847.700195312 636 m 4
 864.200195312 636 877.700195312 649.5 877.700195312 666 c 4
 877.700195312 682.5 864.200195312 696 847.700195312 696 c 4
 831.200195312 696 817.700195312 682.5 817.700195312 666 c 4
 817.700195312 649.5 831.200195312 636 847.700195312 636 c 4
191.900390625 518.799804688 m 1
 206.799804688 612.5 228.400390625 705.700195312 256.299804688 795.900390625 c 1
 376.700195312 759 l 1
 376.700195312 758.799804688 l 2
 352.799804688 681.299804688 333.700195312 600.700195312 319.799804688 518.799804688 c 1
 366 518.799804688 l 2
 478.799804688 536.799804688 569.900390625 615.400390625 604.200195312 724.400390625 c 2
 610.200195312 743.5 l 1
 723.599609375 707.799804688 l 1
 717.599609375 688.700195312 l 2
 697.299804688 624.099609375 662.099609375 566.200195312 614.700195312 518.799804688 c 1
 897.299804688 518.799804688 l 1
 897.299804688 396.700195312 l 1
 303 396.700195312 l 2
 300.599609375 373.599609375 298.599609375 350.900390625 297.099609375 328.5 c 1xdd
 335.599609375 359 383.400390625 375.799804688 434.299804688 375.799804688 c 0
 555.599609375 375.799804688 654.299804688 278.299804688 654.299804688 158.400390625 c 0
 654.299804688 103.700195312 633.700195312 52.099609375 597.5 12.599609375 c 1
 875.299804688 12.599609375 l 1
 875.299804688 -111.599609375 l 1
 478.400390625 -111.599609375 l 2
 303.5 -107.799804688 164 36.7001953125 167 210.5 c 0xde80
 167.200195312 272 170.400390625 334.599609375 176.400390625 396.700195312 c 1xdd
 102.700195312 396.700195312 l 1
 102.700195312 518.799804688 l 1
 191.900390625 518.799804688 l 1
434.200195312 252.700195312 m 0
 380.799804688 252.700195312 337.299804688 210.400390625 337.299804688 158.400390625 c 0
 337.299804688 106.400390625 380.799804688 64.099609375 434.200195312 64.099609375 c 0
 487.599609375 64.099609375 531.099609375 106.400390625 531.099609375 158.400390625 c 0xde80
 531.099609375 210.400390625 487.599609375 252.700195312 434.200195312 252.700195312 c 0
679.799804688 259.799804688 m 0xbc40
 648.400390625 259.799804688 622.799804688 285.299804688 622.799804688 316.799804688 c 0
 622.799804688 348.299804688 648.299804688 373.799804688 679.799804688 373.799804688 c 0
 711.299804688 373.799804688 736.799804688 348.299804688 736.799804688 316.799804688 c 0
 736.799804688 285.299804688 711.200195312 259.799804688 679.799804688 259.799804688 c 0xbc40
836.599609375 259.799804688 m 0
 805.200195312 259.799804688 779.599609375 285.299804688 779.599609375 316.799804688 c 0
 779.599609375 348.299804688 805.099609375 373.799804688 836.599609375 373.799804688 c 0
 868.099609375 373.799804688 893.599609375 348.299804688 893.599609375 316.799804688 c 0xbc10
 893.599609375 285.299804688 868 259.799804688 836.599609375 259.799804688 c 0
EndSplineSet
EndChar

StartChar: uniE12D
Encoding: 57645 57645 28
Width: 1000
Flags: W
HStem: -122.7 122.9<195.296 314.357> -48.9004 124<714.752 807.624> 188.8 123.4<195.296 289.844> 266.6 124.5<689.982 807.256> 396.8 122.101<102.7 290.3 614.7 897.3> 546.7 89.2998<819.812 875.589> 696 89.5<819.796 875.589>
VStem: 37.5996 123.101<34.9426 154.354> 290.4 124.199<309.3 396.7 531 773.2> 590.3 124.2<-117.3 -46.5> 728.3 89.4004<638.161 693.939> 842.9 124.199<110.446 231.474> 877.7 89.3994<638.161 693.939>
LayerCount: 2
Fore
SplineSet
847.700195312 785.5 m 4x0fe8
 913.5 785.5 967.099609375 731.900390625 967.099609375 666.099609375 c 4
 967.099609375 600.299804688 913.5 546.700195312 847.700195312 546.700195312 c 4
 781.900390625 546.700195312 728.299804688 600.299804688 728.299804688 666.099609375 c 4
 728.299804688 731.900390625 781.799804688 785.5 847.700195312 785.5 c 4x0fe8
847.700195312 636 m 4
 864.200195312 636 877.700195312 649.5 877.700195312 666 c 4
 877.700195312 682.5 864.200195312 696 847.700195312 696 c 4
 831.200195312 696 817.700195312 682.5 817.700195312 666 c 4
 817.700195312 649.5 831.200195312 636 847.700195312 636 c 4
290.299804688 518.799804688 m 1
 290.400390625 518.799804688 l 1
 290.400390625 773.200195312 l 1
 414.599609375 773.200195312 l 1
 414.599609375 531 l 1
 504.200195312 561.400390625 575.599609375 633.599609375 604.200195312 724.5 c 2
 610.200195312 743.599609375 l 1
 723.599609375 707.900390625 l 1
 717.599609375 688.799804688 l 2
 697.299804688 624.200195312 662.099609375 566.299804688 614.700195312 518.900390625 c 1
 897.299804688 518.900390625 l 1
 897.299804688 396.799804688 l 1
 414.5 396.799804688 l 1
 414.5 255.700195312 l 1
 527.900390625 190.200195312 l 1
 537.599609375 302.599609375 632.200195312 391.099609375 747.099609375 391.099609375 c 0
 868.400390625 391.099609375 967.099609375 292.400390625 967.099609375 171.099609375 c 0
 967.099609375 49.7998046875 868.400390625 -48.900390625 747.099609375 -48.900390625 c 0x5ff0
 736.099609375 -48.900390625 725.200195312 -48.099609375 714.5 -46.5 c 1
 714.5 -117.299804688 l 1
 590.299804688 -117.299804688 l 1
 590.299804688 9.2001953125 l 1
 471.700195312 77.599609375 l 1
 463 -34.2998046875 374.900390625 -122.700195312 255 -122.700195312 c 0
 135.099609375 -122.700195312 37.599609375 -25.099609375 37.599609375 94.7998046875 c 0
 37.599609375 214.700195312 135.099609375 312.200195312 255 312.200195312 c 0xaff0
 266.799804688 312.200195312 278.599609375 311.200195312 290.299804688 309.299804688 c 1
 290.299804688 396.700195312 l 1
 102.700195312 396.700195312 l 1
 102.700195312 518.799804688 l 1
 290.299804688 518.799804688 l 1
747.099609375 266.599609375 m 2
 747 266.599609375 l 2
 694.200195312 266.599609375 651.200195312 223.599609375 651.200195312 170.799804688 c 0
 651.200195312 144.799804688 662 119.700195312 680.900390625 101.599609375 c 2
 720 79 l 2
 728.900390625 76.400390625 737.900390625 75.099609375 747.099609375 75.099609375 c 0
 799.900390625 75.099609375 842.900390625 118 842.900390625 170.799804688 c 0
 842.900390625 223.599609375 799.900390625 266.599609375 747.099609375 266.599609375 c 2
349.299804688 94.5 m 1
 349.299804688 94.400390625 l 1
 349.299804688 124.200195312 335.700195312 151.599609375 311.900390625 169.700195312 c 2
 291.599609375 181.400390625 l 2
 279.799804688 186.299804688 267.5 188.799804688 255 188.799804688 c 0
 203 188.799804688 160.700195312 146.5 160.700195312 94.5 c 0
 160.700195312 42.5 203 0.2001953125 255 0.2001953125 c 0xafe0
 307 0.2001953125 349.299804688 42.5 349.299804688 94.5 c 1
EndSplineSet
EndChar

StartChar: uniE12E
Encoding: 57646 57646 29
Width: 1000
Flags: W
HStem: -119.7 123.2<566.547 685.954> 191.9 138.899<566.25 679.537> 396.7 122.1<102.7 175.5 319.7 436.542 614.7 897.3> 546.7 89.2998<819.812 875.589> 696 89.5<819.796 875.589>
VStem: 152 122.9<-106.5 18.8464> 192.5 127.2<518.8 626.958> 408.9 123<38.0464 157.723> 720.5 123.2<38.0375 156.821> 728.3 89.4004<638.161 693.939> 868.7 119.899<85.9004 196.489> 877.7 89.3994<638.161 693.939>
LayerCount: 2
Fore
SplineSet
847.700195312 785.5 m 4xf950
 913.5 785.5 967.099609375 731.900390625 967.099609375 666.099609375 c 4
 967.099609375 600.299804688 913.5 546.700195312 847.700195312 546.700195312 c 4
 781.900390625 546.700195312 728.299804688 600.299804688 728.299804688 666.099609375 c 4
 728.299804688 731.900390625 781.799804688 785.5 847.700195312 785.5 c 4xf950
847.700195312 636 m 4
 864.200195312 636 877.700195312 649.5 877.700195312 666 c 4
 877.700195312 682.5 864.200195312 696 847.700195312 696 c 4
 831.200195312 696 817.700195312 682.5 817.700195312 666 c 4
 817.700195312 649.5 831.200195312 636 847.700195312 636 c 4
256.299804688 795.799804688 m 2
 256.299804688 795.900390625 l 1
 376.299804688 759.099609375 l 1
 353.400390625 684.5 334.400390625 603.700195312 319.700195312 518.799804688 c 1xfb
 366 518.799804688 l 2
 478.799804688 536.799804688 569.900390625 615.400390625 604.200195312 724.400390625 c 2
 610.200195312 743.5 l 1
 723.599609375 707.799804688 l 1
 717.599609375 688.700195312 l 2
 697.299804688 624.099609375 662.099609375 566.200195312 614.700195312 518.799804688 c 1
 897.299804688 518.799804688 l 1
 897.299804688 396.700195312 l 1
 301.700195312 396.700195312 l 1
 294.799804688 339.900390625 289.400390625 280.5 285.700195312 219.5 c 1
 363.799804688 294.299804688 449.799804688 330.799804688 547.299804688 330.799804688 c 0
 597.200195312 330.799804688 646.200195312 321.900390625 693.200195312 304.400390625 c 0
 705.5 300.400390625 718.400390625 294.900390625 730.5 288.299804688 c 0
 800.5 249.700195312 843.599609375 176.799804688 843.700195312 97.7001953125 c 0
 843.700195312 -22.2001953125 746.200195312 -119.700195312 626.299804688 -119.700195312 c 0
 506.400390625 -119.700195312 408.900390625 -22.2001953125 408.900390625 97.7001953125 c 0
 408.900390625 126.400390625 414.400390625 154.099609375 425 180 c 1
 376 154.400390625 337.799804688 110.299804688 304.700195312 42.5 c 0
 290.700195312 14 281.5 -16.599609375 277.400390625 -48.2998046875 c 0
 275.700195312 -59.599609375 274.900390625 -70.7998046875 274.900390625 -83.900390625 c 2
 274.900390625 -106.5 l 1
 152 -106.5 l 1
 152 -83.900390625 l 2xfd80
 152 105.200195312 159.5 258.700195312 175.5 396.700195312 c 1
 102.700195312 396.700195312 l 1
 102.700195312 518.799804688 l 1
 192.5 518.799804688 l 1xfb
 208.700195312 617.799804688 229.599609375 708.599609375 256.299804688 795.799804688 c 2
626.200195312 191.900390625 m 1
 626.200195312 192 l 1
 574.200195312 192 531.900390625 149.799804688 531.900390625 97.7998046875 c 0
 531.900390625 45.7998046875 574.200195312 3.5 626.200195312 3.5 c 0
 678.200195312 3.5 720.5 45.7998046875 720.5 97.7001953125 c 0xf980
 720.5 133 701 165 669.700195312 181.299804688 c 0
 665.700195312 183.099609375 661 185.200195312 656.299804688 187 c 0
 647.200195312 190.200195312 636.799804688 191.900390625 626.200195312 191.900390625 c 1
987.900390625 105.900390625 m 2
 988.599609375 85.900390625 l 1
 868.700195312 81.7001953125 l 1xf920
 868 101.700195312 l 2
 866 157.099609375 850.599609375 200.700195312 814.900390625 252.099609375 c 2
 803.5 268.5 l 1
 902 337 l 1
 913.400390625 320.599609375 l 2
 962.200195312 250.5 985.099609375 184.299804688 987.900390625 105.900390625 c 2
EndSplineSet
EndChar

StartChar: uniE12F
Encoding: 57647 57647 30
Width: 1000
Flags: W
HStem: 396.9 122.1<102.7 175.4 319.2 436.542 614.7 897.3> 546.7 89.2998<819.812 875.589> 696 89.5<819.796 875.589>
VStem: 152 122.9<-106.5 19.9203> 728.3 89.4004<638.161 693.939> 868.7 119.899<85.9004 196.489> 877.7 89.3994<638.161 693.939>
LayerCount: 2
Fore
SplineSet
847.700195312 785.5 m 4xfa
 913.5 785.5 967.099609375 731.900390625 967.099609375 666.099609375 c 4
 967.099609375 600.299804688 913.5 546.700195312 847.700195312 546.700195312 c 4
 781.900390625 546.700195312 728.299804688 600.299804688 728.299804688 666.099609375 c 4
 728.299804688 731.900390625 781.799804688 785.5 847.700195312 785.5 c 4xfa
847.700195312 636 m 4
 864.200195312 636 877.700195312 649.5 877.700195312 666 c 4
 877.700195312 682.5 864.200195312 696 847.700195312 696 c 4
 831.200195312 696 817.700195312 682.5 817.700195312 666 c 4
 817.700195312 649.5 831.200195312 636 847.700195312 636 c 4
192.5 518.799804688 m 1
 192.400390625 518.799804688 l 1
 208.599609375 617.799804688 229.599609375 708.599609375 256.299804688 795.900390625 c 1
 376.200195312 759.299804688 l 1
 352.599609375 682.099609375 333.900390625 603.299804688 319.200195312 519 c 1
 366 519 l 2
 478.799804688 537 569.900390625 615.599609375 604.200195312 724.599609375 c 2
 610.200195312 743.700195312 l 1
 723.599609375 708 l 1
 717.599609375 688.900390625 l 2
 697.299804688 624.299804688 662.099609375 566.400390625 614.700195312 519 c 1
 897.299804688 519 l 1
 897.299804688 396.900390625 l 1
 301.200195312 396.900390625 l 1
 294.400390625 340.400390625 289.299804688 282.400390625 285.700195312 221.200195312 c 1
 361.299804688 295.900390625 445.599609375 331 547.299804688 331 c 0
 600.900390625 331 653 321.099609375 702 301.599609375 c 0
 711.799804688 297.900390625 721.400390625 293.599609375 730.200195312 288.700195312 c 2
 730.299804688 288.700195312 l 2
 730.700195312 288.5 731.099609375 288.200195312 731.5 288 c 0
 824.700195312 236.599609375 867.099609375 122.700195312 830.200195312 22.7001953125 c 0
 810.099609375 -31.7998046875 770 -75.2001953125 717.299804688 -99.5 c 0
 688.299804688 -112.900390625 657.5 -119.599609375 626.5 -119.599609375 c 0
 601 -119.599609375 575.599609375 -115.099609375 551 -106 c 0
 533.799804688 -99.7001953125 517.299804688 -91.099609375 502 -80.5 c 2
 485.599609375 -69.099609375 l 1
 555.599609375 31.2998046875 l 1
 572 19.900390625 l 2
 615 -10.099609375 674.299804688 0.5 704.299804688 43.5 c 0
 718.799804688 64.2998046875 724.400390625 89.5 719.900390625 114.5 c 0
 715.400390625 139.5 701.5 161.200195312 680.700195312 175.700195312 c 0
 679.099609375 176.700195312 677.5 177.799804688 675.799804688 178.799804688 c 0
 532.900390625 247.900390625 377 190.700195312 304.700195312 42.599609375 c 0
 285.200195312 2.599609375 274.900390625 -42.099609375 274.900390625 -86.5 c 2
 274.900390625 -106.5 l 1
 152 -106.5 l 1
 152 -83.900390625 l 2
 152 108.299804688 159.299804688 257.799804688 175.400390625 396.700195312 c 1
 102.700195312 396.700195312 l 1
 102.700195312 518.799804688 l 1
 192.5 518.799804688 l 1
987.900390625 105.900390625 m 2
 988.599609375 85.900390625 l 1
 868.700195312 81.7001953125 l 1xfc
 868 101.700195312 l 2
 866 157.099609375 850.599609375 200.700195312 814.900390625 252.099609375 c 2
 803.5 268.5 l 1
 902 337 l 1
 913.400390625 320.599609375 l 2
 962.200195312 250.5 985.099609375 184.299804688 987.900390625 105.900390625 c 2
EndSplineSet
EndChar

StartChar: uniE130
Encoding: 57648 57648 31
Width: 1000
Flags: W
HStem: -120.5 123.1<174.446 292.787> -112.6 135.399<573.519 796.069> 191.2 123.1<174.446 288.087> 255.9 122.1<613.4 837.3> 396.8 122.101<102.7 289 614.7 897.3> 546.7 89.2998<819.812 875.589> 696 89.5<819.796 875.589>
VStem: 16.7998 123<37.1966 156.604> 289.6 125.2<307.4 396.7 531.1 773.2> 728.3 89.4004<638.161 693.939> 877.7 89.3994<638.161 693.939>
LayerCount: 2
Fore
SplineSet
847.700195312 785.5 m 4x0fe0
 913.5 785.5 967.099609375 731.900390625 967.099609375 666.099609375 c 4
 967.099609375 600.299804688 913.5 546.700195312 847.700195312 546.700195312 c 4
 781.900390625 546.700195312 728.299804688 600.299804688 728.299804688 666.099609375 c 4
 728.299804688 731.900390625 781.799804688 785.5 847.700195312 785.5 c 4x0fe0
847.700195312 636 m 4
 864.200195312 636 877.700195312 649.5 877.700195312 666 c 4
 877.700195312 682.5 864.200195312 696 847.700195312 696 c 4
 831.200195312 696 817.700195312 682.5 817.700195312 666 c 4
 817.700195312 649.5 831.200195312 636 847.700195312 636 c 4
613.400390625 255.900390625 m 1x1fe0
 613.400390625 378 l 1
 837.299804688 378 l 1
 837.299804688 255.900390625 l 1
 613.400390625 255.900390625 l 1x1fe0
289.5 518.799804688 m 1
 289.599609375 518.799804688 l 1
 290.599609375 773.200195312 l 1
 414.799804688 773.200195312 l 1
 414.799804688 531.099609375 l 1
 504.299804688 561.5 575.599609375 633.700195312 604.200195312 724.5 c 2
 610.200195312 743.599609375 l 1
 723.599609375 707.900390625 l 1
 717.599609375 688.799804688 l 2
 697.299804688 624.200195312 662.099609375 566.299804688 614.700195312 518.900390625 c 1
 897.299804688 518.900390625 l 1
 897.299804688 396.799804688 l 1
 414.700195312 396.799804688 l 1
 414.700195312 274.200195312 l 2
 425.599609375 120 537.299804688 19.099609375 693.5 22.7998046875 c 0
 767.200195312 24.7001953125 836.900390625 54 889.799804688 105.200195312 c 2
 904.200195312 119.099609375 l 1
 991.599609375 29.099609375 l 1
 977.200195312 15.2001953125 l 2
 895.900390625 -63.599609375 794.200195312 -109 690.799804688 -112.599609375 c 0x6fe0
 591.599609375 -116.200195312 497.099609375 -80.400390625 422.599609375 -11.599609375 c 1
 384.200195312 -78.599609375 313.099609375 -120.5 234.200195312 -120.5 c 0
 114.299804688 -120.5 16.7998046875 -23 16.7998046875 96.900390625 c 0
 16.7998046875 216.799804688 114.299804688 314.299804688 234.200195312 314.299804688 c 0xafe0
 252.799804688 314.299804688 271 312 288.700195312 307.400390625 c 1
 289 396.700195312 l 1
 102.700195312 396.700195312 l 1
 102.700195312 518.799804688 l 1
 289.5 518.799804688 l 1
321.799804688 131.400390625 m 0
 321.099609375 133.200195312 320.700195312 134.200195312 320.299804688 135.099609375 c 0
 305.200195312 169.200195312 271.400390625 191.200195312 234.099609375 191.200195312 c 0
 182.099609375 191.200195312 139.799804688 148.900390625 139.799804688 96.900390625 c 0
 139.799804688 44.900390625 182.099609375 2.599609375 234.099609375 2.599609375 c 0xafe0
 286.099609375 2.599609375 328.400390625 44.900390625 328.400390625 96.900390625 c 0
 328.400390625 109 326.200195312 120.599609375 321.799804688 131.400390625 c 0
EndSplineSet
EndChar

StartChar: uniE131
Encoding: 57649 57649 32
Width: 1000
Flags: W
HStem: -40.7002 122.9<320.693 443.423> 255.9 122.1<613.4 837.3> 270.8 123.2<320.871 443.423> 396.7 122.1<102.7 175.5 319.3 436.642 614.8 897.4> 546.7 89.2998<819.812 875.589> 696 89.5<819.796 875.589>
VStem: 152 122.9<-106.5 -17.4004> 192.5 126.8<518.8 627.013> 479.4 123.199<117.779 235.417> 728.3 89.4004<638.161 693.939> 877.7 89.3994<638.161 693.939>
LayerCount: 2
Fore
SplineSet
847.700195312 785.5 m 4x9ce0
 913.5 785.5 967.099609375 731.900390625 967.099609375 666.099609375 c 4
 967.099609375 600.299804688 913.5 546.700195312 847.700195312 546.700195312 c 4
 781.900390625 546.700195312 728.299804688 600.299804688 728.299804688 666.099609375 c 4
 728.299804688 731.900390625 781.799804688 785.5 847.700195312 785.5 c 4x9ce0
847.700195312 636 m 4
 864.200195312 636 877.700195312 649.5 877.700195312 666 c 4
 877.700195312 682.5 864.200195312 696 847.700195312 696 c 4
 831.200195312 696 817.700195312 682.5 817.700195312 666 c 4
 817.700195312 649.5 831.200195312 636 847.700195312 636 c 4
613.400390625 255.900390625 m 1xdce0
 613.400390625 378 l 1
 837.299804688 378 l 1
 837.299804688 255.900390625 l 1
 613.400390625 255.900390625 l 1xdce0
256.299804688 795.799804688 m 2
 256.299804688 795.900390625 l 1
 376.299804688 759.099609375 l 1
 352.799804688 682.5 334.099609375 603.599609375 319.299804688 518.799804688 c 1xbde0
 366.099609375 518.799804688 l 2
 478.900390625 536.799804688 570 615.400390625 604.299804688 724.400390625 c 2
 610.299804688 743.5 l 1
 723.700195312 707.799804688 l 1
 717.700195312 688.700195312 l 2
 697.400390625 624.099609375 662.200195312 566.200195312 614.799804688 518.799804688 c 1
 897.400390625 518.799804688 l 1
 897.400390625 396.700195312 l 1
 301.400390625 396.700195312 l 2
 300.5 389.900390625 299.700195312 383.299804688 299 376.900390625 c 1
 325.5 387.5 356.099609375 394 382.599609375 394 c 0
 503.900390625 394 602.599609375 296.599609375 602.599609375 176.700195312 c 0
 602.599609375 56.7998046875 503.900390625 -40.7001953125 382.599609375 -40.7001953125 c 0
 341.099609375 -40.7001953125 306.700195312 -33.2001953125 276.900390625 -17.400390625 c 1
 275.799804688 -40.5 274.900390625 -62.7001953125 274.900390625 -86.5 c 2
 274.900390625 -106.5 l 1
 152 -106.5 l 1
 152 -86.5 l 2xbee0
 152 103.799804688 159.5 258.099609375 175.5 396.700195312 c 1
 102.700195312 396.700195312 l 1
 102.700195312 518.799804688 l 1
 192.5 518.799804688 l 1xbde0
 208.700195312 617.900390625 229.599609375 708.700195312 256.299804688 795.799804688 c 2
382.5 270.799804688 m 0
 329.099609375 270.799804688 285.599609375 228.5 285.599609375 176.5 c 0
 285.599609375 124.5 329.099609375 82.2001953125 382.5 82.2001953125 c 0
 435.900390625 82.2001953125 479.400390625 124.5 479.400390625 176.5 c 0
 479.400390625 228.5 435.900390625 270.799804688 382.5 270.799804688 c 0
EndSplineSet
EndChar

StartChar: uniE132
Encoding: 57650 57650 33
Width: 1000
Flags: W
HStem: -113 125.6<400.298 585.277> 255.9 122.1<520.2 744.1> 396.7 122.1<102.7 176.4 319.7 436.642 614.8 897.4> 546.7 89.2998<819.812 875.589> 696 89.5<819.796 875.589>
VStem: 167 125.9<118.56 393.676> 728.3 89.4004<638.161 693.939> 768.6 124.2<-106.4 6.09961 193.441 297.9> 877.7 89.3994<638.161 693.939>
LayerCount: 2
Fore
SplineSet
847.700195312 785.5 m 4xfe80
 913.5 785.5 967.099609375 731.900390625 967.099609375 666.099609375 c 4
 967.099609375 600.299804688 913.5 546.700195312 847.700195312 546.700195312 c 4
 781.900390625 546.700195312 728.299804688 600.299804688 728.299804688 666.099609375 c 4
 728.299804688 731.900390625 781.799804688 785.5 847.700195312 785.5 c 4xfe80
847.700195312 636 m 4
 864.200195312 636 877.700195312 649.5 877.700195312 666 c 4
 877.700195312 682.5 864.200195312 696 847.700195312 696 c 4
 831.200195312 696 817.700195312 682.5 817.700195312 666 c 4
 817.700195312 649.5 831.200195312 636 847.700195312 636 c 4
480.700195312 12.599609375 m 2
 638.5 14.900390625 764.700195312 140 768.5 297.900390625 c 1
 892.799804688 297.900390625 l 1
 892.799804688 -106.400390625 l 1
 768.599609375 -106.400390625 l 1
 768.599609375 6.099609375 l 1xfd
 691.299804688 -69.7001953125 588 -112.599609375 477.900390625 -113 c 0
 304.299804688 -109.299804688 168 29.5 167 203.099609375 c 1
 167 267.200195312 170.200195312 332.200195312 176.400390625 396.700195312 c 1
 102.700195312 396.700195312 l 1
 102.700195312 518.799804688 l 1
 191.900390625 518.799804688 l 1
 206.799804688 612.400390625 228.400390625 705.599609375 256.299804688 795.900390625 c 1
 376.799804688 759 l 1
 376.799804688 758.799804688 l 2
 352.700195312 680.599609375 333.5 600 319.700195312 518.799804688 c 1
 366.099609375 518.799804688 l 2
 478.900390625 536.799804688 570 615.400390625 604.299804688 724.400390625 c 2
 610.299804688 743.5 l 1
 723.700195312 707.799804688 l 1
 717.700195312 688.700195312 l 2
 697.400390625 624.099609375 662.200195312 566.200195312 614.799804688 518.799804688 c 1
 897.400390625 518.799804688 l 1
 897.400390625 396.700195312 l 1
 302.900390625 396.700195312 l 1
 296.5 334.200195312 293.099609375 271.099609375 292.900390625 208.700195312 c 0
 291.099609375 105.599609375 373.700195312 17.7001953125 477.099609375 12.599609375 c 2
 480.700195312 12.599609375 l 2
520.200195312 255.900390625 m 1
 520.200195312 378 l 1
 744.099609375 378 l 1
 744.099609375 255.900390625 l 1
 520.200195312 255.900390625 l 1
EndSplineSet
EndChar

StartChar: uniE133
Encoding: 57651 57651 34
Width: 1000
HStem: -119.7 123.2<566.447 685.854> 191.9 138.899<566.25 679.537>
VStem: 151.8 122.9<-106.5 22.2178> 408.7 123.2<38.0464 157.715> 720.5 123<38.0375 156.821>
LayerCount: 2
Fore
SplineSet
867.6796875 541.978515625 m 5
 826.569335938 762.072265625 l 5
 946.59375 784.491210938 l 5
 987.703125 564.397460938 l 5
 867.6796875 541.978515625 l 5
455.400390625 653.200195312 m 2
 455.299804688 653.099609375 l 2
 390.099609375 634.700195312 339.299804688 582.099609375 322.599609375 515.700195312 c 0
 303.400390625 410 291.900390625 318.599609375 285.599609375 219.599609375 c 1
 363.700195312 294.299804688 449.700195312 330.799804688 547.099609375 330.799804688 c 0
 597 330.799804688 646 321.900390625 693 304.400390625 c 0
 705.299804688 300.400390625 718.200195312 294.900390625 730.299804688 288.299804688 c 0
 800.299804688 249.700195312 843.400390625 176.799804688 843.5 97.7001953125 c 0
 843.5 -22.2001953125 746 -119.700195312 626.099609375 -119.700195312 c 0
 506.200195312 -119.700195312 408.700195312 -22.2001953125 408.700195312 97.7001953125 c 0
 408.700195312 126.299804688 414.200195312 154.099609375 424.799804688 180 c 1
 375.799804688 154.400390625 337.599609375 110.299804688 304.5 42.5 c 0
 290.5 14 281.400390625 -16.599609375 277.200195312 -48.2998046875 c 0
 275.5 -59.599609375 274.700195312 -70.7998046875 274.700195312 -83.900390625 c 2
 274.700195312 -106.5 l 1
 151.799804688 -106.5 l 1
 151.799804688 -83.900390625 l 2
 151.799804688 101.400390625 157.400390625 304.200195312 197.700195312 530.700195312 c 0
 214.400390625 614.299804688 262 686.099609375 332 733.099609375 c 0
 402.099609375 780.200195312 486.400390625 797 569.5 780.400390625 c 0
 686.900390625 756.900390625 780.099609375 670.799804688 812.700195312 555.599609375 c 2
 818.200195312 536.400390625 l 1
 696.700195312 502 l 1
 691.299804688 521.299804688 l 2
 677.400390625 570.400390625 645.299804688 611.200195312 600.700195312 636.099609375 c 0
 556.099609375 661 504.5 667.099609375 455.400390625 653.200195312 c 2
626.200195312 191.900390625 m 1
 626.200195312 192 l 1
 574.200195312 192 531.900390625 149.799804688 531.900390625 97.7998046875 c 0
 531.900390625 45.7998046875 574.200195312 3.5 626.200195312 3.5 c 0
 678.200195312 3.5 720.5 45.7998046875 720.5 97.7001953125 c 0
 720.5 133 701 165 669.700195312 181.299804688 c 0
 665.700195312 183.099609375 661 185.200195312 656.299804688 187 c 0
 647.200195312 190.200195312 636.799804688 191.900390625 626.200195312 191.900390625 c 1
EndSplineSet
EndChar

StartChar: uniE134
Encoding: 57652 57652 35
Width: 1000
HStem: -119.6 123.899<562.931 688.128>
VStem: 151.8 122.9<-106.5 22.3089>
LayerCount: 2
Fore
SplineSet
867.6796875 541.978515625 m 5
 826.569335938 762.072265625 l 5
 946.59375 784.491210938 l 5
 987.703125 564.397460938 l 5
 867.6796875 541.978515625 l 5
455.400390625 653.200195312 m 1
 455.5 653.299804688 l 1
 389.799804688 634.700195312 338.799804688 581.799804688 322.299804688 515.200195312 c 0
 303 409.799804688 291.900390625 321.099609375 285.799804688 221.299804688 c 1
 361.400390625 295.900390625 445.599609375 331 547.299804688 331 c 0
 600.900390625 331 653 321.099609375 702 301.599609375 c 0
 711.799804688 297.900390625 721.400390625 293.599609375 730.200195312 288.700195312 c 1
 730.599609375 288.5 731 288.200195312 731.400390625 288 c 0
 824.5 236.599609375 867 122.700195312 830.099609375 22.7001953125 c 0
 810 -31.7998046875 769.900390625 -75.2001953125 717.200195312 -99.5 c 0
 688.200195312 -112.900390625 657.400390625 -119.599609375 626.400390625 -119.599609375 c 0
 600.900390625 -119.599609375 575.5 -115.099609375 550.900390625 -106 c 0
 533.700195312 -99.7001953125 517.200195312 -91.099609375 501.900390625 -80.5 c 2
 485.5 -69.099609375 l 1
 555.5 31.2998046875 l 1
 571.900390625 19.900390625 l 2
 592.700195312 5.400390625 617.900390625 -0.2001953125 642.900390625 4.2998046875 c 0
 667.900390625 8.7998046875 689.599609375 22.7001953125 704.099609375 43.5 c 0
 718.599609375 64.2998046875 724.200195312 89.5 719.700195312 114.5 c 0
 715.200195312 139.5 701.299804688 161.200195312 680.5 175.700195312 c 0
 678.900390625 176.700195312 677.299804688 177.799804688 675.599609375 178.799804688 c 0
 532.799804688 247.900390625 376.799804688 190.700195312 304.5 42.599609375 c 0
 285 2.599609375 274.700195312 -42.099609375 274.700195312 -86.5 c 2
 274.700195312 -106.5 l 1
 151.799804688 -106.5 l 1
 151.799804688 -83.900390625 l 2
 151.799804688 101.599609375 157.400390625 304.400390625 197.700195312 530.700195312 c 0
 214.400390625 614.299804688 262 686.099609375 332 733.099609375 c 0
 402.099609375 780.200195312 486.400390625 797 569.5 780.400390625 c 0
 686.900390625 756.900390625 780.099609375 670.799804688 812.700195312 555.599609375 c 2
 818.200195312 536.400390625 l 1
 696.700195312 502 l 1
 691.299804688 521.299804688 l 2
 677.400390625 570.400390625 645.299804688 611.200195312 600.700195312 636.099609375 c 0
 556.099609375 661 504.5 667.099609375 455.400390625 653.200195312 c 1
EndSplineSet
EndChar

StartChar: uniE135
Encoding: 57653 57653 36
Width: 1000
HStem: -120.5 123<174.743 291.523> -112.6 135.399<573.431 796.069> 191.1 123.2<174.446 288.087>
VStem: 16.7998 123<37.1465 156.553> 288.7 126<307.4 570.525>
LayerCount: 2
Fore
SplineSet
867.6796875 541.978515625 m 5x38
 826.569335938 762.072265625 l 5
 946.59375 784.491210938 l 5
 987.703125 564.397460938 l 5
 867.6796875 541.978515625 l 5x38
525.799804688 651 m 1
 525.799804688 651.099609375 l 1
 429.900390625 624 415 526.599609375 414.700195312 471 c 2
 414.700195312 274.200195312 l 2
 425.599609375 120 537.099609375 18.900390625 693.5 22.7998046875 c 0
 767.200195312 24.7001953125 836.900390625 54 889.799804688 105.200195312 c 2
 904.200195312 119.099609375 l 1
 991.599609375 29.099609375 l 1
 977.200195312 15.2001953125 l 2
 895.900390625 -63.599609375 794.200195312 -109 690.799804688 -112.599609375 c 0x78
 591.700195312 -116.099609375 497.099609375 -80.400390625 422.599609375 -11.599609375 c 1
 384.200195312 -78.599609375 313.099609375 -120.5 234.200195312 -120.5 c 0xb8
 114.299804688 -120.5 16.7998046875 -23 16.7998046875 96.900390625 c 0
 16.7998046875 216.799804688 114.299804688 314.299804688 234.200195312 314.299804688 c 0
 252.799804688 314.299804688 271 312 288.700195312 307.400390625 c 1
 289.400390625 475.099609375 l 2
 294.099609375 655.599609375 411.099609375 782.700195312 574.099609375 784.5 c 0
 575.400390625 784.5 576.599609375 784.5 577.900390625 784.5 c 0
 711.400390625 784.5 811.599609375 700.5 853.200195312 553.400390625 c 2
 858.599609375 534.200195312 l 1
 737.099609375 499.799804688 l 1
 731.700195312 519.099609375 l 2
 701 627.700195312 622.099609375 678.200195312 525.799804688 651 c 1
234.099609375 2.5 m 1xb8
 234.099609375 2.400390625 l 1
 286.099609375 2.400390625 328.400390625 44.7001953125 328.400390625 96.7001953125 c 0
 328.400390625 108.900390625 326.200195312 120.5 321.799804688 131.299804688 c 0
 321.099609375 133.099609375 320.700195312 134.099609375 320.299804688 135 c 0
 305.200195312 169.099609375 271.400390625 191.099609375 234.099609375 191.099609375 c 0
 182.099609375 191.099609375 139.799804688 148.799804688 139.799804688 96.7998046875 c 0
 139.799804688 44.7998046875 182.099609375 2.5 234.099609375 2.5 c 1xb8
EndSplineSet
EndChar

StartChar: uniE136
Encoding: 57654 57654 37
Width: 1000
HStem: -40.7998 123.1<321.403 443.323> 270.9 123<320.84 443.323>
VStem: 151.8 122.9<-106.6 -24.7758> 479.4 123<117.779 235.417>
LayerCount: 2
Fore
SplineSet
867.6796875 541.978515625 m 5
 826.569335938 762.072265625 l 5
 946.59375 784.491210938 l 5
 987.703125 564.397460938 l 5
 867.6796875 541.978515625 l 5
322.299804688 515.299804688 m 1
 322.200195312 515.299804688 l 1
 318.099609375 492.799804688 l 2
 310.5 451.700195312 304.200195312 417.299804688 299 376.900390625 c 1
 325.400390625 387.400390625 356 393.900390625 382.400390625 393.900390625 c 0
 503.700195312 393.900390625 602.400390625 296.5 602.400390625 176.599609375 c 0
 602.400390625 56.7001953125 503.700195312 -40.7998046875 382.400390625 -40.7998046875 c 0
 340.900390625 -40.7998046875 306.5 -33.2998046875 276.700195312 -17.5 c 1
 275.599609375 -40.599609375 274.700195312 -62.7998046875 274.700195312 -86.599609375 c 2
 274.700195312 -106.599609375 l 1
 151.799804688 -106.599609375 l 1
 151.799804688 -86.599609375 l 2
 151.799804688 99.900390625 157.400390625 303.700195312 197.700195312 530.599609375 c 0
 214.400390625 614.200195312 262 686 332 733 c 0
 402.099609375 780.099609375 486.400390625 796.900390625 569.5 780.299804688 c 0
 686.900390625 756.799804688 780.099609375 670.700195312 812.700195312 555.5 c 2
 818.200195312 536.299804688 l 1
 696.700195312 501.900390625 l 1
 691.299804688 521.200195312 l 2
 677.400390625 570.299804688 645.299804688 611.099609375 600.700195312 636 c 0
 556.099609375 660.900390625 504.5 667 455.400390625 653.099609375 c 0
 389.900390625 634.599609375 338.900390625 581.799804688 322.299804688 515.299804688 c 1
382.5 270.900390625 m 0
 329.099609375 270.900390625 285.599609375 228.599609375 285.599609375 176.599609375 c 0
 285.599609375 124.599609375 329.099609375 82.2998046875 382.5 82.2998046875 c 0
 435.900390625 82.2998046875 479.400390625 124.599609375 479.400390625 176.599609375 c 0
 479.400390625 228.599609375 435.900390625 270.900390625 382.5 270.900390625 c 0
EndSplineSet
EndChar

StartChar: uniE137
Encoding: 57655 57655 38
Width: 1000
HStem: -132.8 430.6<768.6 867.3> -113.1 125.699<400.38 585.472>
VStem: 166.9 126<118.56 467.511>
LayerCount: 2
Fore
SplineSet
867.6796875 541.978515625 m 5x20
 826.569335938 762.072265625 l 5
 946.59375 784.491210938 l 5
 987.703125 564.397460938 l 5
 867.6796875 541.978515625 l 5x20
480.799804688 12.599609375 m 1x60
 480.799804688 12.5 l 1
 638.799804688 14.7001953125 764.900390625 139.799804688 768.599609375 297.799804688 c 1
 894.200195312 297.799804688 l 1
 894.200195312 297.5 l 2
 894 289.5 893.700195312 281.900390625 893.200195312 274.700195312 c 0
 981.5 220.5 1020.70019531 109.599609375 984.400390625 11 c 0
 951.599609375 -77.7998046875 867.299804688 -132.799804688 777.799804688 -132.799804688 c 0xa0
 752.5 -132.799804688 726.900390625 -128.400390625 701.799804688 -119.099609375 c 0
 677.900390625 -110.299804688 656 -97.599609375 636.599609375 -81.2998046875 c 0
 586.200195312 -102.200195312 532.900390625 -112.900390625 477.900390625 -113.099609375 c 0
 304.200195312 -109.299804688 167.900390625 29.5 166.900390625 202.900390625 c 0
 166.900390625 310.799804688 175.900390625 405.700195312 197.799804688 530.599609375 c 0
 214.5 614.200195312 262.099609375 686 332.099609375 733 c 0
 402.200195312 780.099609375 486.5 796.900390625 569.599609375 780.299804688 c 0
 687 756.799804688 780.200195312 670.700195312 812.799804688 555.5 c 2
 818.299804688 536.299804688 l 1
 696.799804688 501.900390625 l 1
 691.400390625 521.200195312 l 2
 662.799804688 622.599609375 556.900390625 681.700195312 455.5 653.099609375 c 0
 389.900390625 634.5 339 581.599609375 322.5 514.799804688 c 0
 301.799804688 399.200195312 293.200195312 310.400390625 292.900390625 208.700195312 c 0
 291.099609375 105.599609375 373.799804688 17.7001953125 477.200195312 12.599609375 c 2
 480.799804688 12.599609375 l 1x60
873.700195312 77.2001953125 m 2
 873.700195312 77.2998046875 l 2
 876 98.900390625 871 120.200195312 859.599609375 138.400390625 c 1
 835.700195312 83.2001953125 800.200195312 34.099609375 755.299804688 -6.099609375 c 1
 784 -12.900390625 814.900390625 -6.5 838.5 12.599609375 c 0x60
 858.5 28.7001953125 871 51.599609375 873.700195312 77.2001953125 c 2
EndSplineSet
EndChar

StartChar: uniE138
Encoding: 57656 57656 39
Width: 1000
HStem: -113 198.3<422.925 632.538> 273.9 123<547.147 666.234>
VStem: 166.8 125.9<116.928 466.83> 389.4 123.199<119.888 239.254> 701.2 191.399<119.65 239.55> 768.4 124.199<-111.6 8.59961>
LayerCount: 2
Fore
SplineSet
867.6796875 541.978515625 m 5xf0
 826.569335938 762.072265625 l 5
 946.59375 784.491210938 l 5
 987.703125 564.397460938 l 5
 867.6796875 541.978515625 l 5xf0
455.400390625 653.200195312 m 2
 455.299804688 653.099609375 l 2
 389.700195312 634.599609375 338.799804688 581.700195312 322.299804688 514.900390625 c 0
 301.299804688 397.400390625 292.700195312 307.099609375 292.700195312 203.200195312 c 0
 293.5 104 369.299804688 21.900390625 466.599609375 13.2001953125 c 1
 418.400390625 53.7998046875 389.400390625 114.099609375 389.400390625 179.5 c 0
 389.400390625 299.400390625 486.900390625 396.900390625 606.799804688 396.900390625 c 0
 678.099609375 396.900390625 745.900390625 359.5 787.200195312 299.400390625 c 1
 892.599609375 299.400390625 l 1
 892.599609375 -111.599609375 l 1
 768.400390625 -111.599609375 l 1
 768.400390625 8.599609375 l 1xf4
 690.900390625 -68.7998046875 586.700195312 -112.599609375 475.200195312 -113 c 0
 298.900390625 -109.099609375 163.700195312 33.099609375 166.799804688 210.700195312 c 0
 167.200195312 315.099609375 176.099609375 407.900390625 197.700195312 530.700195312 c 0
 214.400390625 614.299804688 262 686.099609375 332 733.099609375 c 0
 402.099609375 780.200195312 486.400390625 797 569.5 780.400390625 c 0
 686.900390625 756.900390625 780.099609375 670.799804688 812.700195312 555.599609375 c 2
 818.200195312 536.400390625 l 1
 696.700195312 502 l 1
 691.299804688 521.299804688 l 2
 677.400390625 570.400390625 645.299804688 611.200195312 600.700195312 636.099609375 c 0
 556.099609375 661 504.5 667.099609375 455.400390625 653.200195312 c 2
606.900390625 273.900390625 m 0
 554.900390625 273.900390625 512.599609375 231.599609375 512.599609375 179.599609375 c 0
 512.599609375 127.599609375 554.900390625 85.2998046875 606.900390625 85.2998046875 c 0
 658.900390625 85.2998046875 701.200195312 127.599609375 701.200195312 179.599609375 c 0xf8
 701.200195312 231.599609375 658.900390625 273.900390625 606.900390625 273.900390625 c 0
EndSplineSet
EndChar

StartChar: uniE139
Encoding: 57657 57657 40
Width: 1000
HStem: -113.1 125.699<400.298 585.177>
VStem: 166.9 126<118.56 467.511> 768.5 124.2<-106.5 6 193.441 297.9>
LayerCount: 2
Fore
SplineSet
867.6796875 541.978515625 m 5
 826.569335938 762.072265625 l 5
 946.59375 784.491210938 l 5
 987.703125 564.397460938 l 5
 867.6796875 541.978515625 l 5
480.700195312 12.599609375 m 1
 480.599609375 12.599609375 l 1
 638.400390625 14.900390625 764.599609375 140 768.400390625 297.900390625 c 1
 892.700195312 297.900390625 l 1
 892.700195312 -106.5 l 1
 768.5 -106.5 l 1
 768.5 6 l 1
 691.200195312 -69.7998046875 587.900390625 -112.700195312 477.799804688 -113.099609375 c 0
 304.200195312 -109.299804688 167.900390625 29.5 166.900390625 202.900390625 c 0
 166.900390625 310.799804688 175.900390625 405.700195312 197.799804688 530.599609375 c 0
 214.5 614.200195312 262.099609375 686 332.099609375 733 c 0
 402.200195312 780.099609375 486.5 796.900390625 569.599609375 780.299804688 c 0
 687 756.799804688 780.200195312 670.700195312 812.799804688 555.5 c 2
 818.299804688 536.299804688 l 1
 696.799804688 501.900390625 l 1
 691.400390625 521.200195312 l 2
 677.5 570.299804688 645.400390625 611.099609375 600.799804688 636 c 0
 556.200195312 660.900390625 504.599609375 667 455.5 653.099609375 c 0
 389.900390625 634.5 339 581.599609375 322.5 514.799804688 c 0
 301.799804688 399.200195312 293.200195312 310.400390625 292.900390625 208.700195312 c 0
 291.099609375 105.599609375 373.700195312 17.7001953125 477.099609375 12.599609375 c 2
 480.700195312 12.599609375 l 1
EndSplineSet
EndChar

StartChar: uniE13A
Encoding: 57658 57658 41
Width: 1000
HStem: -113.4 126.7<399.145 497.206> 284.3 123.2<573.414 689.785>
VStem: 166.8 125.8<121.564 468.456> 414 123.3<126.885 248.373> 725.9 122.899<125.871 248.322> 866 126.9<-97.5 -19.3062>
LayerCount: 2
Fore
SplineSet
867.6796875 541.978515625 m 5
 826.569335938 762.072265625 l 5
 946.59375 784.491210938 l 5
 987.703125 564.397460938 l 5
 867.6796875 541.978515625 l 5
455.400390625 653.200195312 m 2
 455.299804688 653.200195312 l 2
 389.599609375 634.700195312 338.700195312 581.700195312 322.200195312 514.900390625 c 0
 301.900390625 401.299804688 293.299804688 314.5 292.599609375 215.400390625 c 0
 290.799804688 107.099609375 371.599609375 18.400390625 476.599609375 13.2998046875 c 0
 483.900390625 13 491.099609375 13 498.299804688 13.5 c 1
 445.900390625 54.599609375 414 118.5 414 187.5 c 0
 414 308.799804688 511.5 407.5 631.400390625 407.5 c 0
 751.299804688 407.5 848.799804688 308.799804688 848.799804688 187.5 c 0
 848.799804688 165.700195312 845.700195312 144.400390625 839.599609375 123.900390625 c 1
 889.5 110.900390625 932.700195312 81.099609375 962.799804688 38.2998046875 c 0
 990.400390625 -0.7998046875 992.799804688 -37.2998046875 992.900390625 -77.5 c 2
 992.900390625 -97.5 l 1
 866 -97.7998046875 l 1
 866 -77.7998046875 l 2
 865.900390625 -27.2998046875 834.5 4 784 4 c 2
 783.799804688 4 l 2
 763.900390625 3.900390625 745 -1.7998046875 730.400390625 -12.099609375 c 2
 654.5 -65.2001953125 l 2
 602.200195312 -97.7998046875 544 -113.400390625 486.400390625 -113.400390625 c 0
 386 -113.400390625 287.5 -66.099609375 225.799804688 21.599609375 c 0
 187.599609375 75.900390625 167.200195312 138.599609375 166.799804688 203 c 0
 166.799804688 310.900390625 175.799804688 405.799804688 197.700195312 530.700195312 c 0
 214.400390625 614.299804688 262 686.099609375 332 733.099609375 c 0
 402.099609375 780.200195312 486.400390625 797 569.5 780.400390625 c 0
 686.900390625 756.900390625 780.099609375 670.799804688 812.700195312 555.599609375 c 2
 818.200195312 536.400390625 l 1
 696.700195312 502 l 1
 691.299804688 521.299804688 l 2
 677.400390625 570.400390625 645.299804688 611.200195312 600.700195312 636.099609375 c 0
 556.099609375 661 504.5 667.099609375 455.400390625 653.200195312 c 2
631.599609375 284.299804688 m 1
 631.599609375 284.400390625 l 1
 579.599609375 284.400390625 537.299804688 240.900390625 537.299804688 187.5 c 0
 537.299804688 134.099609375 579.599609375 90.599609375 631.599609375 90.599609375 c 0
 644.799804688 90.599609375 657.400390625 93.2998046875 669.299804688 98.599609375 c 0
 674.299804688 101.700195312 679.099609375 104.400390625 684 106.900390625 c 0
 710.299804688 125 725.900390625 155 725.900390625 187.400390625 c 0
 725.900390625 240.799804688 683.599609375 284.299804688 631.599609375 284.299804688 c 1
EndSplineSet
EndChar

StartChar: uniE13B
Encoding: 57659 57659 42
Width: 1000
HStem: -119.6 123.899<563.031 688.228> 281.8 114<764.709 844.291> 346.7 113.899<633.409 712.991>
VStem: 151.9 122.899<-106.5 22.3089> 616.2 114<363.809 443.392> 764.2 97.2998<299.009 378.591>
LayerCount: 2
Fore
SplineSet
867.6796875 541.978515625 m 5x9c
 826.569335938 762.072265625 l 5
 946.59375 784.491210938 l 5
 987.703125 564.397460938 l 5
 867.6796875 541.978515625 l 5x9c
569.599609375 780.400390625 m 1
 569.700195312 780.599609375 l 1
 687.099609375 757.099609375 780.299804688 671 812.900390625 555.799804688 c 2
 818.400390625 536.599609375 l 1
 696.900390625 502.200195312 l 1
 691.5 521.5 l 2
 677.599609375 570.599609375 645.5 611.400390625 600.900390625 636.299804688 c 0
 556.299804688 661.200195312 504.700195312 667.299804688 455.599609375 653.400390625 c 0
 389.799804688 634.799804688 338.799804688 581.900390625 322.299804688 515.200195312 c 0
 303 409.799804688 291.900390625 321 285.799804688 221.299804688 c 1
 361.400390625 295.900390625 445.599609375 331 547.299804688 331 c 0
 600.900390625 331 653 321.099609375 702 301.599609375 c 0
 711.799804688 297.900390625 721.400390625 293.599609375 730.200195312 288.700195312 c 2
 730.299804688 288.700195312 l 2
 730.700195312 288.5 731.099609375 288.200195312 731.5 288 c 0
 824.700195312 236.599609375 867.099609375 122.700195312 830.200195312 22.7001953125 c 0
 810.099609375 -31.7998046875 770 -75.2001953125 717.299804688 -99.5 c 0
 688.299804688 -112.900390625 657.5 -119.599609375 626.5 -119.599609375 c 0
 601 -119.599609375 575.599609375 -115.099609375 551 -106 c 0
 533.799804688 -99.7001953125 517.299804688 -91.099609375 502 -80.5 c 2
 485.599609375 -69.099609375 l 1
 555.599609375 31.2998046875 l 1
 572 19.900390625 l 2
 592.799804688 5.400390625 618 -0.2001953125 643 4.2998046875 c 0
 668 8.7998046875 689.700195312 22.7001953125 704.200195312 43.5 c 0
 718.700195312 64.2998046875 724.299804688 89.5 719.799804688 114.5 c 0
 715.299804688 139.5 701.400390625 161.200195312 680.599609375 175.700195312 c 0
 679 176.700195312 677.400390625 177.799804688 675.700195312 178.799804688 c 0
 532.799804688 247.900390625 376.900390625 190.700195312 304.599609375 42.599609375 c 0
 285.099609375 2.599609375 274.799804688 -42.099609375 274.799804688 -86.5 c 2
 274.799804688 -106.5 l 1
 151.900390625 -106.5 l 1
 151.900390625 -83.900390625 l 2
 151.900390625 101.599609375 157.5 304.400390625 197.799804688 530.700195312 c 0
 214.5 614.299804688 262.099609375 686.099609375 332.099609375 733.099609375 c 0
 402.200195312 780.200195312 486.5 797 569.599609375 780.400390625 c 1
673.200195312 346.700195312 m 0xbc
 657.900390625 346.700195312 643.599609375 352.599609375 632.900390625 363.299804688 c 0
 622.099609375 374.099609375 616.200195312 388.400390625 616.200195312 403.599609375 c 0
 616.200195312 418.799804688 622.099609375 433.099609375 632.900390625 443.900390625 c 0
 643.700195312 454.700195312 658 460.599609375 673.200195312 460.599609375 c 0
 688.400390625 460.599609375 702.700195312 454.700195312 713.5 443.900390625 c 0
 724.299804688 433.099609375 730.200195312 418.799804688 730.200195312 403.599609375 c 0
 730.200195312 388.400390625 724.299804688 374.099609375 713.5 363.299804688 c 0
 702.700195312 352.599609375 688.400390625 346.700195312 673.200195312 346.700195312 c 0xbc
764.200195312 298.5 m 2
 764.200195312 298.599609375 l 2
 742 320.799804688 742 356.900390625 764.200195312 379.099609375 c 0
 775 389.900390625 789.200195312 395.799804688 804.5 395.799804688 c 0
 819.799804688 395.799804688 834 389.900390625 844.799804688 379.099609375 c 0
 855.599609375 368.299804688 861.5 354 861.5 338.799804688 c 0
 861.5 323.599609375 855.599609375 309.299804688 844.799804688 298.5 c 0
 834 287.700195312 819.700195312 281.799804688 804.5 281.799804688 c 0xdc
 789.299804688 281.799804688 775 287.700195312 764.200195312 298.5 c 2
EndSplineSet
EndChar

StartChar: uniE13C
Encoding: 57660 57660 43
Width: 1000
HStem: -111.6 124.199<597.3 875.1> 252.7 123.1<373.353 495.022>
VStem: 166.8 170.5<101.963 215.586> 531.1 123<99.4298 217.221>
LayerCount: 2
Fore
SplineSet
867.6796875 541.978515625 m 5
 826.569335938 762.072265625 l 5
 946.59375 784.491210938 l 5
 987.703125 564.397460938 l 5
 867.6796875 541.978515625 l 5
455.400390625 653.200195312 m 2
 455.200195312 653.200195312 l 2
 389.799804688 634.700195312 339 581.799804688 322.400390625 515.200195312 c 0
 310.299804688 447.400390625 301.700195312 391.599609375 297 328.599609375 c 1
 335.5 359 383.299804688 375.799804688 434.099609375 375.799804688 c 0
 555.400390625 375.799804688 654.099609375 278.299804688 654.099609375 158.400390625 c 0
 654.099609375 103.700195312 633.5 52.099609375 597.299804688 12.599609375 c 1
 875.099609375 12.599609375 l 1
 875.099609375 -111.599609375 l 1
 478.200195312 -111.599609375 l 2
 303.200195312 -107.700195312 163.700195312 36.7998046875 166.799804688 210.700195312 c 0
 167.200195312 315.099609375 176.099609375 407.900390625 197.700195312 530.700195312 c 0
 214.400390625 614.299804688 262 686.099609375 332 733.099609375 c 0
 402.099609375 780.200195312 486.400390625 797 569.5 780.400390625 c 0
 686.900390625 756.900390625 780.099609375 670.799804688 812.700195312 555.599609375 c 2
 818.200195312 536.400390625 l 1
 696.700195312 502 l 1
 691.299804688 521.299804688 l 2
 677.400390625 570.400390625 645.299804688 611.200195312 600.700195312 636.099609375 c 0
 556.099609375 661 504.5 667.099609375 455.400390625 653.200195312 c 2
434.200195312 252.700195312 m 0
 380.799804688 252.700195312 337.299804688 210.400390625 337.299804688 158.400390625 c 0
 337.299804688 106.400390625 380.799804688 64.099609375 434.200195312 64.099609375 c 0
 487.599609375 64.099609375 531.099609375 106.400390625 531.099609375 158.400390625 c 0
 531.099609375 210.400390625 487.599609375 252.700195312 434.200195312 252.700195312 c 0
EndSplineSet
EndChar

StartChar: uniE13D
Encoding: 57661 57661 44
Width: 1000
HStem: -111.6 124.199<597.4 875.2> 252.7 123.1<373.403 495.072> 259.8 114<634.982 724.618 791.782 881.418>
VStem: 166.9 170.399<101.963 215.586> 531.1 123.101<99.4298 217.221> 622.8 114<271.951 361.649> 779.6 114<271.951 361.649>
LayerCount: 2
Fore
SplineSet
867.6796875 541.978515625 m 5x92
 826.569335938 762.072265625 l 5
 946.59375 784.491210938 l 5
 987.703125 564.397460938 l 5
 867.6796875 541.978515625 l 5x92
679.799804688 259.799804688 m 0xb6
 648.400390625 259.799804688 622.799804688 285.299804688 622.799804688 316.799804688 c 0
 622.799804688 348.299804688 648.299804688 373.799804688 679.799804688 373.799804688 c 0
 711.299804688 373.799804688 736.799804688 348.299804688 736.799804688 316.799804688 c 0
 736.799804688 285.299804688 711.200195312 259.799804688 679.799804688 259.799804688 c 0xb6
836.599609375 259.799804688 m 0
 805.200195312 259.799804688 779.599609375 285.299804688 779.599609375 316.799804688 c 0
 779.599609375 348.299804688 805.099609375 373.799804688 836.599609375 373.799804688 c 0
 868.099609375 373.799804688 893.599609375 348.299804688 893.599609375 316.799804688 c 0
 893.599609375 285.299804688 868 259.799804688 836.599609375 259.799804688 c 0
569.599609375 780.400390625 m 1
 569.400390625 780.400390625 l 1
 686.799804688 756.900390625 780 670.799804688 812.599609375 555.599609375 c 2
 818.099609375 536.400390625 l 1
 696.599609375 502 l 1
 691.200195312 521.299804688 l 2
 677.299804688 570.400390625 645.200195312 611.200195312 600.599609375 636.099609375 c 0
 556 661 504.400390625 667.099609375 455.299804688 653.200195312 c 0
 389.900390625 634.700195312 339.099609375 581.799804688 322.5 515.200195312 c 0
 310.400390625 447.400390625 301.799804688 391.599609375 297.099609375 328.599609375 c 1
 335.599609375 359 383.400390625 375.799804688 434.200195312 375.799804688 c 0
 555.5 375.799804688 654.200195312 278.299804688 654.200195312 158.400390625 c 0xda
 654.200195312 103.700195312 633.599609375 52.099609375 597.400390625 12.599609375 c 1
 875.200195312 12.599609375 l 1
 875.200195312 -111.599609375 l 1
 478.299804688 -111.599609375 l 2
 303.299804688 -107.700195312 163.799804688 36.7998046875 166.900390625 210.700195312 c 0
 167.299804688 315.099609375 176.200195312 407.900390625 197.799804688 530.700195312 c 0
 214.5 614.299804688 262.099609375 686.099609375 332.099609375 733.099609375 c 0
 402.200195312 780.200195312 486.5 797 569.599609375 780.400390625 c 1
434.200195312 252.700195312 m 0
 380.799804688 252.700195312 337.299804688 210.400390625 337.299804688 158.400390625 c 0
 337.299804688 106.400390625 380.799804688 64.099609375 434.200195312 64.099609375 c 0
 487.599609375 64.099609375 531.099609375 106.400390625 531.099609375 158.400390625 c 0
 531.099609375 210.400390625 487.599609375 252.700195312 434.200195312 252.700195312 c 0
EndSplineSet
EndChar

StartChar: uniE13E
Encoding: 57662 57662 45
Width: 1000
HStem: -122.8 123<195.296 314.357> -49 124.1<714.752 807.624> 188.8 123.4<195.296 289.797> 266.6 124.4<689.982 807.256>
VStem: 37.5996 123.101<35.2352 154.257> 290.2 124.3<309.3 570.418> 590.3 124.2<-117.4 -46.5996> 842.9 124.199<110.396 231.424>
LayerCount: 2
Fore
SplineSet
867.6796875 541.978515625 m 5x0f
 826.569335938 762.072265625 l 5
 946.59375 784.491210938 l 5
 987.703125 564.397460938 l 5
 867.6796875 541.978515625 l 5x0f
37.599609375 94.7001953125 m 2
 37.599609375 94.7998046875 l 2
 37.599609375 214.700195312 135.099609375 312.200195312 255 312.200195312 c 0xaf
 266.799804688 312.200195312 278.599609375 311.200195312 290.200195312 309.299804688 c 1
 289.400390625 474.900390625 l 2
 294.099609375 655.599609375 411.099609375 782.700195312 574.099609375 784.5 c 0
 575.400390625 784.5 576.599609375 784.5 577.900390625 784.5 c 0
 711.400390625 784.5 811.599609375 700.5 853.099609375 553.400390625 c 2
 858.5 534.200195312 l 1
 737 499.799804688 l 1
 731.599609375 519.099609375 l 2
 717 571 690.400390625 611 654.700195312 634.700195312 c 0
 618.200195312 658.900390625 573.599609375 664.599609375 525.700195312 651 c 0
 427.5 623.299804688 413.900390625 522.5 414.599609375 464.900390625 c 2
 414.900390625 441.400390625 l 1
 414.5 441.400390625 l 1
 414.5 255.599609375 l 1
 527.900390625 190.099609375 l 1
 537.599609375 302.5 632.200195312 391 747.099609375 391 c 0
 868.400390625 391 967.099609375 292.299804688 967.099609375 171 c 0
 967.099609375 49.7001953125 868.400390625 -49 747.099609375 -49 c 0x5f
 736.099609375 -49 725.200195312 -48.2001953125 714.5 -46.599609375 c 1
 714.5 -117.400390625 l 1
 590.299804688 -117.400390625 l 1
 590.299804688 9.099609375 l 1
 471.700195312 77.5 l 1
 463 -34.400390625 374.900390625 -122.799804688 255 -122.799804688 c 0x8f
 135.099609375 -122.799804688 37.599609375 -25.2001953125 37.599609375 94.7001953125 c 2
747.099609375 266.599609375 m 2x5f
 747 266.599609375 l 2
 694.200195312 266.599609375 651.200195312 223.599609375 651.200195312 170.799804688 c 0
 651.200195312 144.799804688 662 119.700195312 680.900390625 101.599609375 c 2
 720 79 l 2
 728.900390625 76.400390625 737.900390625 75.099609375 747.099609375 75.099609375 c 0
 799.900390625 75.099609375 842.900390625 118 842.900390625 170.799804688 c 0
 842.900390625 223.599609375 799.900390625 266.599609375 747.099609375 266.599609375 c 2x5f
291.599609375 181.5 m 1
 291.599609375 181.400390625 l 1
 279.799804688 186.299804688 267.5 188.799804688 255 188.799804688 c 0
 203 188.799804688 160.700195312 146.5 160.700195312 94.5 c 0
 160.700195312 42.5 203 0.2001953125 255 0.2001953125 c 0xaf
 307 0.2001953125 349.299804688 42.5 349.299804688 94.5 c 0
 349.299804688 124.299804688 335.700195312 151.700195312 311.900390625 169.799804688 c 2
 291.599609375 181.5 l 1
EndSplineSet
EndChar

StartChar: uniE13F
Encoding: 57663 57663 46
Width: 1000
HStem: -119.7 123.2<566.497 685.904> 191.9 138.899<566.25 679.537> 347.8 118.2<641.8 706.683>
VStem: 151.9 122.899<-106.5 22.2178> 408.8 123.101<38.0464 157.723> 720.5 123.1<38.0375 156.821>
LayerCount: 2
Fore
SplineSet
867.6796875 541.978515625 m 5
 826.569335938 762.072265625 l 5
 946.59375 784.491210938 l 5
 987.703125 564.397460938 l 5
 867.6796875 541.978515625 l 5
641.799804688 465.900390625 m 1
 641.799804688 466 l 1
 661.5 462.5 l 2
 745.599609375 447.400390625 808.599609375 416.799804688 866 363.299804688 c 2
 880.599609375 349.700195312 l 1
 798.799804688 261.900390625 l 1
 784.200195312 275.5 l 2
 743.599609375 313.299804688 701.900390625 333.200195312 640.299804688 344.299804688 c 2
 620.599609375 347.799804688 l 1
 641.799804688 465.900390625 l 1
569.599609375 780.400390625 m 1
 569.5 780.400390625 l 1
 686.900390625 756.900390625 780.099609375 670.799804688 812.700195312 555.599609375 c 2
 818.200195312 536.400390625 l 1
 696.700195312 502 l 1
 691.299804688 521.299804688 l 2
 677.400390625 570.400390625 645.299804688 611.200195312 600.700195312 636.099609375 c 0
 556.099609375 661 504.5 667.099609375 455.400390625 653.200195312 c 0
 390.200195312 634.799804688 339.400390625 582.099609375 322.700195312 515.799804688 c 0
 303.5 410.099609375 292 318.700195312 285.700195312 219.599609375 c 1
 363.799804688 294.299804688 449.799804688 330.799804688 547.200195312 330.799804688 c 0
 597.099609375 330.799804688 646.099609375 321.900390625 693.099609375 304.400390625 c 0
 705.400390625 300.400390625 718.299804688 294.900390625 730.400390625 288.299804688 c 0
 800.400390625 249.700195312 843.5 176.799804688 843.599609375 97.7001953125 c 0
 843.599609375 -22.2001953125 746.099609375 -119.700195312 626.200195312 -119.700195312 c 0
 506.299804688 -119.700195312 408.799804688 -22.2001953125 408.799804688 97.7001953125 c 0
 408.799804688 126.400390625 414.299804688 154.099609375 424.900390625 180 c 1
 375.900390625 154.400390625 337.700195312 110.299804688 304.599609375 42.5 c 0
 290.599609375 14 281.400390625 -16.599609375 277.299804688 -48.2998046875 c 0
 275.599609375 -59.599609375 274.799804688 -70.7998046875 274.799804688 -83.900390625 c 2
 274.799804688 -106.5 l 1
 151.900390625 -106.5 l 1
 151.900390625 -83.900390625 l 2
 151.900390625 101.400390625 157.5 304.200195312 197.799804688 530.700195312 c 0
 214.5 614.299804688 262.099609375 686.099609375 332.099609375 733.099609375 c 0
 402.200195312 780.200195312 486.5 797 569.599609375 780.400390625 c 1
626.200195312 191.900390625 m 1
 626.200195312 192 l 1
 574.200195312 192 531.900390625 149.799804688 531.900390625 97.7998046875 c 0
 531.900390625 45.7998046875 574.200195312 3.5 626.200195312 3.5 c 0
 678.200195312 3.5 720.5 45.7998046875 720.5 97.7001953125 c 0
 720.5 133 701 165 669.700195312 181.299804688 c 0
 665.700195312 183.099609375 661 185.200195312 656.299804688 187 c 0
 647.200195312 190.200195312 636.799804688 191.900390625 626.200195312 191.900390625 c 1
EndSplineSet
EndChar

StartChar: uniE140
Encoding: 57664 57664 47
Width: 1000
HStem: 347.8 118.2<641.8 706.683>
VStem: 151.9 122.899<-106.5 22.3089>
LayerCount: 2
Fore
SplineSet
867.6796875 541.978515625 m 5
 826.569335938 762.072265625 l 5
 946.59375 784.491210938 l 5
 987.703125 564.397460938 l 5
 867.6796875 541.978515625 l 5
641.799804688 465.900390625 m 1
 641.799804688 466 l 1
 661.5 462.5 l 2
 745.599609375 447.400390625 808.599609375 416.799804688 866 363.299804688 c 2
 880.599609375 349.700195312 l 1
 798.799804688 261.900390625 l 1
 784.200195312 275.5 l 2
 743.599609375 313.299804688 701.900390625 333.200195312 640.299804688 344.299804688 c 2
 620.599609375 347.799804688 l 1
 641.799804688 465.900390625 l 1
569.599609375 780.400390625 m 1
 569.5 780.5 l 1
 686.900390625 757 780.099609375 670.900390625 812.700195312 555.700195312 c 2
 818.200195312 536.5 l 1
 696.700195312 502.099609375 l 1
 691.299804688 521.400390625 l 2
 677.400390625 570.5 645.299804688 611.299804688 600.700195312 636.200195312 c 0
 556.099609375 661.099609375 504.5 667.200195312 455.400390625 653.299804688 c 0
 389.700195312 634.700195312 338.700195312 581.799804688 322.200195312 515.200195312 c 0
 302.900390625 409.799804688 291.799804688 321.099609375 285.700195312 221.299804688 c 1
 361.299804688 295.900390625 445.5 331 547.200195312 331 c 0
 600.799804688 331 652.900390625 321.099609375 701.900390625 301.599609375 c 0
 711.700195312 297.900390625 721.299804688 293.599609375 730.099609375 288.700195312 c 2
 730.200195312 288.700195312 l 2
 730.599609375 288.5 731 288.200195312 731.400390625 288 c 0
 824.599609375 236.599609375 867 122.700195312 830.099609375 22.7001953125 c 0
 810 -31.7998046875 769.900390625 -75.2001953125 717.200195312 -99.5 c 0
 688.200195312 -112.900390625 657.400390625 -119.599609375 626.400390625 -119.599609375 c 0
 600.900390625 -119.599609375 575.5 -115.099609375 550.900390625 -106 c 0
 533.700195312 -99.7001953125 517.200195312 -91.099609375 501.900390625 -80.5 c 2
 485.5 -69.099609375 l 1
 555.5 31.2998046875 l 1
 571.900390625 19.900390625 l 2
 614.900390625 -10.099609375 674.200195312 0.5 704.200195312 43.5 c 0
 718.700195312 64.2998046875 724.299804688 89.5 719.799804688 114.5 c 0
 715.299804688 139.5 701.400390625 161.200195312 680.599609375 175.700195312 c 0
 679 176.700195312 677.400390625 177.799804688 675.700195312 178.799804688 c 0
 532.799804688 247.900390625 376.900390625 190.700195312 304.599609375 42.599609375 c 0
 285.099609375 2.599609375 274.799804688 -42.099609375 274.799804688 -86.5 c 2
 274.799804688 -106.5 l 1
 151.900390625 -106.5 l 1
 151.900390625 -83.900390625 l 2
 151.900390625 101.599609375 157.5 304.400390625 197.799804688 530.700195312 c 0
 214.5 614.299804688 262.099609375 686.099609375 332.099609375 733.099609375 c 0
 402.200195312 780.200195312 486.5 797 569.599609375 780.400390625 c 1
EndSplineSet
EndChar

StartChar: uniE141
Encoding: 57665 57665 48
Width: 1000
HStem: -120.5 123<174.446 292.787> -112.6 135.399<573.519 796.069> 191.1 123.2<174.446 288.087> 255.9 122.1<613.4 837.3>
VStem: 16.7998 123<37.1465 156.553> 288.7 126<307.4 570.525>
LayerCount: 2
Fore
SplineSet
867.6796875 541.978515625 m 5x0c
 826.569335938 762.072265625 l 5
 946.59375 784.491210938 l 5
 987.703125 564.397460938 l 5
 867.6796875 541.978515625 l 5x0c
613.400390625 255.900390625 m 1x1c
 613.400390625 378 l 1
 837.299804688 378 l 1
 837.299804688 255.900390625 l 1
 613.400390625 255.900390625 l 1x1c
853.200195312 553.5 m 1
 858.599609375 534.299804688 l 1
 737.099609375 499.900390625 l 1
 731.700195312 519.200195312 l 2
 701 627.799804688 622.099609375 678.299804688 525.799804688 651.099609375 c 0
 429.900390625 624.099609375 415 526.700195312 414.700195312 471.099609375 c 2
 414.700195312 274.200195312 l 2
 425.599609375 120 537.299804688 18.900390625 693.5 22.7998046875 c 0
 767.200195312 24.7001953125 836.900390625 54 889.799804688 105.200195312 c 2
 904.200195312 119.099609375 l 1
 991.599609375 29.099609375 l 1
 977.200195312 15.2001953125 l 2
 895.900390625 -63.599609375 794.200195312 -109 690.799804688 -112.599609375 c 0x6c
 591.599609375 -116.099609375 497.099609375 -80.400390625 422.599609375 -11.599609375 c 1
 384.200195312 -78.599609375 313.099609375 -120.5 234.200195312 -120.5 c 0
 114.299804688 -120.5 16.7998046875 -23 16.7998046875 96.900390625 c 0
 16.7998046875 216.799804688 114.299804688 314.299804688 234.200195312 314.299804688 c 0xac
 252.799804688 314.299804688 271 312 288.700195312 307.400390625 c 1
 289.400390625 475.099609375 l 2
 294.099609375 655.599609375 411.099609375 782.700195312 574.099609375 784.5 c 0
 575.400390625 784.5 576.599609375 784.5 577.900390625 784.5 c 0
 711.400390625 784.5 811.599609375 700.5 853.200195312 553.5 c 1
234.099609375 2.5 m 0xac
 286.099609375 2.5 328.400390625 44.7998046875 328.400390625 96.7998046875 c 0
 328.400390625 108.900390625 326.200195312 120.5 321.799804688 131.299804688 c 0
 321.099609375 133.099609375 320.700195312 134.099609375 320.299804688 135 c 0
 305.200195312 169.099609375 271.400390625 191.099609375 234.099609375 191.099609375 c 0
 182.099609375 191.099609375 139.799804688 148.799804688 139.799804688 96.7998046875 c 0
 139.799804688 44.7998046875 182.099609375 2.5 234.099609375 2.5 c 0xac
EndSplineSet
EndChar

StartChar: uniE142
Encoding: 57666 57666 49
Width: 1000
HStem: -40.7002 123<320.643 443.373> 255.9 122.1<613.4 837.3> 270.9 123.1<320.89 443.373>
VStem: 151.9 122.899<-106.5 -24.6762> 479.4 123.1<117.829 235.467>
LayerCount: 2
Fore
SplineSet
867.6796875 541.978515625 m 5x98
 826.569335938 762.072265625 l 5
 946.59375 784.491210938 l 5
 987.703125 564.397460938 l 5
 867.6796875 541.978515625 l 5x98
613.400390625 255.900390625 m 1xd8
 613.400390625 378 l 1
 837.299804688 378 l 1
 837.299804688 255.900390625 l 1
 613.400390625 255.900390625 l 1xd8
569.599609375 780.400390625 m 1
 569.5 780.400390625 l 1
 686.900390625 756.900390625 780.099609375 670.799804688 812.700195312 555.599609375 c 2
 818.200195312 536.400390625 l 1
 696.700195312 502 l 1
 691.299804688 521.299804688 l 2
 677.400390625 570.400390625 645.299804688 611.200195312 600.700195312 636.099609375 c 0
 556.099609375 661 504.5 667.099609375 455.400390625 653.200195312 c 0
 389.900390625 634.700195312 338.900390625 581.900390625 322.299804688 515.400390625 c 2
 318.200195312 492.900390625 l 2
 310.599609375 451.799804688 304.299804688 417.400390625 299.099609375 377 c 1
 325.5 387.5 356.099609375 394 382.5 394 c 0xb8
 503.799804688 394 602.5 296.599609375 602.5 176.700195312 c 0
 602.5 56.7998046875 503.799804688 -40.7001953125 382.5 -40.7001953125 c 0
 341 -40.7001953125 306.599609375 -33.2001953125 276.799804688 -17.400390625 c 1
 275.700195312 -40.5 274.799804688 -62.7001953125 274.799804688 -86.5 c 2
 274.799804688 -106.5 l 1
 151.900390625 -106.5 l 1
 151.900390625 -86.5 l 2
 151.900390625 100 157.5 303.799804688 197.799804688 530.700195312 c 0
 214.5 614.299804688 262.099609375 686.099609375 332.099609375 733.099609375 c 0
 402.200195312 780.200195312 486.5 797 569.599609375 780.400390625 c 1
382.5 270.900390625 m 0
 329.099609375 270.900390625 285.599609375 228.599609375 285.599609375 176.599609375 c 0
 285.599609375 124.599609375 329.099609375 82.2998046875 382.5 82.2998046875 c 0
 435.900390625 82.2998046875 479.400390625 124.599609375 479.400390625 176.599609375 c 0
 479.400390625 228.599609375 435.900390625 270.900390625 382.5 270.900390625 c 0
EndSplineSet
EndChar

StartChar: uniE143
Encoding: 57667 57667 50
Width: 1000
HStem: -113.1 125.699<400.298 585.177> 255.9 122.1<520.2 744.1>
VStem: 166.9 126<118.56 467.511> 768.5 124.2<-106.5 6 193.441 297.9>
LayerCount: 2
Fore
SplineSet
867.6796875 541.978515625 m 5
 826.569335938 762.072265625 l 5
 946.59375 784.491210938 l 5
 987.703125 564.397460938 l 5
 867.6796875 541.978515625 l 5
520.200195312 255.900390625 m 1
 520.200195312 378 l 1
 744.099609375 378 l 1
 744.099609375 255.900390625 l 1
 520.200195312 255.900390625 l 1
480.700195312 12.599609375 m 1
 480.599609375 12.599609375 l 1
 638.400390625 14.900390625 764.599609375 140 768.400390625 297.900390625 c 1
 892.700195312 297.900390625 l 1
 892.700195312 -106.5 l 1
 768.5 -106.5 l 1
 768.5 6 l 1
 691.200195312 -69.7998046875 587.900390625 -112.700195312 477.799804688 -113.099609375 c 0
 304.200195312 -109.299804688 167.900390625 29.5 166.900390625 202.900390625 c 0
 166.900390625 310.700195312 175.900390625 405.599609375 197.799804688 530.599609375 c 0
 214.5 614.200195312 262.099609375 686 332.099609375 733 c 0
 402.200195312 780.099609375 486.5 796.900390625 569.599609375 780.299804688 c 0
 687 756.799804688 780.200195312 670.700195312 812.799804688 555.5 c 2
 818.299804688 536.299804688 l 1
 696.799804688 501.900390625 l 1
 691.400390625 521.200195312 l 2
 677.5 570.299804688 645.400390625 611.099609375 600.799804688 636 c 0
 556.200195312 660.900390625 504.599609375 667 455.5 653.099609375 c 0
 389.900390625 634.599609375 339 581.599609375 322.5 514.799804688 c 0
 301.799804688 399.200195312 293.200195312 310.400390625 292.900390625 208.700195312 c 0
 291.099609375 105.599609375 373.700195312 17.7001953125 477.099609375 12.599609375 c 2
 480.700195312 12.599609375 l 1
EndSplineSet
EndChar

StartChar: uniE144
Encoding: 57668 57668 51
Width: 1000
HStem: -119.7 123.2<566.547 685.954> 191.9 138.899<566.25 679.537> 396.7 122.1<102.7 175.5 319.6 897.3>
VStem: 152 122.9<-106.5 18.8464> 192.5 127.1<518.8 626.958> 408.9 123<38.0464 157.715> 720.5 123.2<38.0375 156.821>
LayerCount: 2
Fore
SplineSet
256.299804688 795.799804688 m 2xee
 256.299804688 795.900390625 l 1
 376.200195312 759.099609375 l 1
 353.299804688 684.400390625 334.299804688 603.700195312 319.599609375 518.799804688 c 1xee
 897.299804688 518.799804688 l 1
 897.299804688 396.700195312 l 1
 301.700195312 396.700195312 l 1
 294.799804688 339.900390625 289.400390625 280.5 285.700195312 219.5 c 1
 363.799804688 294.299804688 449.799804688 330.799804688 547.299804688 330.799804688 c 0
 597.200195312 330.799804688 646.200195312 321.900390625 693.200195312 304.400390625 c 0
 705.5 300.400390625 718.400390625 294.900390625 730.5 288.299804688 c 0
 800.5 249.700195312 843.599609375 176.799804688 843.700195312 97.7001953125 c 0
 843.700195312 -22.2001953125 746.200195312 -119.700195312 626.299804688 -119.700195312 c 0
 506.400390625 -119.700195312 408.900390625 -22.2001953125 408.900390625 97.7001953125 c 0
 408.900390625 126.299804688 414.400390625 154.099609375 425 180 c 1
 376 154.400390625 337.799804688 110.299804688 304.700195312 42.5 c 0
 290.700195312 14 281.599609375 -16.599609375 277.400390625 -48.2998046875 c 0
 275.700195312 -59.599609375 274.900390625 -70.7998046875 274.900390625 -83.900390625 c 2
 274.900390625 -106.5 l 1
 152 -106.5 l 1
 152 -83.900390625 l 2xf6
 152 105.200195312 159.5 258.700195312 175.5 396.700195312 c 1
 102.700195312 396.700195312 l 1
 102.700195312 518.799804688 l 1
 192.5 518.799804688 l 1
 208.700195312 617.799804688 229.599609375 708.599609375 256.299804688 795.799804688 c 2xee
626.200195312 191.900390625 m 1
 626.200195312 192 l 1
 574.200195312 192 531.900390625 149.799804688 531.900390625 97.7998046875 c 0
 531.900390625 45.7998046875 574.200195312 3.5 626.200195312 3.5 c 0
 678.200195312 3.5 720.5 45.7998046875 720.5 97.7001953125 c 0
 720.5 133 701 165 669.700195312 181.299804688 c 0
 665.700195312 183.099609375 661 185.200195312 656.299804688 187 c 0
 647.200195312 190.200195312 636.799804688 191.900390625 626.200195312 191.900390625 c 1
EndSplineSet
EndChar

StartChar: uniE145
Encoding: 57669 57669 52
Width: 1000
HStem: -119.6 123.899<563.131 688.328> 396.9 122.1<102.7 175.4 319.1 897.5>
VStem: 152 122.9<-106.5 19.9203>
LayerCount: 2
Fore
SplineSet
192.5 518.799804688 m 1
 192.400390625 518.799804688 l 1
 208.599609375 617.799804688 229.599609375 708.599609375 256.299804688 795.900390625 c 1
 376.099609375 759.299804688 l 1
 352.5 682.200195312 333.799804688 603.299804688 319.099609375 519 c 1
 897.5 519 l 1
 897.5 396.900390625 l 1
 301.400390625 396.900390625 l 1
 294.599609375 340.400390625 289.5 282.400390625 285.900390625 221.200195312 c 1
 361.5 295.900390625 445.799804688 331 547.5 331 c 0
 601.099609375 331 653.200195312 321.099609375 702.200195312 301.599609375 c 0
 712 297.900390625 721.599609375 293.599609375 730.400390625 288.700195312 c 1
 730.799804688 288.5 731.200195312 288.200195312 731.599609375 288 c 0
 824.700195312 236.599609375 867.200195312 122.700195312 830.299804688 22.7001953125 c 0
 810.200195312 -31.7998046875 770.099609375 -75.2001953125 717.400390625 -99.5 c 0
 688.400390625 -112.900390625 657.599609375 -119.599609375 626.599609375 -119.599609375 c 0
 601.099609375 -119.599609375 575.700195312 -115.099609375 551.099609375 -106 c 0
 533.900390625 -99.7001953125 517.400390625 -91.099609375 502.099609375 -80.5 c 2
 485.700195312 -69.099609375 l 1
 555.700195312 31.2998046875 l 1
 572.099609375 19.900390625 l 2
 592.900390625 5.400390625 618.099609375 -0.2001953125 643.099609375 4.2998046875 c 0
 668.099609375 8.7998046875 689.799804688 22.7001953125 704.299804688 43.5 c 0
 718.799804688 64.2998046875 724.400390625 89.5 719.900390625 114.5 c 0
 715.400390625 139.5 701.5 161.200195312 680.700195312 175.700195312 c 0
 679.099609375 176.700195312 677.5 177.799804688 675.799804688 178.799804688 c 0
 533 247.900390625 377 190.700195312 304.700195312 42.599609375 c 0
 285.200195312 2.599609375 274.900390625 -42.099609375 274.900390625 -86.5 c 2
 274.900390625 -106.5 l 1
 152 -106.5 l 1
 152 -83.900390625 l 2
 152 108.299804688 159.299804688 257.799804688 175.400390625 396.700195312 c 1
 102.700195312 396.700195312 l 1
 102.700195312 518.799804688 l 1
 192.5 518.799804688 l 1
EndSplineSet
EndChar

StartChar: uniE146
Encoding: 57670 57670 53
Width: 1000
HStem: -120.5 123<174.446 292.787> -112.6 135.399<573.431 796.069> 191.1 123.2<174.446 288.087> 396.8 122.101<102.7 289 414.7 897.3>
VStem: 16.7998 123<37.1465 156.553> 289.5 125.2<307.4 396.7 518.9 773.2>
LayerCount: 2
Fore
SplineSet
289.5 518.799804688 m 1xbc
 290.5 773.200195312 l 1
 414.700195312 773.200195312 l 1
 414.700195312 518.900390625 l 1
 897.299804688 518.900390625 l 1
 897.299804688 396.799804688 l 1
 414.700195312 396.799804688 l 1
 414.700195312 274.200195312 l 2
 425.599609375 120 537.099609375 18.900390625 693.5 22.7998046875 c 0
 767.200195312 24.7001953125 836.900390625 54 889.799804688 105.200195312 c 2
 904.200195312 119.099609375 l 1
 991.599609375 29.099609375 l 1
 977.200195312 15.2001953125 l 2
 895.900390625 -63.599609375 794.200195312 -109 690.799804688 -112.599609375 c 0x7c
 591.700195312 -116.200195312 497.099609375 -80.400390625 422.599609375 -11.599609375 c 1
 384.200195312 -78.599609375 313.099609375 -120.5 234.200195312 -120.5 c 0
 114.299804688 -120.5 16.7998046875 -23 16.7998046875 96.900390625 c 0
 16.7998046875 216.799804688 114.299804688 314.299804688 234.200195312 314.299804688 c 0
 252.799804688 314.299804688 271 312 288.700195312 307.400390625 c 1
 289 396.700195312 l 1
 102.700195312 396.700195312 l 1
 102.700195312 518.799804688 l 1
 289.5 518.799804688 l 1xbc
321.799804688 131.400390625 m 1
 321.799804688 131.299804688 l 1
 321.099609375 133.099609375 320.700195312 134.099609375 320.299804688 135 c 0
 305.200195312 169.099609375 271.400390625 191.099609375 234.099609375 191.099609375 c 0
 182.099609375 191.099609375 139.799804688 148.799804688 139.799804688 96.7998046875 c 0
 139.799804688 44.7998046875 182.099609375 2.5 234.099609375 2.5 c 0xbc
 286.099609375 2.5 328.400390625 44.7998046875 328.400390625 96.7998046875 c 0
 328.400390625 109 326.200195312 120.599609375 321.799804688 131.400390625 c 1
EndSplineSet
EndChar

StartChar: uniE147
Encoding: 57671 57671 54
Width: 1000
HStem: -40.7002 122.9<320.693 443.423> 270.8 123.2<320.871 443.423> 396.7 122.1<102.7 175.5 319.2 897.4>
VStem: 152 122.9<-106.5 -17.4004> 192.5 126.7<518.8 627.013> 479.4 123.199<117.779 235.417>
LayerCount: 2
Fore
SplineSet
256.299804688 795.799804688 m 2xec
 256.299804688 795.900390625 l 1
 376.200195312 759.099609375 l 1
 352.700195312 682.5 334 603.599609375 319.200195312 518.799804688 c 1xec
 897.400390625 518.799804688 l 1
 897.400390625 396.700195312 l 1
 301.400390625 396.700195312 l 2
 300.5 389.900390625 299.700195312 383.299804688 299 376.900390625 c 1
 325.5 387.5 356.099609375 394 382.599609375 394 c 0
 503.900390625 394 602.599609375 296.599609375 602.599609375 176.700195312 c 0
 602.599609375 56.7998046875 503.900390625 -40.7001953125 382.599609375 -40.7001953125 c 0
 341.099609375 -40.7001953125 306.700195312 -33.2001953125 276.900390625 -17.400390625 c 1
 275.799804688 -40.5 274.900390625 -62.7001953125 274.900390625 -86.5 c 2
 274.900390625 -106.5 l 1
 152 -106.5 l 1
 152 -86.5 l 2xf4
 152 103.799804688 159.5 258.099609375 175.5 396.700195312 c 1
 102.700195312 396.700195312 l 1
 102.700195312 518.799804688 l 1
 192.5 518.799804688 l 1
 208.700195312 617.900390625 229.599609375 708.700195312 256.299804688 795.799804688 c 2xec
382.5 270.799804688 m 0
 329.099609375 270.799804688 285.599609375 228.5 285.599609375 176.5 c 0
 285.599609375 124.5 329.099609375 82.2001953125 382.5 82.2001953125 c 0
 435.900390625 82.2001953125 479.400390625 124.5 479.400390625 176.5 c 0
 479.400390625 228.5 435.900390625 270.799804688 382.5 270.799804688 c 0
EndSplineSet
EndChar

StartChar: uniE148
Encoding: 57672 57672 55
Width: 1000
HStem: -132.7 430.601<768.7 867.4> -113 125.6<400.38 585.572> 396.7 122.1<102.7 176.4 319.6 897.4>
VStem: 167 125.9<118.56 393.676>
LayerCount: 2
Fore
SplineSet
480.799804688 12.599609375 m 1x70
 480.900390625 12.599609375 l 2x70
 638.900390625 14.7998046875 765 139.900390625 768.700195312 297.900390625 c 1
 894.299804688 297.900390625 l 1
 894.299804688 297.599609375 l 2
 894.099609375 289.599609375 893.799804688 282 893.299804688 274.799804688 c 0
 981.599609375 220.599609375 1020.79980469 109.700195312 984.5 11.099609375 c 0
 951.700195312 -77.7001953125 867.400390625 -132.700195312 777.900390625 -132.700195312 c 0xb0
 752.599609375 -132.700195312 727 -128.299804688 701.900390625 -119 c 0
 678 -110.200195312 656.099609375 -97.5 636.700195312 -81.2001953125 c 0
 586.299804688 -102.099609375 533 -112.799804688 478 -113 c 0
 304.299804688 -109.200195312 168 29.5 167 203.099609375 c 1
 167 267.200195312 170.200195312 332.200195312 176.400390625 396.700195312 c 1
 102.700195312 396.700195312 l 1
 102.700195312 518.799804688 l 1
 191.900390625 518.799804688 l 1
 206.799804688 612.400390625 228.400390625 705.599609375 256.299804688 795.900390625 c 1
 376.700195312 759 l 1
 376.700195312 758.799804688 l 2
 352.599609375 680.700195312 333.400390625 600 319.599609375 518.799804688 c 1
 897.400390625 518.799804688 l 1
 897.400390625 396.700195312 l 1
 302.900390625 396.700195312 l 1
 296.5 334.299804688 293.099609375 271.099609375 292.900390625 208.700195312 c 0
 291.099609375 105.599609375 373.799804688 17.7001953125 477.200195312 12.599609375 c 2
 480.799804688 12.599609375 l 1x70
873.700195312 77.2001953125 m 2
 873.700195312 77.2998046875 l 2
 876 98.900390625 871 120.200195312 859.599609375 138.400390625 c 1
 835.700195312 83.2001953125 800.200195312 34.099609375 755.299804688 -6.099609375 c 1
 784 -12.900390625 814.900390625 -6.5 838.5 12.599609375 c 0
 858.5 28.7001953125 871 51.599609375 873.700195312 77.2001953125 c 2
EndSplineSet
EndChar

StartChar: uniE149
Encoding: 57673 57673 56
Width: 1000
HStem: -113 198.3<423.025 632.638> 396.7 122.1<102.7 176.4 319.6 597.4 616.2 897.4>
VStem: 167 125.8<116.928 393.695> 389.5 123.1<119.888 238.496> 701.2 191.6<119.65 239.55> 768.6 124.2<-111.6 8.59961>
LayerCount: 2
Fore
SplineSet
191.900390625 518.799804688 m 1xf4
 206.799804688 612.5 228.400390625 705.700195312 256.299804688 795.900390625 c 1
 376.700195312 759 l 1
 376.700195312 758.799804688 l 2
 352.599609375 680.599609375 333.400390625 600 319.599609375 518.799804688 c 1
 897.400390625 518.799804688 l 1
 897.400390625 396.700195312 l 1
 616.200195312 396.700195312 l 1
 684 393.700195312 747.900390625 356.900390625 787.400390625 299.400390625 c 1
 892.799804688 299.400390625 l 1
 892.799804688 -111.599609375 l 1
 768.599609375 -111.599609375 l 1
 768.599609375 8.599609375 l 1
 691.099609375 -68.7998046875 586.900390625 -112.599609375 475.400390625 -113 c 0
 299.099609375 -109.099609375 163.900390625 33.099609375 167 210.700195312 c 0
 167.200195312 272 170.400390625 334.5 176.400390625 396.700195312 c 1
 102.700195312 396.700195312 l 1
 102.700195312 518.799804688 l 1
 191.900390625 518.799804688 l 1xf4
701.200195312 179.599609375 m 0xf8
 701.200195312 231.599609375 658.900390625 273.900390625 606.900390625 273.900390625 c 0
 554.900390625 273.900390625 512.599609375 231.599609375 512.599609375 179.599609375 c 0
 512.599609375 127.599609375 554.900390625 85.2998046875 606.900390625 85.2998046875 c 0
 658.900390625 85.2998046875 701.200195312 127.599609375 701.200195312 179.599609375 c 0xf8
302.799804688 396.700195312 m 1
 296.099609375 332.599609375 292.799804688 267.599609375 292.799804688 203.200195312 c 0
 293.599609375 104 369.400390625 21.900390625 466.700195312 13.2001953125 c 1
 418.5 53.7998046875 389.5 114.099609375 389.5 179.5 c 0
 389.5 296.200195312 481.900390625 391.700195312 597.400390625 396.700195312 c 1
 302.799804688 396.700195312 l 1
EndSplineSet
EndChar

StartChar: uniE14A
Encoding: 57674 57674 57
Width: 1000
HStem: -113 125.6<400.298 585.277> 396.7 122.1<102.7 176.4 319.6 897.4>
VStem: 167 125.9<118.56 393.676> 768.6 124.2<-106.4 6.09961 193.441 297.9>
LayerCount: 2
Fore
SplineSet
480.700195312 12.599609375 m 2
 638.5 14.900390625 764.700195312 140 768.5 297.900390625 c 1
 892.799804688 297.900390625 l 1
 892.799804688 -106.400390625 l 1
 768.599609375 -106.400390625 l 1
 768.599609375 6.099609375 l 1
 691.299804688 -69.7001953125 588 -112.599609375 477.900390625 -113 c 0
 304.299804688 -109.299804688 168 29.5 167 203.099609375 c 1
 167 267.200195312 170.200195312 332.200195312 176.400390625 396.700195312 c 1
 102.700195312 396.700195312 l 1
 102.700195312 518.799804688 l 1
 191.900390625 518.799804688 l 1
 206.799804688 612.400390625 228.400390625 705.599609375 256.299804688 795.900390625 c 1
 376.700195312 759 l 1
 376.700195312 758.799804688 l 2
 352.599609375 680.599609375 333.400390625 600 319.599609375 518.799804688 c 1
 897.400390625 518.799804688 l 1
 897.400390625 396.700195312 l 1
 302.900390625 396.700195312 l 1
 296.5 334.299804688 293.099609375 271.200195312 292.900390625 208.700195312 c 0
 291.099609375 105.599609375 373.700195312 17.7001953125 477.099609375 12.599609375 c 2
 480.700195312 12.599609375 l 2
EndSplineSet
EndChar

StartChar: uniE14B
Encoding: 57675 57675 58
Width: 1000
HStem: -113.4 126.601<399.245 497.405> 284.4 234.5<573.515 689.886> 396.7 122.2<102.7 176.4 319.5 564.5 698.6 897.3>
VStem: 167 125.7<121.464 393.676> 414.1 123.301<126.835 249.014> 726 123<125.871 249.014> 866.2 126.899<-97.5 -19.3062>
LayerCount: 2
Fore
SplineSet
191.900390625 518.799804688 m 1xbe
 206.799804688 612.400390625 228.400390625 705.599609375 256.299804688 795.900390625 c 1
 376.700195312 759.099609375 l 1
 376.700195312 758.900390625 l 2
 352.5 680.700195312 333.299804688 600.099609375 319.5 518.900390625 c 1
 897.299804688 518.900390625 l 1
 897.299804688 396.799804688 l 1
 698.599609375 396.799804688 l 1
 785.799804688 368.099609375 849 285.099609375 849 187.5 c 0
 849 165.700195312 845.900390625 144.400390625 839.799804688 123.900390625 c 1
 889.700195312 110.900390625 932.900390625 81.099609375 963 38.2998046875 c 0
 990.599609375 -0.7998046875 993 -37.2998046875 993.099609375 -77.5 c 2
 993.099609375 -97.5 l 1
 866.200195312 -97.7998046875 l 1
 866.200195312 -77.7998046875 l 2
 866.099609375 -27.2998046875 834.700195312 4 784.200195312 4 c 2
 784 4 l 2
 764.099609375 3.900390625 745.200195312 -1.7998046875 730.599609375 -12.099609375 c 2
 654.700195312 -65.2001953125 l 2
 602.400390625 -97.7998046875 544.200195312 -113.400390625 486.599609375 -113.400390625 c 0
 386.200195312 -113.400390625 287.700195312 -66.099609375 226 21.599609375 c 0
 187.799804688 75.900390625 167.400390625 138.599609375 167 203 c 0
 167 267.200195312 170.200195312 332.200195312 176.400390625 396.700195312 c 1
 102.700195312 396.700195312 l 1
 102.700195312 518.799804688 l 1
 191.900390625 518.799804688 l 1xbe
631.700195312 284.299804688 m 1
 631.700195312 284.400390625 l 1xde
 579.700195312 284.400390625 537.400390625 240.900390625 537.400390625 187.5 c 0
 537.400390625 134.099609375 579.700195312 90.599609375 631.700195312 90.599609375 c 0
 644.900390625 90.599609375 657.5 93.2998046875 669.400390625 98.599609375 c 0
 674.400390625 101.700195312 679.200195312 104.400390625 684.099609375 106.900390625 c 0
 710.400390625 125 726 155 726 187.400390625 c 0
 726 240.799804688 683.700195312 284.299804688 631.700195312 284.299804688 c 1
302.799804688 396.700195312 m 1xbe
 302.700195312 396.599609375 l 2
 296.5 336.200195312 293.099609375 275.299804688 292.700195312 215.299804688 c 0
 290.900390625 107 371.700195312 18.2998046875 476.700195312 13.2001953125 c 0
 484 12.900390625 491.200195312 12.900390625 498.400390625 13.400390625 c 1
 446 54.5 414.099609375 118.400390625 414.099609375 187.400390625 c 0
 414.099609375 285 477.299804688 368 564.5 396.700195312 c 1
 302.799804688 396.700195312 l 1xbe
EndSplineSet
EndChar

StartChar: uniE14C
Encoding: 57676 57676 59
Width: 1000
HStem: -119.6 123.899<563.131 688.328> 62.2002 114<883.182 972.818> 201 114<836.182 925.818> 396.9 122.1<102.7 175.4 319.1 897.4>
VStem: 152 122.9<-106.5 19.9203> 824 114<213.182 302.818> 871 114<74.3514 164.049>
LayerCount: 2
Fore
SplineSet
192.5 518.799804688 m 1xf8
 192.400390625 518.799804688 l 1
 208.599609375 617.799804688 229.599609375 708.599609375 256.299804688 795.900390625 c 1
 376.099609375 759.299804688 l 1
 352.5 682.200195312 333.799804688 603.299804688 319.099609375 519 c 1
 897.400390625 519 l 1
 897.400390625 396.900390625 l 1
 301.299804688 396.900390625 l 1
 294.5 340.400390625 289.400390625 282.400390625 285.799804688 221.200195312 c 1
 361.400390625 295.900390625 445.700195312 331 547.400390625 331 c 0
 601 331 653.099609375 321.099609375 702.099609375 301.599609375 c 0
 711.900390625 297.900390625 721.5 293.599609375 730.299804688 288.700195312 c 2
 730.400390625 288.700195312 l 2
 730.799804688 288.5 731.200195312 288.200195312 731.599609375 288 c 0
 824.799804688 236.599609375 867.200195312 122.700195312 830.299804688 22.7001953125 c 0
 810.200195312 -31.7998046875 770.099609375 -75.2001953125 717.400390625 -99.5 c 0
 688.400390625 -112.900390625 657.599609375 -119.599609375 626.599609375 -119.599609375 c 0
 601.099609375 -119.599609375 575.700195312 -115.099609375 551.099609375 -106 c 0
 533.900390625 -99.7001953125 517.400390625 -91.099609375 502.099609375 -80.5 c 2
 485.700195312 -69.099609375 l 1
 555.700195312 31.2998046875 l 1
 572.099609375 19.900390625 l 2
 592.900390625 5.400390625 618.099609375 -0.2001953125 643.099609375 4.2998046875 c 0
 668.099609375 8.7998046875 689.799804688 22.7001953125 704.299804688 43.5 c 0
 718.799804688 64.2998046875 724.400390625 89.5 719.900390625 114.5 c 0
 715.400390625 139.5 701.5 161.200195312 680.700195312 175.700195312 c 0
 679.099609375 176.700195312 677.5 177.799804688 675.799804688 178.799804688 c 0
 532.900390625 247.900390625 377 190.700195312 304.700195312 42.599609375 c 0
 285.200195312 2.599609375 274.900390625 -42.099609375 274.900390625 -86.5 c 2
 274.900390625 -106.5 l 1
 152 -106.5 l 1
 152 -83.900390625 l 2
 152 108.299804688 159.299804688 257.799804688 175.400390625 396.700195312 c 1
 102.700195312 396.700195312 l 1
 102.700195312 518.799804688 l 1
 192.5 518.799804688 l 1xf8
938 258 m 0xfc
 938 226.599609375 912.5 201 881 201 c 0
 849.5 201 824 226.5 824 258 c 0
 824 289.5 849.599609375 315 881 315 c 0
 912.400390625 315 938 289.400390625 938 258 c 0xfc
928 176.200195312 m 0
 959.5 176.200195312 985 150.700195312 985 119.200195312 c 0
 985 87.7001953125 959.400390625 62.2001953125 928 62.2001953125 c 0
 896.599609375 62.2001953125 871 87.7001953125 871 119.200195312 c 0xfa
 871 150.700195312 896.599609375 176.200195312 928 176.200195312 c 0
EndSplineSet
EndChar

StartChar: uniE14D
Encoding: 57677 57677 60
Width: 1000
HStem: -111.6 124.199<597.5 875.3> 252.7 123.1<373.413 495.122> 396.7 122.1<102.7 176.4 319.7 897.3>
VStem: 167 170.3<101.816 216.269> 176.4 120.699<329.629 396.7> 531.1 123.2<99.4298 217.221>
LayerCount: 2
Fore
SplineSet
191.900390625 518.799804688 m 1xec
 206.799804688 612.5 228.400390625 705.700195312 256.299804688 795.900390625 c 1
 376.599609375 759 l 1
 376.599609375 758.799804688 l 2
 352.700195312 681.299804688 333.599609375 600.700195312 319.700195312 518.799804688 c 1
 897.299804688 518.799804688 l 1
 897.299804688 396.700195312 l 1
 303 396.700195312 l 2
 300.599609375 373.599609375 298.599609375 350.900390625 297.099609375 328.5 c 1xec
 335.599609375 359 383.400390625 375.799804688 434.299804688 375.799804688 c 0
 555.599609375 375.799804688 654.299804688 278.299804688 654.299804688 158.400390625 c 0
 654.299804688 103.700195312 633.700195312 52.099609375 597.5 12.599609375 c 1
 875.299804688 12.599609375 l 1
 875.299804688 -111.599609375 l 1
 478.400390625 -111.599609375 l 2
 303.5 -107.799804688 164 36.7001953125 167 210.5 c 0xf4
 167.200195312 272 170.400390625 334.599609375 176.400390625 396.700195312 c 1
 102.700195312 396.700195312 l 1
 102.700195312 518.799804688 l 1
 191.900390625 518.799804688 l 1xec
434.200195312 252.700195312 m 0
 380.799804688 252.700195312 337.299804688 210.400390625 337.299804688 158.400390625 c 0xf4
 337.299804688 106.400390625 380.799804688 64.099609375 434.200195312 64.099609375 c 0
 487.599609375 64.099609375 531.099609375 106.400390625 531.099609375 158.400390625 c 0
 531.099609375 210.400390625 487.599609375 252.700195312 434.200195312 252.700195312 c 0
EndSplineSet
EndChar

StartChar: uniE14E
Encoding: 57678 57678 61
Width: 1000
HStem: -111.6 124.199<597.5 875.3> 252.7 123.1<373.413 495.122> 259.8 114<634.982 724.618 791.782 881.418> 396.7 122.1<102.7 176.4 319.7 897.3>
VStem: 167 170.3<101.816 216.269> 176.4 120.699<329.629 396.7> 531.1 123.2<99.4298 217.221> 622.8 114<271.951 361.649> 779.6 114<271.951 361.649>
LayerCount: 2
Fore
SplineSet
191.900390625 518.799804688 m 1xd480
 206.799804688 612.5 228.400390625 705.700195312 256.299804688 795.900390625 c 1
 376.599609375 759 l 1
 376.599609375 758.799804688 l 2
 352.700195312 681.299804688 333.599609375 600.700195312 319.700195312 518.799804688 c 1
 897.299804688 518.799804688 l 1
 897.299804688 396.700195312 l 1
 303 396.700195312 l 2
 300.599609375 373.599609375 298.599609375 350.900390625 297.099609375 328.5 c 1xd480
 335.599609375 359 383.400390625 375.799804688 434.299804688 375.799804688 c 0
 555.599609375 375.799804688 654.299804688 278.299804688 654.299804688 158.400390625 c 0
 654.299804688 103.700195312 633.700195312 52.099609375 597.5 12.599609375 c 1
 875.299804688 12.599609375 l 1
 875.299804688 -111.599609375 l 1
 478.400390625 -111.599609375 l 2
 303.5 -107.799804688 164 36.7001953125 167 210.5 c 0xda80
 167.200195312 272 170.400390625 334.599609375 176.400390625 396.700195312 c 1
 102.700195312 396.700195312 l 1
 102.700195312 518.799804688 l 1
 191.900390625 518.799804688 l 1xd480
434.200195312 252.700195312 m 0
 380.799804688 252.700195312 337.299804688 210.400390625 337.299804688 158.400390625 c 0
 337.299804688 106.400390625 380.799804688 64.099609375 434.200195312 64.099609375 c 0
 487.599609375 64.099609375 531.099609375 106.400390625 531.099609375 158.400390625 c 0xda80
 531.099609375 210.400390625 487.599609375 252.700195312 434.200195312 252.700195312 c 0
679.799804688 259.799804688 m 0xb180
 648.400390625 259.799804688 622.799804688 285.299804688 622.799804688 316.799804688 c 0
 622.799804688 348.299804688 648.299804688 373.799804688 679.799804688 373.799804688 c 0
 711.299804688 373.799804688 736.799804688 348.299804688 736.799804688 316.799804688 c 0
 736.799804688 285.299804688 711.200195312 259.799804688 679.799804688 259.799804688 c 0xb180
836.599609375 259.799804688 m 0
 805.200195312 259.799804688 779.599609375 285.299804688 779.599609375 316.799804688 c 0
 779.599609375 348.299804688 805.099609375 373.799804688 836.599609375 373.799804688 c 0
 868.099609375 373.799804688 893.599609375 348.299804688 893.599609375 316.799804688 c 0
 893.599609375 285.299804688 868 259.799804688 836.599609375 259.799804688 c 0
EndSplineSet
EndChar

StartChar: uniE14F
Encoding: 57679 57679 62
Width: 1000
HStem: -122.7 122.9<195.296 314.357> -48.9004 124<714.752 807.624> 188.8 123.4<195.296 289.844> 266.6 124.5<689.982 807.256> 396.8 122.101<102.7 290.3 414.5 897.3>
VStem: 37.5996 123.101<34.9426 154.354> 290.3 124.2<309.3 396.7 518.9 773.2> 590.3 124.2<-117.3 -46.5> 842.9 124.199<110.446 231.474>
LayerCount: 2
Fore
SplineSet
290.299804688 518.799804688 m 1xaf80
 290.299804688 773.200195312 l 1
 414.5 773.200195312 l 1
 414.5 518.900390625 l 1
 897.299804688 518.900390625 l 1
 897.299804688 396.799804688 l 1
 414.5 396.799804688 l 1
 414.5 255.700195312 l 1
 527.900390625 190.200195312 l 1
 537.599609375 302.599609375 632.200195312 391.099609375 747.099609375 391.099609375 c 0
 868.400390625 391.099609375 967.099609375 292.400390625 967.099609375 171.099609375 c 0
 967.099609375 49.7998046875 868.400390625 -48.900390625 747.099609375 -48.900390625 c 0x5f80
 736.099609375 -48.900390625 725.200195312 -48.099609375 714.5 -46.5 c 1
 714.5 -117.299804688 l 1
 590.299804688 -117.299804688 l 1
 590.299804688 9.2001953125 l 1
 471.700195312 77.599609375 l 1
 463 -34.2998046875 374.900390625 -122.700195312 255 -122.700195312 c 0
 135.099609375 -122.700195312 37.599609375 -25.099609375 37.599609375 94.7998046875 c 0
 37.599609375 214.700195312 135.099609375 312.200195312 255 312.200195312 c 0
 266.799804688 312.200195312 278.599609375 311.200195312 290.299804688 309.299804688 c 1
 290.299804688 396.700195312 l 1
 102.700195312 396.700195312 l 1
 102.700195312 518.799804688 l 1
 290.299804688 518.799804688 l 1xaf80
747.099609375 266.599609375 m 2
 747 266.599609375 l 2
 694.200195312 266.599609375 651.200195312 223.599609375 651.200195312 170.799804688 c 0
 651.200195312 144.799804688 662 119.700195312 680.900390625 101.599609375 c 2
 720 79 l 2
 728.900390625 76.400390625 737.900390625 75.099609375 747.099609375 75.099609375 c 0
 799.900390625 75.099609375 842.900390625 118 842.900390625 170.799804688 c 0
 842.900390625 223.599609375 799.900390625 266.599609375 747.099609375 266.599609375 c 2
349.299804688 94.5 m 1
 349.299804688 94.400390625 l 1
 349.299804688 124.200195312 335.700195312 151.599609375 311.900390625 169.700195312 c 2
 291.599609375 181.400390625 l 2
 279.799804688 186.299804688 267.5 188.799804688 255 188.799804688 c 0
 203 188.799804688 160.700195312 146.5 160.700195312 94.5 c 0
 160.700195312 42.5 203 0.2001953125 255 0.2001953125 c 0xaf80
 307 0.2001953125 349.299804688 42.5 349.299804688 94.5 c 1
EndSplineSet
EndChar

StartChar: uniE150
Encoding: 57680 57680 63
Width: 1000
HStem: -119.7 123.2<566.547 685.954> 191.9 138.899<566.25 679.537> 396.7 122.1<102.7 175.5 319.6 897.3>
VStem: 152 122.9<-106.5 18.8464> 192.5 127.1<518.8 626.958> 408.9 123<38.0464 157.723> 720.5 123.2<38.0375 156.821> 868.7 119.899<85.9004 196.489>
LayerCount: 2
Fore
SplineSet
256.299804688 795.799804688 m 2xef
 256.299804688 795.900390625 l 1
 376.200195312 759.099609375 l 1
 353.299804688 684.5 334.299804688 603.700195312 319.599609375 518.799804688 c 1xef
 897.299804688 518.799804688 l 1
 897.299804688 396.700195312 l 1
 301.700195312 396.700195312 l 1
 294.799804688 339.900390625 289.400390625 280.5 285.700195312 219.5 c 1
 363.799804688 294.299804688 449.799804688 330.799804688 547.299804688 330.799804688 c 0
 597.200195312 330.799804688 646.200195312 321.900390625 693.200195312 304.400390625 c 0
 705.5 300.400390625 718.400390625 294.900390625 730.5 288.299804688 c 0
 800.5 249.700195312 843.599609375 176.799804688 843.700195312 97.7001953125 c 0
 843.700195312 -22.2001953125 746.200195312 -119.700195312 626.299804688 -119.700195312 c 0
 506.400390625 -119.700195312 408.900390625 -22.2001953125 408.900390625 97.7001953125 c 0
 408.900390625 126.400390625 414.400390625 154.099609375 425 180 c 1
 376 154.400390625 337.799804688 110.299804688 304.700195312 42.5 c 0
 290.700195312 14 281.5 -16.599609375 277.400390625 -48.2998046875 c 0
 275.700195312 -59.599609375 274.900390625 -70.7998046875 274.900390625 -83.900390625 c 2
 274.900390625 -106.5 l 1
 152 -106.5 l 1
 152 -83.900390625 l 2xf7
 152 105.200195312 159.5 258.700195312 175.5 396.700195312 c 1
 102.700195312 396.700195312 l 1
 102.700195312 518.799804688 l 1
 192.5 518.799804688 l 1
 208.700195312 617.799804688 229.599609375 708.599609375 256.299804688 795.799804688 c 2xef
626.200195312 191.900390625 m 1
 626.200195312 192 l 1
 574.200195312 192 531.900390625 149.799804688 531.900390625 97.7998046875 c 0
 531.900390625 45.7998046875 574.200195312 3.5 626.200195312 3.5 c 0
 678.200195312 3.5 720.5 45.7998046875 720.5 97.7001953125 c 0
 720.5 133 701 165 669.700195312 181.299804688 c 0
 665.700195312 183.099609375 661 185.200195312 656.299804688 187 c 0
 647.200195312 190.200195312 636.799804688 191.900390625 626.200195312 191.900390625 c 1
987.900390625 105.900390625 m 2
 988.599609375 85.900390625 l 1
 868.700195312 81.7001953125 l 1
 868 101.700195312 l 2
 866 157.099609375 850.599609375 200.700195312 814.900390625 252.099609375 c 2
 803.5 268.5 l 1
 902 337 l 1
 913.400390625 320.599609375 l 2
 962.200195312 250.5 985.099609375 184.299804688 987.900390625 105.900390625 c 2
EndSplineSet
EndChar

StartChar: uniE151
Encoding: 57681 57681 64
Width: 1000
HStem: 396.9 122.1<102.7 175.4 319.1 897.3>
VStem: 152 122.9<-106.5 19.9203> 868.7 119.899<85.9004 196.489>
LayerCount: 2
Fore
SplineSet
192.5 518.799804688 m 1
 192.400390625 518.799804688 l 1
 208.599609375 617.799804688 229.599609375 708.599609375 256.299804688 795.900390625 c 1
 376.099609375 759.299804688 l 1
 352.5 682.200195312 333.799804688 603.299804688 319.099609375 519 c 1
 897.299804688 519 l 1
 897.299804688 396.900390625 l 1
 301.200195312 396.900390625 l 1
 294.400390625 340.400390625 289.299804688 282.400390625 285.700195312 221.200195312 c 1
 361.299804688 295.900390625 445.599609375 331 547.299804688 331 c 0
 600.900390625 331 653 321.099609375 702 301.599609375 c 0
 711.799804688 297.900390625 721.400390625 293.599609375 730.200195312 288.700195312 c 2
 730.299804688 288.700195312 l 2
 730.700195312 288.5 731.099609375 288.200195312 731.5 288 c 0
 824.700195312 236.599609375 867.099609375 122.700195312 830.200195312 22.7001953125 c 0
 810.099609375 -31.7998046875 770 -75.2001953125 717.299804688 -99.5 c 0
 688.299804688 -112.900390625 657.5 -119.599609375 626.5 -119.599609375 c 0
 601 -119.599609375 575.599609375 -115.099609375 551 -106 c 0
 533.799804688 -99.7001953125 517.299804688 -91.099609375 502 -80.5 c 2
 485.599609375 -69.099609375 l 1
 555.599609375 31.2998046875 l 1
 572 19.900390625 l 2
 615 -10.099609375 674.299804688 0.5 704.299804688 43.5 c 0
 718.799804688 64.2998046875 724.400390625 89.5 719.900390625 114.5 c 0
 715.400390625 139.5 701.5 161.200195312 680.700195312 175.700195312 c 0
 679.099609375 176.700195312 677.5 177.799804688 675.799804688 178.799804688 c 0
 532.900390625 247.900390625 377 190.700195312 304.700195312 42.599609375 c 0
 285.200195312 2.599609375 274.900390625 -42.099609375 274.900390625 -86.5 c 2
 274.900390625 -106.5 l 1
 152 -106.5 l 1
 152 -83.900390625 l 2
 152 108.299804688 159.299804688 257.799804688 175.400390625 396.700195312 c 1
 102.700195312 396.700195312 l 1
 102.700195312 518.799804688 l 1
 192.5 518.799804688 l 1
987.900390625 105.900390625 m 2
 988.599609375 85.900390625 l 1
 868.700195312 81.7001953125 l 1
 868 101.700195312 l 2
 866 157.099609375 850.599609375 200.700195312 814.900390625 252.099609375 c 2
 803.5 268.5 l 1
 902 337 l 1
 913.400390625 320.599609375 l 2
 962.200195312 250.5 985.099609375 184.299804688 987.900390625 105.900390625 c 2
EndSplineSet
EndChar

StartChar: uniE152
Encoding: 57682 57682 65
Width: 1000
HStem: -120.5 123.1<174.446 292.787> -112.6 135.399<573.519 796.069> 191.2 123.1<174.446 288.087> 255.9 122.1<613.4 837.3> 396.8 122.101<102.7 289 414.7 897.3>
VStem: 16.7998 123<37.1966 156.604> 289.5 125.2<307.4 396.7 518.9 773.2>
LayerCount: 2
Fore
SplineSet
613.400390625 255.900390625 m 1x1e
 613.400390625 378 l 1
 837.299804688 378 l 1
 837.299804688 255.900390625 l 1
 613.400390625 255.900390625 l 1x1e
289.5 518.799804688 m 1
 290.5 773.200195312 l 1
 414.700195312 773.200195312 l 1
 414.700195312 518.900390625 l 1
 897.299804688 518.900390625 l 1
 897.299804688 396.799804688 l 1
 414.700195312 396.799804688 l 1
 414.700195312 274.200195312 l 2
 425.599609375 120 537.299804688 18.900390625 693.5 22.7998046875 c 0
 767.200195312 24.7001953125 836.900390625 54 889.799804688 105.200195312 c 2
 904.200195312 119.099609375 l 1
 991.599609375 29.099609375 l 1
 977.200195312 15.2001953125 l 2
 895.900390625 -63.599609375 794.200195312 -109 690.799804688 -112.599609375 c 0x6e
 591.599609375 -116.200195312 497.099609375 -80.400390625 422.599609375 -11.599609375 c 1
 384.200195312 -78.599609375 313.099609375 -120.5 234.200195312 -120.5 c 0
 114.299804688 -120.5 16.7998046875 -23 16.7998046875 96.900390625 c 0
 16.7998046875 216.799804688 114.299804688 314.299804688 234.200195312 314.299804688 c 0xae
 252.799804688 314.299804688 271 312 288.700195312 307.400390625 c 1
 289 396.700195312 l 1
 102.700195312 396.700195312 l 1
 102.700195312 518.799804688 l 1
 289.5 518.799804688 l 1
321.799804688 131.400390625 m 0
 321.099609375 133.200195312 320.700195312 134.200195312 320.299804688 135.099609375 c 0
 305.200195312 169.200195312 271.400390625 191.200195312 234.099609375 191.200195312 c 0
 182.099609375 191.200195312 139.799804688 148.900390625 139.799804688 96.900390625 c 0
 139.799804688 44.900390625 182.099609375 2.599609375 234.099609375 2.599609375 c 0xae
 286.099609375 2.599609375 328.400390625 44.900390625 328.400390625 96.900390625 c 0
 328.400390625 109 326.200195312 120.599609375 321.799804688 131.400390625 c 0
EndSplineSet
EndChar

StartChar: uniE153
Encoding: 57683 57683 66
Width: 1000
HStem: -40.7002 122.9<320.693 443.423> 255.9 122.1<613.4 837.3> 270.8 123.2<320.871 443.423> 396.7 122.1<102.7 175.5 319.2 897.4>
VStem: 152 122.9<-106.5 -17.4004> 192.5 126.7<518.8 627.013> 479.4 123.199<117.779 235.417>
LayerCount: 2
Fore
SplineSet
613.400390625 255.900390625 m 1xd2
 613.400390625 378 l 1
 837.299804688 378 l 1
 837.299804688 255.900390625 l 1
 613.400390625 255.900390625 l 1xd2
256.299804688 795.799804688 m 2
 256.299804688 795.900390625 l 1
 376.200195312 759.099609375 l 1
 352.700195312 682.5 334 603.599609375 319.200195312 518.799804688 c 1xb6
 897.400390625 518.799804688 l 1
 897.400390625 396.700195312 l 1
 301.400390625 396.700195312 l 2
 300.5 389.900390625 299.700195312 383.299804688 299 376.900390625 c 1
 325.5 387.5 356.099609375 394 382.599609375 394 c 0
 503.900390625 394 602.599609375 296.599609375 602.599609375 176.700195312 c 0
 602.599609375 56.7998046875 503.900390625 -40.7001953125 382.599609375 -40.7001953125 c 0
 341.099609375 -40.7001953125 306.700195312 -33.2001953125 276.900390625 -17.400390625 c 1
 275.799804688 -40.5 274.900390625 -62.7001953125 274.900390625 -86.5 c 2
 274.900390625 -106.5 l 1
 152 -106.5 l 1
 152 -86.5 l 2xba
 152 103.799804688 159.5 258.099609375 175.5 396.700195312 c 1
 102.700195312 396.700195312 l 1
 102.700195312 518.799804688 l 1
 192.5 518.799804688 l 1xb6
 208.700195312 617.900390625 229.599609375 708.700195312 256.299804688 795.799804688 c 2
382.5 270.799804688 m 0
 329.099609375 270.799804688 285.599609375 228.5 285.599609375 176.5 c 0
 285.599609375 124.5 329.099609375 82.2001953125 382.5 82.2001953125 c 0
 435.900390625 82.2001953125 479.400390625 124.5 479.400390625 176.5 c 0
 479.400390625 228.5 435.900390625 270.799804688 382.5 270.799804688 c 0
EndSplineSet
EndChar

StartChar: uniE154
Encoding: 57684 57684 67
Width: 1000
HStem: -113 125.6<400.298 585.277> 255.9 122.1<520.2 744.1> 396.7 122.1<102.7 176.4 319.6 897.4>
VStem: 167 125.9<118.56 393.676> 768.6 124.2<-106.4 6.09961 193.441 297.9>
LayerCount: 2
Fore
SplineSet
480.700195312 12.599609375 m 2
 638.5 14.900390625 764.700195312 140 768.5 297.900390625 c 1
 892.799804688 297.900390625 l 1
 892.799804688 -106.400390625 l 1
 768.599609375 -106.400390625 l 1
 768.599609375 6.099609375 l 1
 691.299804688 -69.7001953125 588 -112.599609375 477.900390625 -113 c 0
 304.299804688 -109.299804688 168 29.5 167 203.099609375 c 1
 167 267.200195312 170.200195312 332.200195312 176.400390625 396.700195312 c 1
 102.700195312 396.700195312 l 1
 102.700195312 518.799804688 l 1
 191.900390625 518.799804688 l 1
 206.799804688 612.400390625 228.400390625 705.599609375 256.299804688 795.900390625 c 1
 376.700195312 759 l 1
 376.700195312 758.799804688 l 2
 352.599609375 680.599609375 333.400390625 600 319.599609375 518.799804688 c 1
 897.400390625 518.799804688 l 1
 897.400390625 396.700195312 l 1
 302.900390625 396.700195312 l 1
 296.5 334.200195312 293.099609375 271.099609375 292.900390625 208.700195312 c 0
 291.099609375 105.599609375 373.700195312 17.7001953125 477.099609375 12.599609375 c 2
 480.700195312 12.599609375 l 2
520.200195312 255.900390625 m 1
 520.200195312 378 l 1
 744.099609375 378 l 1
 744.099609375 255.900390625 l 1
 520.200195312 255.900390625 l 1
EndSplineSet
EndChar

StartChar: uniE155
Encoding: 57685 57685 68
Width: 1000
Flags: W
HStem: -119.7 123.2<566.547 685.954> 191.9 138.899<566.25 679.537> 396.7 122.1<102.7 175.5 319.6 897.3> 546.7 89.2998<819.812 875.589> 696 89.5<819.796 875.589>
VStem: 152 122.9<-106.5 18.8464> 192.5 127.1<518.8 626.958> 408.9 123<38.0464 157.715> 720.5 123.2<38.0375 156.821> 728.3 89.4004<638.161 693.939> 877.7 89.3994<638.161 693.939>
LayerCount: 2
Fore
SplineSet
847.700195312 785.5 m 4xf960
 913.5 785.5 967.099609375 731.900390625 967.099609375 666.099609375 c 4
 967.099609375 600.299804688 913.5 546.700195312 847.700195312 546.700195312 c 4
 781.900390625 546.700195312 728.299804688 600.299804688 728.299804688 666.099609375 c 4
 728.299804688 731.900390625 781.799804688 785.5 847.700195312 785.5 c 4xf960
847.700195312 636 m 4
 864.200195312 636 877.700195312 649.5 877.700195312 666 c 4
 877.700195312 682.5 864.200195312 696 847.700195312 696 c 4
 831.200195312 696 817.700195312 682.5 817.700195312 666 c 4
 817.700195312 649.5 831.200195312 636 847.700195312 636 c 4
256.299804688 795.799804688 m 2
 256.299804688 795.900390625 l 1
 376.200195312 759.099609375 l 1
 353.299804688 684.400390625 334.299804688 603.700195312 319.599609375 518.799804688 c 1xfb20
 897.299804688 518.799804688 l 1
 897.299804688 396.700195312 l 1
 301.700195312 396.700195312 l 1
 294.799804688 339.900390625 289.400390625 280.5 285.700195312 219.5 c 1
 363.799804688 294.299804688 449.799804688 330.799804688 547.299804688 330.799804688 c 0
 597.200195312 330.799804688 646.200195312 321.900390625 693.200195312 304.400390625 c 0
 705.5 300.400390625 718.400390625 294.900390625 730.5 288.299804688 c 0
 800.5 249.700195312 843.599609375 176.799804688 843.700195312 97.7001953125 c 0
 843.700195312 -22.2001953125 746.200195312 -119.700195312 626.299804688 -119.700195312 c 0
 506.400390625 -119.700195312 408.900390625 -22.2001953125 408.900390625 97.7001953125 c 0
 408.900390625 126.299804688 414.400390625 154.099609375 425 180 c 1
 376 154.400390625 337.799804688 110.299804688 304.700195312 42.5 c 0
 290.700195312 14 281.599609375 -16.599609375 277.400390625 -48.2998046875 c 0
 275.700195312 -59.599609375 274.900390625 -70.7998046875 274.900390625 -83.900390625 c 2
 274.900390625 -106.5 l 1
 152 -106.5 l 1
 152 -83.900390625 l 2xfda0
 152 105.200195312 159.5 258.700195312 175.5 396.700195312 c 1
 102.700195312 396.700195312 l 1
 102.700195312 518.799804688 l 1
 192.5 518.799804688 l 1xfb20
 208.700195312 617.799804688 229.599609375 708.599609375 256.299804688 795.799804688 c 2
626.200195312 191.900390625 m 1
 626.200195312 192 l 1
 574.200195312 192 531.900390625 149.799804688 531.900390625 97.7998046875 c 0
 531.900390625 45.7998046875 574.200195312 3.5 626.200195312 3.5 c 0
 678.200195312 3.5 720.5 45.7998046875 720.5 97.7001953125 c 0xf9a0
 720.5 133 701 165 669.700195312 181.299804688 c 0
 665.700195312 183.099609375 661 185.200195312 656.299804688 187 c 0
 647.200195312 190.200195312 636.799804688 191.900390625 626.200195312 191.900390625 c 1
EndSplineSet
EndChar

StartChar: uniE156
Encoding: 57686 57686 69
Width: 1000
Flags: W
HStem: -119.6 123.899<563.131 688.328> 396.9 122.1<102.7 175.4 319.1 897.5> 546.7 89.2998<819.812 875.589> 696 89.5<819.796 875.589>
VStem: 152 122.9<-106.5 19.9203> 728.3 89.4004<638.161 693.939> 877.7 89.3994<638.161 693.939>
LayerCount: 2
Fore
SplineSet
847.700195312 785.5 m 4
 913.5 785.5 967.099609375 731.900390625 967.099609375 666.099609375 c 4
 967.099609375 600.299804688 913.5 546.700195312 847.700195312 546.700195312 c 4
 781.900390625 546.700195312 728.299804688 600.299804688 728.299804688 666.099609375 c 4
 728.299804688 731.900390625 781.799804688 785.5 847.700195312 785.5 c 4
847.700195312 636 m 4
 864.200195312 636 877.700195312 649.5 877.700195312 666 c 4
 877.700195312 682.5 864.200195312 696 847.700195312 696 c 4
 831.200195312 696 817.700195312 682.5 817.700195312 666 c 4
 817.700195312 649.5 831.200195312 636 847.700195312 636 c 4
192.5 518.799804688 m 1
 192.400390625 518.799804688 l 1
 208.599609375 617.799804688 229.599609375 708.599609375 256.299804688 795.900390625 c 1
 376.099609375 759.299804688 l 1
 352.5 682.200195312 333.799804688 603.299804688 319.099609375 519 c 1
 897.5 519 l 1
 897.5 396.900390625 l 1
 301.400390625 396.900390625 l 1
 294.599609375 340.400390625 289.5 282.400390625 285.900390625 221.200195312 c 1
 361.5 295.900390625 445.799804688 331 547.5 331 c 0
 601.099609375 331 653.200195312 321.099609375 702.200195312 301.599609375 c 0
 712 297.900390625 721.599609375 293.599609375 730.400390625 288.700195312 c 1
 730.799804688 288.5 731.200195312 288.200195312 731.599609375 288 c 0
 824.700195312 236.599609375 867.200195312 122.700195312 830.299804688 22.7001953125 c 0
 810.200195312 -31.7998046875 770.099609375 -75.2001953125 717.400390625 -99.5 c 0
 688.400390625 -112.900390625 657.599609375 -119.599609375 626.599609375 -119.599609375 c 0
 601.099609375 -119.599609375 575.700195312 -115.099609375 551.099609375 -106 c 0
 533.900390625 -99.7001953125 517.400390625 -91.099609375 502.099609375 -80.5 c 2
 485.700195312 -69.099609375 l 1
 555.700195312 31.2998046875 l 1
 572.099609375 19.900390625 l 2
 592.900390625 5.400390625 618.099609375 -0.2001953125 643.099609375 4.2998046875 c 0
 668.099609375 8.7998046875 689.799804688 22.7001953125 704.299804688 43.5 c 0
 718.799804688 64.2998046875 724.400390625 89.5 719.900390625 114.5 c 0
 715.400390625 139.5 701.5 161.200195312 680.700195312 175.700195312 c 0
 679.099609375 176.700195312 677.5 177.799804688 675.799804688 178.799804688 c 0
 533 247.900390625 377 190.700195312 304.700195312 42.599609375 c 0
 285.200195312 2.599609375 274.900390625 -42.099609375 274.900390625 -86.5 c 2
 274.900390625 -106.5 l 1
 152 -106.5 l 1
 152 -83.900390625 l 2
 152 108.299804688 159.299804688 257.799804688 175.400390625 396.700195312 c 1
 102.700195312 396.700195312 l 1
 102.700195312 518.799804688 l 1
 192.5 518.799804688 l 1
EndSplineSet
EndChar

StartChar: uniE157
Encoding: 57687 57687 70
Width: 1000
Flags: W
HStem: -120.5 123<174.446 292.787> -112.6 135.399<573.431 796.069> 191.1 123.2<174.446 288.087> 396.8 122.101<102.7 289 414.7 897.3> 546.7 89.2998<819.812 875.589> 696 89.5<819.796 875.589>
VStem: 16.7998 123<37.1465 156.553> 289.5 125.2<307.4 396.7 518.9 773.2> 728.3 89.4004<638.161 693.939> 877.7 89.3994<638.161 693.939>
LayerCount: 2
Fore
SplineSet
847.700195312 785.5 m 4x3fc0
 913.5 785.5 967.099609375 731.900390625 967.099609375 666.099609375 c 4
 967.099609375 600.299804688 913.5 546.700195312 847.700195312 546.700195312 c 4
 781.900390625 546.700195312 728.299804688 600.299804688 728.299804688 666.099609375 c 4
 728.299804688 731.900390625 781.799804688 785.5 847.700195312 785.5 c 4x3fc0
847.700195312 636 m 4
 864.200195312 636 877.700195312 649.5 877.700195312 666 c 4
 877.700195312 682.5 864.200195312 696 847.700195312 696 c 4
 831.200195312 696 817.700195312 682.5 817.700195312 666 c 4
 817.700195312 649.5 831.200195312 636 847.700195312 636 c 4
289.5 518.799804688 m 1
 290.5 773.200195312 l 1
 414.700195312 773.200195312 l 1
 414.700195312 518.900390625 l 1
 897.299804688 518.900390625 l 1
 897.299804688 396.799804688 l 1
 414.700195312 396.799804688 l 1
 414.700195312 274.200195312 l 2
 425.599609375 120 537.099609375 18.900390625 693.5 22.7998046875 c 0
 767.200195312 24.7001953125 836.900390625 54 889.799804688 105.200195312 c 2
 904.200195312 119.099609375 l 1
 991.599609375 29.099609375 l 1
 977.200195312 15.2001953125 l 2
 895.900390625 -63.599609375 794.200195312 -109 690.799804688 -112.599609375 c 0x7fc0
 591.700195312 -116.200195312 497.099609375 -80.400390625 422.599609375 -11.599609375 c 1
 384.200195312 -78.599609375 313.099609375 -120.5 234.200195312 -120.5 c 0xbfc0
 114.299804688 -120.5 16.7998046875 -23 16.7998046875 96.900390625 c 0
 16.7998046875 216.799804688 114.299804688 314.299804688 234.200195312 314.299804688 c 0
 252.799804688 314.299804688 271 312 288.700195312 307.400390625 c 1
 289 396.700195312 l 1
 102.700195312 396.700195312 l 1
 102.700195312 518.799804688 l 1
 289.5 518.799804688 l 1
321.799804688 131.400390625 m 1
 321.799804688 131.299804688 l 1
 321.099609375 133.099609375 320.700195312 134.099609375 320.299804688 135 c 0
 305.200195312 169.099609375 271.400390625 191.099609375 234.099609375 191.099609375 c 0
 182.099609375 191.099609375 139.799804688 148.799804688 139.799804688 96.7998046875 c 0
 139.799804688 44.7998046875 182.099609375 2.5 234.099609375 2.5 c 0xbfc0
 286.099609375 2.5 328.400390625 44.7998046875 328.400390625 96.7998046875 c 0
 328.400390625 109 326.200195312 120.599609375 321.799804688 131.400390625 c 1
EndSplineSet
EndChar

StartChar: uniE158
Encoding: 57688 57688 71
Width: 1000
Flags: W
HStem: -40.7002 122.9<320.693 443.423> 270.8 123.2<320.871 443.423> 396.7 122.1<102.7 175.5 319.2 897.4> 546.7 89.2998<819.812 875.589> 696 89.5<819.796 875.589>
VStem: 152 122.9<-106.5 -17.4004> 192.5 126.7<518.8 627.013> 479.4 123.199<117.779 235.417> 728.3 89.4004<638.161 693.939> 877.7 89.3994<638.161 693.939>
LayerCount: 2
Fore
SplineSet
847.700195312 785.5 m 4xf9c0
 913.5 785.5 967.099609375 731.900390625 967.099609375 666.099609375 c 4
 967.099609375 600.299804688 913.5 546.700195312 847.700195312 546.700195312 c 4
 781.900390625 546.700195312 728.299804688 600.299804688 728.299804688 666.099609375 c 4
 728.299804688 731.900390625 781.799804688 785.5 847.700195312 785.5 c 4xf9c0
847.700195312 636 m 4
 864.200195312 636 877.700195312 649.5 877.700195312 666 c 4
 877.700195312 682.5 864.200195312 696 847.700195312 696 c 4
 831.200195312 696 817.700195312 682.5 817.700195312 666 c 4
 817.700195312 649.5 831.200195312 636 847.700195312 636 c 4
256.299804688 795.799804688 m 2
 256.299804688 795.900390625 l 1
 376.200195312 759.099609375 l 1
 352.700195312 682.5 334 603.599609375 319.200195312 518.799804688 c 1xfbc0
 897.400390625 518.799804688 l 1
 897.400390625 396.700195312 l 1
 301.400390625 396.700195312 l 2
 300.5 389.900390625 299.700195312 383.299804688 299 376.900390625 c 1
 325.5 387.5 356.099609375 394 382.599609375 394 c 0
 503.900390625 394 602.599609375 296.599609375 602.599609375 176.700195312 c 0
 602.599609375 56.7998046875 503.900390625 -40.7001953125 382.599609375 -40.7001953125 c 0
 341.099609375 -40.7001953125 306.700195312 -33.2001953125 276.900390625 -17.400390625 c 1
 275.799804688 -40.5 274.900390625 -62.7001953125 274.900390625 -86.5 c 2
 274.900390625 -106.5 l 1
 152 -106.5 l 1
 152 -86.5 l 2xfdc0
 152 103.799804688 159.5 258.099609375 175.5 396.700195312 c 1
 102.700195312 396.700195312 l 1
 102.700195312 518.799804688 l 1
 192.5 518.799804688 l 1xfbc0
 208.700195312 617.900390625 229.599609375 708.700195312 256.299804688 795.799804688 c 2
382.5 270.799804688 m 0
 329.099609375 270.799804688 285.599609375 228.5 285.599609375 176.5 c 0
 285.599609375 124.5 329.099609375 82.2001953125 382.5 82.2001953125 c 0
 435.900390625 82.2001953125 479.400390625 124.5 479.400390625 176.5 c 0
 479.400390625 228.5 435.900390625 270.799804688 382.5 270.799804688 c 0
EndSplineSet
EndChar

StartChar: uniE159
Encoding: 57689 57689 72
Width: 1000
Flags: W
HStem: -132.7 430.601<768.7 867.4> -113 125.6<400.38 585.572> 396.7 122.1<102.7 176.4 319.6 897.4> 546.7 89.2998<819.812 875.589> 696 89.5<819.796 875.589>
VStem: 167 125.9<118.56 393.676> 728.3 89.4004<638.161 693.939> 877.7 89.3994<638.161 693.939>
LayerCount: 2
Fore
SplineSet
847.700195312 785.5 m 4x3f
 913.5 785.5 967.099609375 731.900390625 967.099609375 666.099609375 c 4
 967.099609375 600.299804688 913.5 546.700195312 847.700195312 546.700195312 c 4
 781.900390625 546.700195312 728.299804688 600.299804688 728.299804688 666.099609375 c 4
 728.299804688 731.900390625 781.799804688 785.5 847.700195312 785.5 c 4x3f
847.700195312 636 m 4
 864.200195312 636 877.700195312 649.5 877.700195312 666 c 4
 877.700195312 682.5 864.200195312 696 847.700195312 696 c 4
 831.200195312 696 817.700195312 682.5 817.700195312 666 c 4
 817.700195312 649.5 831.200195312 636 847.700195312 636 c 4
480.799804688 12.599609375 m 1x7f
 480.900390625 12.599609375 l 2x7f
 638.900390625 14.7998046875 765 139.900390625 768.700195312 297.900390625 c 1
 894.299804688 297.900390625 l 1
 894.299804688 297.599609375 l 2
 894.099609375 289.599609375 893.799804688 282 893.299804688 274.799804688 c 0
 981.599609375 220.599609375 1020.79980469 109.700195312 984.5 11.099609375 c 0
 951.700195312 -77.7001953125 867.400390625 -132.700195312 777.900390625 -132.700195312 c 0xbf
 752.599609375 -132.700195312 727 -128.299804688 701.900390625 -119 c 0
 678 -110.200195312 656.099609375 -97.5 636.700195312 -81.2001953125 c 0
 586.299804688 -102.099609375 533 -112.799804688 478 -113 c 0
 304.299804688 -109.200195312 168 29.5 167 203.099609375 c 1
 167 267.200195312 170.200195312 332.200195312 176.400390625 396.700195312 c 1
 102.700195312 396.700195312 l 1
 102.700195312 518.799804688 l 1
 191.900390625 518.799804688 l 1
 206.799804688 612.400390625 228.400390625 705.599609375 256.299804688 795.900390625 c 1
 376.700195312 759 l 1
 376.700195312 758.799804688 l 2
 352.599609375 680.700195312 333.400390625 600 319.599609375 518.799804688 c 1
 897.400390625 518.799804688 l 1
 897.400390625 396.700195312 l 1
 302.900390625 396.700195312 l 1
 296.5 334.299804688 293.099609375 271.099609375 292.900390625 208.700195312 c 0
 291.099609375 105.599609375 373.799804688 17.7001953125 477.200195312 12.599609375 c 2
 480.799804688 12.599609375 l 1x7f
873.700195312 77.2001953125 m 2
 873.700195312 77.2998046875 l 2
 876 98.900390625 871 120.200195312 859.599609375 138.400390625 c 1
 835.700195312 83.2001953125 800.200195312 34.099609375 755.299804688 -6.099609375 c 1
 784 -12.900390625 814.900390625 -6.5 838.5 12.599609375 c 0
 858.5 28.7001953125 871 51.599609375 873.700195312 77.2001953125 c 2
EndSplineSet
EndChar

StartChar: uniE15A
Encoding: 57690 57690 73
Width: 1000
Flags: W
HStem: -113 198.3<423.025 632.638> 396.7 122.1<102.7 176.4 319.6 597.4 616.2 897.4> 546.7 89.2998<819.812 875.589> 696 89.5<819.796 875.589>
VStem: 167 125.8<116.928 393.695> 389.5 123.1<119.888 238.496> 701.2 191.6<119.65 239.55> 728.3 89.4004<638.161 693.939> 768.6 124.2<-111.6 8.59961> 877.7 89.3994<638.161 693.939>
LayerCount: 2
Fore
SplineSet
847.700195312 785.5 m 4xfd40
 913.5 785.5 967.099609375 731.900390625 967.099609375 666.099609375 c 4
 967.099609375 600.299804688 913.5 546.700195312 847.700195312 546.700195312 c 4
 781.900390625 546.700195312 728.299804688 600.299804688 728.299804688 666.099609375 c 4
 728.299804688 731.900390625 781.799804688 785.5 847.700195312 785.5 c 4xfd40
847.700195312 636 m 4
 864.200195312 636 877.700195312 649.5 877.700195312 666 c 4
 877.700195312 682.5 864.200195312 696 847.700195312 696 c 4
 831.200195312 696 817.700195312 682.5 817.700195312 666 c 4
 817.700195312 649.5 831.200195312 636 847.700195312 636 c 4
191.900390625 518.799804688 m 1
 206.799804688 612.5 228.400390625 705.700195312 256.299804688 795.900390625 c 1
 376.700195312 759 l 1
 376.700195312 758.799804688 l 2
 352.599609375 680.599609375 333.400390625 600 319.599609375 518.799804688 c 1
 897.400390625 518.799804688 l 1
 897.400390625 396.700195312 l 1
 616.200195312 396.700195312 l 1
 684 393.700195312 747.900390625 356.900390625 787.400390625 299.400390625 c 1
 892.799804688 299.400390625 l 1
 892.799804688 -111.599609375 l 1
 768.599609375 -111.599609375 l 1
 768.599609375 8.599609375 l 1xfc80
 691.099609375 -68.7998046875 586.900390625 -112.599609375 475.400390625 -113 c 0
 299.099609375 -109.099609375 163.900390625 33.099609375 167 210.700195312 c 0
 167.200195312 272 170.400390625 334.5 176.400390625 396.700195312 c 1
 102.700195312 396.700195312 l 1
 102.700195312 518.799804688 l 1
 191.900390625 518.799804688 l 1
701.200195312 179.599609375 m 0xfe
 701.200195312 231.599609375 658.900390625 273.900390625 606.900390625 273.900390625 c 0
 554.900390625 273.900390625 512.599609375 231.599609375 512.599609375 179.599609375 c 0
 512.599609375 127.599609375 554.900390625 85.2998046875 606.900390625 85.2998046875 c 0
 658.900390625 85.2998046875 701.200195312 127.599609375 701.200195312 179.599609375 c 0xfe
302.799804688 396.700195312 m 1
 296.099609375 332.599609375 292.799804688 267.599609375 292.799804688 203.200195312 c 0
 293.599609375 104 369.400390625 21.900390625 466.700195312 13.2001953125 c 1
 418.5 53.7998046875 389.5 114.099609375 389.5 179.5 c 0
 389.5 296.200195312 481.900390625 391.700195312 597.400390625 396.700195312 c 1
 302.799804688 396.700195312 l 1
EndSplineSet
EndChar

StartChar: uniE15B
Encoding: 57691 57691 74
Width: 1000
Flags: W
HStem: -113 125.6<400.298 585.277> 396.7 122.1<102.7 176.4 319.6 897.4> 546.7 89.2998<819.812 875.589> 696 89.5<819.796 875.589>
VStem: 167 125.9<118.56 393.676> 728.3 89.4004<638.161 693.939> 768.6 124.2<-106.4 6.09961 193.441 297.9> 877.7 89.3994<638.161 693.939>
LayerCount: 2
Fore
SplineSet
847.700195312 785.5 m 4xfd
 913.5 785.5 967.099609375 731.900390625 967.099609375 666.099609375 c 4
 967.099609375 600.299804688 913.5 546.700195312 847.700195312 546.700195312 c 4
 781.900390625 546.700195312 728.299804688 600.299804688 728.299804688 666.099609375 c 4
 728.299804688 731.900390625 781.799804688 785.5 847.700195312 785.5 c 4xfd
847.700195312 636 m 4
 864.200195312 636 877.700195312 649.5 877.700195312 666 c 4
 877.700195312 682.5 864.200195312 696 847.700195312 696 c 4
 831.200195312 696 817.700195312 682.5 817.700195312 666 c 4
 817.700195312 649.5 831.200195312 636 847.700195312 636 c 4
480.700195312 12.599609375 m 2
 638.5 14.900390625 764.700195312 140 768.5 297.900390625 c 1
 892.799804688 297.900390625 l 1
 892.799804688 -106.400390625 l 1
 768.599609375 -106.400390625 l 1
 768.599609375 6.099609375 l 1xfa
 691.299804688 -69.7001953125 588 -112.599609375 477.900390625 -113 c 0
 304.299804688 -109.299804688 168 29.5 167 203.099609375 c 1
 167 267.200195312 170.200195312 332.200195312 176.400390625 396.700195312 c 1
 102.700195312 396.700195312 l 1
 102.700195312 518.799804688 l 1
 191.900390625 518.799804688 l 1
 206.799804688 612.400390625 228.400390625 705.599609375 256.299804688 795.900390625 c 1
 376.700195312 759 l 1
 376.700195312 758.799804688 l 2
 352.599609375 680.599609375 333.400390625 600 319.599609375 518.799804688 c 1
 897.400390625 518.799804688 l 1
 897.400390625 396.700195312 l 1
 302.900390625 396.700195312 l 1
 296.5 334.299804688 293.099609375 271.200195312 292.900390625 208.700195312 c 0
 291.099609375 105.599609375 373.700195312 17.7001953125 477.099609375 12.599609375 c 2
 480.700195312 12.599609375 l 2
EndSplineSet
EndChar

StartChar: uniE15C
Encoding: 57692 57692 75
Width: 1000
Flags: W
HStem: -113.4 126.601<399.245 497.405> 284.4 234.5<573.515 689.886> 396.7 122.2<102.7 176.4 319.5 564.5 698.6 897.3> 546.7 89.2998<819.812 875.589> 696 89.5<819.796 875.589>
VStem: 167 125.7<121.464 393.676> 414.1 123.301<126.835 249.014> 726 123<125.871 249.014> 728.3 89.4004<638.161 693.939> 866.2 126.899<-97.5 -19.3062> 877.7 89.3994<638.161 693.939>
LayerCount: 2
Fore
SplineSet
847.700195312 785.5 m 4x9ea0
 913.5 785.5 967.099609375 731.900390625 967.099609375 666.099609375 c 4
 967.099609375 600.299804688 913.5 546.700195312 847.700195312 546.700195312 c 4
 781.900390625 546.700195312 728.299804688 600.299804688 728.299804688 666.099609375 c 4
 728.299804688 731.900390625 781.799804688 785.5 847.700195312 785.5 c 4x9ea0
847.700195312 636 m 4
 864.200195312 636 877.700195312 649.5 877.700195312 666 c 4
 877.700195312 682.5 864.200195312 696 847.700195312 696 c 4
 831.200195312 696 817.700195312 682.5 817.700195312 666 c 4
 817.700195312 649.5 831.200195312 636 847.700195312 636 c 4
191.900390625 518.799804688 m 1
 206.799804688 612.400390625 228.400390625 705.599609375 256.299804688 795.900390625 c 1
 376.700195312 759.099609375 l 1
 376.700195312 758.900390625 l 2
 352.5 680.700195312 333.299804688 600.099609375 319.5 518.900390625 c 1
 897.299804688 518.900390625 l 1
 897.299804688 396.799804688 l 1
 698.599609375 396.799804688 l 1
 785.799804688 368.099609375 849 285.099609375 849 187.5 c 0
 849 165.700195312 845.900390625 144.400390625 839.799804688 123.900390625 c 1
 889.700195312 110.900390625 932.900390625 81.099609375 963 38.2998046875 c 0
 990.599609375 -0.7998046875 993 -37.2998046875 993.099609375 -77.5 c 2
 993.099609375 -97.5 l 1
 866.200195312 -97.7998046875 l 1
 866.200195312 -77.7998046875 l 2
 866.099609375 -27.2998046875 834.700195312 4 784.200195312 4 c 2
 784 4 l 2
 764.099609375 3.900390625 745.200195312 -1.7998046875 730.599609375 -12.099609375 c 2
 654.700195312 -65.2001953125 l 2
 602.400390625 -97.7998046875 544.200195312 -113.400390625 486.599609375 -113.400390625 c 0
 386.200195312 -113.400390625 287.700195312 -66.099609375 226 21.599609375 c 0
 187.799804688 75.900390625 167.400390625 138.599609375 167 203 c 0
 167 267.200195312 170.200195312 332.200195312 176.400390625 396.700195312 c 1
 102.700195312 396.700195312 l 1xbf40
 102.700195312 518.799804688 l 1
 191.900390625 518.799804688 l 1
631.700195312 284.299804688 m 1
 631.700195312 284.400390625 l 1xdf
 579.700195312 284.400390625 537.400390625 240.900390625 537.400390625 187.5 c 0
 537.400390625 134.099609375 579.700195312 90.599609375 631.700195312 90.599609375 c 0
 644.900390625 90.599609375 657.5 93.2998046875 669.400390625 98.599609375 c 0
 674.400390625 101.700195312 679.200195312 104.400390625 684.099609375 106.900390625 c 0
 710.400390625 125 726 155 726 187.400390625 c 0
 726 240.799804688 683.700195312 284.299804688 631.700195312 284.299804688 c 1
302.799804688 396.700195312 m 1xbe
 302.700195312 396.599609375 l 2
 296.5 336.200195312 293.099609375 275.299804688 292.700195312 215.299804688 c 0
 290.900390625 107 371.700195312 18.2998046875 476.700195312 13.2001953125 c 0
 484 12.900390625 491.200195312 12.900390625 498.400390625 13.400390625 c 1
 446 54.5 414.099609375 118.400390625 414.099609375 187.400390625 c 0
 414.099609375 285 477.299804688 368 564.5 396.700195312 c 1
 302.799804688 396.700195312 l 1xbe
EndSplineSet
EndChar

